font.ufo
<glyph name="exclam" format="2">
	<unicode hex="0021"/>
	<advance width="309"/>
	<outline>
		<contour>
			<point x="109" y="213" type="line"/>
			<point x="183" y="213" type="line"/>
			<point x="267" y="560" type="line"/>
			<point x="292" y="671" type="line"/>
			<point x="182" y="671" type="line"/>
		</contour>
		<contour>
			<point x="105" y="-12" type="curve" smooth="yes"/>
			<point x="154" y="-12"/>
			<point x="188" y="31"/>
			<point x="188" y="74" type="curve" smooth="yes"/>
			<point x="188" y="111"/>
			<point x="165" y="139"/>
			<point x="129" y="139" type="curve" smooth="yes"/>
			<point x="79" y="139"/>
			<point x="44" y="93"/>
			<point x="44" y="52" type="curve" smooth="yes"/>
			<point x="44" y="14"/>
			<point x="68" y="-12"/>
		</contour>
	</outline>
</glyph>
<glyph name="dollar" format="2">
	<unicode hex="0024"/>
	<advance width="496"/>
	<outline>
		<contour>
			<point x="214" y="-12" type="curve" smooth="yes"/>
			<point x="344" y="-12"/>
			<point x="429" y="72"/>
			<point x="429" y="186" type="curve" smooth="yes"/>
			<point x="429" y="350"/>
			<point x="222" y="370"/>
			<point x="222" y="476" type="curve" smooth="yes"/>
			<point x="222" y="524"/>
			<point x="258" y="559"/>
			<point x="313" y="559" type="curve" smooth="yes"/>
			<point x="353" y="559"/>
			<point x="392" y="532"/>
			<point x="420" y="497" type="curve"/>
			<point x="485" y="558" type="line"/>
			<point x="441" y="613"/>
			<point x="386" y="648"/>
			<point x="316" y="648" type="curve" smooth="yes"/>
			<point x="196" y="648"/>
			<point x="113" y="570"/>
			<point x="113" y="462" type="curve" smooth="yes"/>
			<point x="113" y="314"/>
			<point x="320" y="294"/>
			<point x="320" y="171" type="curve" smooth="yes"/>
			<point x="320" y="115"/>
			<point x="280" y="77"/>
			<point x="216" y="77" type="curve" smooth="yes"/>
			<point x="164" y="77"/>
			<point x="117" y="111"/>
			<point x="86" y="148" type="curve"/>
			<point x="22" y="85" type="line"/>
			<point x="68" y="30"/>
			<point x="139" y="-12"/>
		</contour>
		<contour>
			<point x="144" y="-110" type="line"/>
			<point x="219" y="-110" type="line"/>
			<point x="248" y="31" type="line"/>
			<point x="172" y="31" type="line"/>
		</contour>
		<contour>
			<point x="288" y="617" type="line"/>
			<point x="363" y="617" type="line"/>
			<point x="390" y="752" type="line"/>
			<point x="314" y="752" type="line"/>
		</contour>
	</outline>
</glyph>
<glyph name="ampersand" format="2">
	<unicode hex="0026"/>
	<advance width="610"/>
	<outline>
		<contour>
			<point x="191" y="-12" type="curve" smooth="yes"/>
			<point x="284" y="-12"/>
			<point x="364" y="28"/>
			<point x="430" y="93" type="curve" smooth="yes"/>
			<point x="509" y="169"/>
			<point x="566" y="262"/>
			<point x="612" y="360" type="curve"/>
			<point x="512" y="360" type="line"/>
			<point x="476" y="276"/>
			<point x="430" y="204"/>
			<point x="365" y="143" type="curve" smooth="yes"/>
			<point x="317" y="98"/>
			<point x="262" y="72"/>
			<point x="211" y="72" type="curve" smooth="yes"/>
			<point x="157" y="72"/>
			<point x="122" y="107"/>
			<point x="122" y="159" type="curve" smooth="yes"/>
			<point x="122" y="314"/>
			<point x="462" y="349"/>
			<point x="462" y="545" type="curve" smooth="yes"/>
			<point x="462" y="616"/>
			<point x="420" y="666"/>
			<point x="340" y="666" type="curve" smooth="yes"/>
			<point x="238" y="666"/>
			<point x="154" y="581"/>
			<point x="154" y="472" type="curve" smooth="yes"/>
			<point x="154" y="343"/>
			<point x="244" y="181"/>
			<point x="355" y="80" type="curve" smooth="yes"/>
			<point x="407" y="34"/>
			<point x="463" y="2"/>
			<point x="516" y="-12" type="curve"/>
			<point x="560" y="75" type="line"/>
			<point x="524" y="86"/>
			<point x="476" y="110"/>
			<point x="432" y="147" type="curve" smooth="yes"/>
			<point x="336" y="229"/>
			<point x="246" y="362"/>
			<point x="246" y="476" type="curve" smooth="yes"/>
			<point x="246" y="545"/>
			<point x="286" y="591"/>
			<point x="333" y="591" type="curve" smooth="yes"/>
			<point x="362" y="591"/>
			<point x="375" y="572"/>
			<point x="375" y="545" type="curve" smooth="yes"/>
			<point x="375" y="385"/>
			<point x="15" y="382"/>
			<point x="15" y="146" type="curve" smooth="yes"/>
			<point x="15" y="51"/>
			<point x="82" y="-12"/>
		</contour>
	</outline>
</glyph>
<glyph name="quotesingle" format="1">
	<unicode hex="0027"/>
	<advance width="267"/>
	<outline>
		<contour>
			<point x="124" y="394" type="line"/>
			<point x="196" y="394" type="line"/>
			<point x="245" y="561" type="line"/>
			<point x="269" y="671" type="line"/>
			<point x="163" y="671" type="line"/>
			<point x="146" y="561" type="line"/>
		</contour>
	</outline>
</glyph>
<glyph name="parenleft" format="2">
	<unicode hex="0028"/>
	<advance width="310"/>
	<outline>
		<contour>
			<point x="122" y="-180" type="curve"/>
			<point x="190" y="-152" type="line"/>
			<point x="163" y="-78"/>
			<point x="148" y="22"/>
			<point x="148" y="126" type="curve" smooth="yes"/>
			<point x="148" y="335"/>
			<point x="216" y="552"/>
			<point x="357" y="694" type="curve"/>
			<point x="294" y="732" type="line"/>
			<point x="144" y="586"/>
			<point x="60" y="374"/>
			<point x="60" y="126" type="curve" smooth="yes"/>
			<point x="60" y="10"/>
			<point x="87" y="-98"/>
		</contour>
	</outline>
</glyph>
<glyph name="parenright" format="2">
	<unicode hex="0029"/>
	<advance width="312"/>
	<outline>
		<contour>
			<point x="24" y="-180" type="line"/>
			<point x="174" y="-33"/>
			<point x="258" y="178"/>
			<point x="258" y="427" type="curve" smooth="yes"/>
			<point x="258" y="543"/>
			<point x="232" y="651"/>
			<point x="196" y="732" type="curve"/>
			<point x="128" y="705" type="line"/>
			<point x="156" y="631"/>
			<point x="170" y="530"/>
			<point x="170" y="427" type="curve" smooth="yes"/>
			<point x="170" y="218"/>
			<point x="102" y="1"/>
			<point x="-38" y="-142" type="curve"/>
		</contour>
	</outline>
</glyph>
<glyph name="asterisk" format="2">
	<unicode hex="002A"/>
	<advance width="422"/>
	<outline>
		<contour>
			<point x="174" y="396" type="line"/>
			<point x="258" y="476" type="line"/>
			<point x="315" y="384" type="line"/>
			<point x="369" y="415" type="line"/>
			<point x="331" y="517" type="line"/>
			<point x="438" y="552" type="line"/>
			<point x="429" y="610" type="line"/>
			<point x="320" y="596" type="line"/>
			<point x="328" y="709" type="line"/>
			<point x="269" y="713" type="line"/>
			<point x="240" y="603" type="line"/>
			<point x="137" y="636" type="line"/>
			<point x="112" y="583" type="line"/>
			<point x="204" y="530" type="line"/>
			<point x="131" y="436" type="line"/>
		</contour>
	</outline>
</glyph>
<glyph name="plus" format="2">
	<unicode hex="002B"/>
	<advance width="496"/>
	<outline>
		<contour>
			<point x="218" y="99" type="line"/>
			<point x="301" y="99" type="line"/>
			<point x="301" y="291" type="line"/>
			<point x="473" y="291" type="line"/>
			<point x="473" y="370" type="line"/>
			<point x="302" y="370" type="line"/>
			<point x="302" y="560" type="line"/>
			<point x="219" y="560" type="line"/>
			<point x="219" y="370" type="line"/>
			<point x="48" y="370" type="line"/>
			<point x="48" y="291" type="line"/>
			<point x="218" y="291" type="line"/>
		</contour>
	</outline>
</glyph>
<glyph name="comma" format="2">
	<unicode hex="002C"/>
	<advance width="269"/>
	<outline>
		<contour>
			<point x="-16" y="-177" type="line"/>
			<point x="101" y="-149"/>
			<point x="176" y="-58"/>
			<point x="176" y="56" type="curve" smooth="yes"/>
			<point x="176" y="107"/>
			<point x="151" y="139"/>
			<point x="106" y="139" type="curve" smooth="yes"/>
			<point x="57" y="139"/>
			<point x="26" y="100"/>
			<point x="26" y="59" type="curve" smooth="yes"/>
			<point x="26" y="21"/>
			<point x="54" y="-2"/>
			<point x="93" y="-2" type="curve" smooth="yes"/>
			<point x="106" y="-2"/>
			<point x="121" y="5"/>
			<point x="132" y="14" type="curve"/>
			<point x="105" y="89" type="line"/>
			<point x="93" y="0" type="line"/>
			<point x="82" y="-49"/>
			<point x="42" y="-92"/>
			<point x="-29" y="-115" type="curve"/>
		</contour>
	</outline>
</glyph>
<glyph name="period" format="2">
	<unicode hex="002E"/>
	<advance width="269"/>
	<outline>
		<contour>
			<point x="84" y="-12" type="curve" smooth="yes"/>
			<point x="133" y="-12"/>
			<point x="167" y="31"/>
			<point x="167" y="74" type="curve" smooth="yes"/>
			<point x="167" y="111"/>
			<point x="144" y="139"/>
			<point x="107" y="139" type="curve" smooth="yes"/>
			<point x="58" y="139"/>
			<point x="23" y="93"/>
			<point x="23" y="52" type="curve" smooth="yes"/>
			<point x="23" y="14"/>
			<point x="47" y="-12"/>
		</contour>
	</outline>
</glyph>
<glyph name="slash" format="2">
	<unicode hex="002F"/>
	<advance width="334"/>
	<outline>
		<contour>
			<point x="-70" y="-160" type="line"/>
			<point x="4" y="-160" type="line"/>
			<point x="404" y="710" type="line"/>
			<point x="329" y="710" type="line"/>
		</contour>
	</outline>
</glyph>
<glyph name="zero" format="2">
	<unicode hex="0030"/>
	<advance width="496"/>
	<outline>
		<contour>
			<point x="210" y="-12" type="curve" smooth="yes"/>
			<point x="348" y="-12"/>
			<point x="481" y="161"/>
			<point x="481" y="423" type="curve" smooth="yes"/>
			<point x="481" y="563"/>
			<point x="414" y="648"/>
			<point x="312" y="648" type="curve" smooth="yes"/>
			<point x="174" y="648"/>
			<point x="40" y="473"/>
			<point x="40" y="211" type="curve" smooth="yes"/>
			<point x="40" y="72"/>
			<point x="107" y="-12"/>
		</contour>
		<contour>
			<point x="216" y="74" type="curve" smooth="yes"/>
			<point x="167" y="74"/>
			<point x="142" y="120"/>
			<point x="142" y="202" type="curve" smooth="yes"/>
			<point x="142" y="386"/>
			<point x="219" y="563"/>
			<point x="305" y="563" type="curve" smooth="yes"/>
			<point x="354" y="563"/>
			<point x="379" y="515"/>
			<point x="379" y="432" type="curve" smooth="yes"/>
			<point x="379" y="248"/>
			<point x="302" y="74"/>
		</contour>
	</outline>
</glyph>
<glyph name="one" format="2">
	<unicode hex="0031"/>
	<advance width="496"/>
	<outline>
		<contour>
			<point x="22" y="0" type="line"/>
			<point x="389" y="0" type="line"/>
			<point x="407" y="89" type="line"/>
			<point x="285" y="89" type="line"/>
			<point x="395" y="636" type="line"/>
			<point x="312" y="636" type="line"/>
			<point x="270" y="611"/>
			<point x="224" y="594"/>
			<point x="160" y="585" type="curve"/>
			<point x="146" y="515" type="line"/>
			<point x="260" y="515" type="line"/>
			<point x="175" y="89" type="line"/>
			<point x="40" y="89" type="line"/>
		</contour>
	</outline>
</glyph>
<glyph name="two" format="2">
	<unicode hex="0032"/>
	<advance width="496"/>
	<outline>
		<contour>
			<point x="-12" y="0" type="line"/>
			<point x="401" y="0" type="line"/>
			<point x="418" y="93" type="line"/>
			<point x="268" y="93" type="line" smooth="yes"/>
			<point x="237" y="93"/>
			<point x="195" y="90"/>
			<point x="161" y="87" type="curve"/>
			<point x="350" y="247"/>
			<point x="467" y="347"/>
			<point x="467" y="484" type="curve" smooth="yes"/>
			<point x="467" y="581"/>
			<point x="399" y="648"/>
			<point x="284" y="648" type="curve" smooth="yes"/>
			<point x="221" y="648"/>
			<point x="164" y="620"/>
			<point x="104" y="566" type="curve"/>
			<point x="155" y="504" type="line"/>
			<point x="196" y="539"/>
			<point x="232" y="560"/>
			<point x="271" y="560" type="curve" smooth="yes"/>
			<point x="330" y="560"/>
			<point x="360" y="522"/>
			<point x="360" y="471" type="curve" smooth="yes"/>
			<point x="360" y="357"/>
			<point x="228" y="252"/>
			<point x="1" y="69" type="curve"/>
		</contour>
	</outline>
</glyph>
<glyph name="three" format="2">
	<unicode hex="0033"/>
	<advance width="494"/>
	<outline>
		<contour>
			<point x="194" y="-12" type="curve" smooth="yes"/>
			<point x="332" y="-12"/>
			<point x="434" y="62"/>
			<point x="434" y="187" type="curve" smooth="yes"/>
			<point x="434" y="248"/>
			<point x="398" y="298"/>
			<point x="329" y="323" type="curve"/>
			<point x="329" y="327" type="line"/>
			<point x="428" y="357"/>
			<point x="471" y="418"/>
			<point x="471" y="499" type="curve" smooth="yes"/>
			<point x="471" y="589"/>
			<point x="402" y="648"/>
			<point x="292" y="648" type="curve" smooth="yes"/>
			<point x="228" y="648"/>
			<point x="166" y="630"/>
			<point x="107" y="587" type="curve"/>
			<point x="160" y="517" type="line"/>
			<point x="198" y="546"/>
			<point x="238" y="562"/>
			<point x="273" y="562" type="curve" smooth="yes"/>
			<point x="332" y="562"/>
			<point x="362" y="529"/>
			<point x="362" y="481" type="curve" smooth="yes"/>
			<point x="362" y="424"/>
			<point x="318" y="366"/>
			<point x="172" y="366" type="curve"/>
			<point x="156" y="288" type="line"/>
			<point x="286" y="288"/>
			<point x="327" y="247"/>
			<point x="327" y="186" type="curve" smooth="yes"/>
			<point x="327" y="120"/>
			<point x="274" y="75"/>
			<point x="194" y="75" type="curve" smooth="yes"/>
			<point x="138" y="75"/>
			<point x="89" y="110"/>
			<point x="56" y="156" type="curve"/>
			<point x="-12" y="100" type="line"/>
			<point x="36" y="31"/>
			<point x="112" y="-12"/>
		</contour>
	</outline>
</glyph>
<glyph name="four" format="2">
	<unicode hex="0034"/>
	<advance width="494"/>
	<outline>
		<contour>
			<point x="352" y="0" type="line"/>
			<point x="385" y="165" type="line"/>
			<point x="463" y="165" type="line"/>
			<point x="480" y="249" type="line"/>
			<point x="402" y="249" type="line"/>
			<point x="479" y="636" type="line"/>
			<point x="355" y="636" type="line"/>
			<point x="26" y="239" type="line"/>
			<point x="12" y="165" type="line"/>
			<point x="287" y="165" type="line"/>
			<point x="254" y="0" type="line"/>
		</contour>
		<contour>
			<point x="137" y="249" type="line"/>
			<point x="282" y="424" type="line" smooth="yes"/>
			<point x="309" y="459"/>
			<point x="335" y="496"/>
			<point x="361" y="534" type="curve"/>
			<point x="365" y="534" type="line"/>
			<point x="355" y="489"/>
			<point x="342" y="442"/>
			<point x="333" y="400" type="curve" smooth="yes"/>
			<point x="303" y="249" type="line"/>
		</contour>
	</outline>
</glyph>
<glyph name="five" format="2">
	<unicode hex="0035"/>
	<advance width="496"/>
	<outline>
		<contour>
			<point x="198" y="-12" type="curve" smooth="yes"/>
			<point x="326" y="-12"/>
			<point x="447" y="84"/>
			<point x="447" y="238" type="curve" smooth="yes"/>
			<point x="447" y="349"/>
			<point x="374" y="406"/>
			<point x="278" y="406" type="curve" smooth="yes"/>
			<point x="251" y="406"/>
			<point x="228" y="400"/>
			<point x="207" y="390" type="curve"/>
			<point x="250" y="543" type="line"/>
			<point x="477" y="543" type="line"/>
			<point x="496" y="636" type="line"/>
			<point x="173" y="636" type="line"/>
			<point x="94" y="327" type="line"/>
			<point x="137" y="292" type="line"/>
			<point x="179" y="315"/>
			<point x="199" y="323"/>
			<point x="236" y="323" type="curve" smooth="yes"/>
			<point x="297" y="323"/>
			<point x="335" y="289"/>
			<point x="335" y="220" type="curve" smooth="yes"/>
			<point x="335" y="132"/>
			<point x="272" y="77"/>
			<point x="201" y="77" type="curve" smooth="yes"/>
			<point x="139" y="77"/>
			<point x="100" y="112"/>
			<point x="69" y="156" type="curve"/>
			<point x="-2" y="99" type="line"/>
			<point x="47" y="29"/>
			<point x="115" y="-12"/>
		</contour>
	</outline>
</glyph>
<glyph name="six" format="2">
	<unicode hex="0036"/>
	<advance width="496"/>
	<outline>
		<contour>
			<point x="239" y="-12" type="curve" smooth="yes"/>
			<point x="365" y="-12"/>
			<point x="456" y="102"/>
			<point x="456" y="226" type="curve" smooth="yes"/>
			<point x="456" y="335"/>
			<point x="392" y="392"/>
			<point x="300" y="392" type="curve" smooth="yes"/>
			<point x="259" y="392"/>
			<point x="199" y="367"/>
			<point x="159" y="320" type="curve"/>
			<point x="149" y="236" type="line"/>
			<point x="194" y="296"/>
			<point x="242" y="314"/>
			<point x="272" y="314" type="curve" smooth="yes"/>
			<point x="326" y="314"/>
			<point x="355" y="276"/>
			<point x="355" y="214" type="curve" smooth="yes"/>
			<point x="355" y="147"/>
			<point x="311" y="71"/>
			<point x="245" y="71" type="curve" smooth="yes"/>
			<point x="190" y="71"/>
			<point x="153" y="121"/>
			<point x="153" y="201" type="curve" smooth="yes"/>
			<point x="153" y="413"/>
			<point x="253" y="559"/>
			<point x="357" y="559" type="curve" smooth="yes"/>
			<point x="396" y="559"/>
			<point x="422" y="538"/>
			<point x="442" y="507" type="curve"/>
			<point x="507" y="564" type="line"/>
			<point x="478" y="610"/>
			<point x="434" y="648"/>
			<point x="364" y="648" type="curve" smooth="yes"/>
			<point x="189" y="648"/>
			<point x="51" y="456"/>
			<point x="51" y="210" type="curve" smooth="yes"/>
			<point x="51" y="79"/>
			<point x="123" y="-12"/>
		</contour>
	</outline>
</glyph>
<glyph name="seven" format="2">
	<unicode hex="0037"/>
	<advance width="494"/>
	<outline>
		<contour>
			<point x="110" y="0" type="curve"/>
			<point x="221" y="0" type="line"/>
			<point x="264" y="188"/>
			<point x="323" y="374"/>
			<point x="519" y="568" type="curve"/>
			<point x="533" y="636" type="line"/>
			<point x="118" y="636" type="line"/>
			<point x="100" y="546" type="line"/>
			<point x="394" y="546" type="line"/>
			<point x="244" y="385"/>
			<point x="168" y="216"/>
		</contour>
	</outline>
</glyph>
<glyph name="eight" format="1">
	<unicode hex="0038"/>
	<advance width="494"/>
	<outline>
		<contour>
			<point x="228" y="-12" type="curve" smooth="yes"/>
			<point x="348" y="-12"/>
			<point x="453" y="60"/>
			<point x="453" y="176" type="curve" smooth="yes"/>
			<point x="453" y="242"/>
			<point x="411" y="291"/>
			<point x="368" y="320" type="curve"/>
			<point x="368" y="324" type="line"/>
			<point x="440" y="363"/>
			<point x="488" y="419"/>
			<point x="488" y="501" type="curve" smooth="yes"/>
			<point x="488" y="603"/>
			<point x="404" y="648"/>
			<point x="320" y="648" type="curve" smooth="yes"/>
			<point x="212" y="648"/>
			<point x="120" y="582"/>
			<point x="120" y="470" type="curve" smooth="yes"/>
			<point x="120" y="419"/>
			<point x="140" y="381"/>
			<point x="178" y="343" type="curve"/>
			<point x="178" y="339" type="line"/>
			<point x="100" y="306"/>
			<point x="33" y="245"/>
			<point x="33" y="153" type="curve" smooth="yes"/>
			<point x="33" y="39"/>
			<point x="135" y="-12"/>
		</contour>
		<contour>
			<point x="316" y="355" type="curve"/>
			<point x="252" y="388"/>
			<point x="215" y="417"/>
			<point x="215" y="475" type="curve" smooth="yes"/>
			<point x="215" y="536"/>
			<point x="261" y="571"/>
			<point x="312" y="571" type="curve" smooth="yes"/>
			<point x="364" y="571"/>
			<point x="396" y="538"/>
			<point x="396" y="486" type="curve" smooth="yes"/>
			<point x="396" y="427"/>
			<point x="357" y="385"/>
		</contour>
		<contour>
			<point x="235" y="64" type="curve" smooth="yes"/>
			<point x="173" y="64"/>
			<point x="129" y="105"/>
			<point x="129" y="164" type="curve" smooth="yes"/>
			<point x="129" y="229"/>
			<point x="170" y="272"/>
			<point x="224" y="306" type="curve"/>
			<point x="296" y="265"/>
			<point x="354" y="235"/>
			<point x="354" y="173" type="curve" smooth="yes"/>
			<point x="354" y="102"/>
			<point x="296" y="64"/>
		</contour>
	</outline>
</glyph>
<glyph name="nine" format="2">
	<unicode hex="0039"/>
	<advance width="494"/>
	<outline>
		<contour>
			<point x="162" y="-12" type="curve" smooth="yes"/>
			<point x="340" y="-12"/>
			<point x="471" y="167"/>
			<point x="471" y="427" type="curve" smooth="yes"/>
			<point x="471" y="557"/>
			<point x="399" y="648"/>
			<point x="283" y="648" type="curve" smooth="yes"/>
			<point x="158" y="648"/>
			<point x="67" y="535"/>
			<point x="67" y="411" type="curve" smooth="yes"/>
			<point x="67" y="303"/>
			<point x="131" y="245"/>
			<point x="223" y="245" type="curve" smooth="yes"/>
			<point x="264" y="245"/>
			<point x="325" y="269"/>
			<point x="365" y="317" type="curve"/>
			<point x="375" y="400" type="line"/>
			<point x="329" y="338"/>
			<point x="281" y="321"/>
			<point x="250" y="321" type="curve" smooth="yes"/>
			<point x="195" y="321"/>
			<point x="166" y="360"/>
			<point x="166" y="423" type="curve" smooth="yes"/>
			<point x="166" y="491"/>
			<point x="211" y="567"/>
			<point x="278" y="567" type="curve" smooth="yes"/>
			<point x="334" y="567"/>
			<point x="371" y="516"/>
			<point x="371" y="435" type="curve" smooth="yes"/>
			<point x="371" y="210"/>
			<point x="278" y="75"/>
			<point x="169" y="75" type="curve" smooth="yes"/>
			<point x="130" y="75"/>
			<point x="103" y="96"/>
			<point x="82" y="129" type="curve"/>
			<point x="13" y="72" type="line"/>
			<point x="40" y="31"/>
			<point x="87" y="-12"/>
		</contour>
	</outline>
</glyph>
<glyph name="less" format="2">
	<unicode hex="003C"/>
	<advance width="496"/>
	<outline>
		<contour>
			<point x="473" y="120" type="line"/>
			<point x="473" y="213" type="line"/>
			<point x="288" y="282" type="line"/>
			<point x="161" y="329" type="line"/>
			<point x="161" y="333" type="line"/>
			<point x="288" y="381" type="line"/>
			<point x="473" y="450" type="line"/>
			<point x="473" y="541" type="line"/>
			<point x="46" y="370" type="line"/>
			<point x="46" y="291" type="line"/>
		</contour>
	</outline>
</glyph>
<glyph name="greater" format="2">
	<unicode hex="003E"/>
	<advance width="496"/>
	<outline>
		<contour>
			<point x="48" y="120" type="line"/>
			<point x="475" y="291" type="line"/>
			<point x="475" y="370" type="line"/>
			<point x="48" y="541" type="line"/>
			<point x="48" y="450" type="line"/>
			<point x="233" y="381" type="line"/>
			<point x="360" y="333" type="line"/>
			<point x="360" y="329" type="line"/>
			<point x="233" y="282" type="line"/>
			<point x="48" y="213" type="line"/>
		</contour>
	</outline>
</glyph>
<glyph name="question" format="2">
	<unicode hex="003F"/>
	<advance width="428"/>
	<outline>
		<contour>
			<point x="145" y="218" type="curve"/>
			<point x="240" y="210" type="line"/>
			<point x="256" y="353"/>
			<point x="439" y="378"/>
			<point x="439" y="537" type="curve" smooth="yes"/>
			<point x="439" y="628"/>
			<point x="373" y="682"/>
			<point x="272" y="682" type="curve" smooth="yes"/>
			<point x="212" y="682"/>
			<point x="156" y="655"/>
			<point x="112" y="612" type="curve"/>
			<point x="169" y="548" type="line"/>
			<point x="196" y="577"/>
			<point x="227" y="593"/>
			<point x="258" y="593" type="curve" smooth="yes"/>
			<point x="304" y="593"/>
			<point x="332" y="565"/>
			<point x="332" y="519" type="curve" smooth="yes"/>
			<point x="332" y="412"/>
			<point x="159" y="382"/>
		</contour>
		<contour>
			<point x="152" y="-12" type="curve" smooth="yes"/>
			<point x="201" y="-12"/>
			<point x="236" y="31"/>
			<point x="236" y="74" type="curve" smooth="yes"/>
			<point x="236" y="111"/>
			<point x="213" y="139"/>
			<point x="176" y="139" type="curve" smooth="yes"/>
			<point x="127" y="139"/>
			<point x="92" y="93"/>
			<point x="92" y="52" type="curve" smooth="yes"/>
			<point x="92" y="14"/>
			<point x="115" y="-12"/>
		</contour>
	</outline>
</glyph>
<glyph name="at" format="2">
	<unicode hex="0040"/>
	<advance width="843"/>
	<outline>
		<contour>
			<point x="367" y="-163" type="curve" smooth="yes"/>
			<point x="423" y="-163"/>
			<point x="478" y="-149"/>
			<point x="533" y="-120" type="curve"/>
			<point x="502" y="-58" type="line"/>
			<point x="466" y="-80"/>
			<point x="419" y="-94"/>
			<point x="377" y="-94" type="curve" smooth="yes"/>
			<point x="243" y="-94"/>
			<point x="121" y="-2"/>
			<point x="121" y="176" type="curve" smooth="yes"/>
			<point x="121" y="410"/>
			<point x="308" y="589"/>
			<point x="482" y="589" type="curve" smooth="yes"/>
			<point x="662" y="589"/>
			<point x="733" y="475"/>
			<point x="733" y="341" type="curve" smooth="yes"/>
			<point x="733" y="193"/>
			<point x="660" y="114"/>
			<point x="600" y="114" type="curve" smooth="yes"/>
			<point x="553" y="114"/>
			<point x="540" y="148"/>
			<point x="554" y="207" type="curve" smooth="yes"/>
			<point x="604" y="427" type="line"/>
			<point x="535" y="427" type="line"/>
			<point x="521" y="385" type="line"/>
			<point x="519" y="385" type="line"/>
			<point x="502" y="419"/>
			<point x="479" y="435"/>
			<point x="448" y="435" type="curve" smooth="yes"/>
			<point x="338" y="435"/>
			<point x="248" y="314"/>
			<point x="248" y="192" type="curve" smooth="yes"/>
			<point x="248" y="105"/>
			<point x="302" y="52"/>
			<point x="368" y="52" type="curve" smooth="yes"/>
			<point x="411" y="52"/>
			<point x="454" y="80"/>
			<point x="482" y="118" type="curve"/>
			<point x="485" y="118" type="line"/>
			<point x="496" y="70"/>
			<point x="534" y="43"/>
			<point x="580" y="43" type="curve" smooth="yes"/>
			<point x="700" y="43"/>
			<point x="806" y="149"/>
			<point x="806" y="354" type="curve" smooth="yes"/>
			<point x="806" y="525"/>
			<point x="692" y="656"/>
			<point x="493" y="656" type="curve" smooth="yes"/>
			<point x="258" y="656"/>
			<point x="44" y="442"/>
			<point x="44" y="163" type="curve" smooth="yes"/>
			<point x="44" y="-50"/>
			<point x="191" y="-163"/>
		</contour>
		<contour>
			<point x="390" y="123" type="curve" smooth="yes"/>
			<point x="355" y="123"/>
			<point x="332" y="149"/>
			<point x="332" y="200" type="curve" smooth="yes"/>
			<point x="332" y="270"/>
			<point x="382" y="363"/>
			<point x="450" y="363" type="curve" smooth="yes"/>
			<point x="470" y="363"/>
			<point x="486" y="353"/>
			<point x="500" y="326" type="curve"/>
			<point x="467" y="177" type="line"/>
			<point x="439" y="139"/>
			<point x="415" y="123"/>
		</contour>
	</outline>
</glyph>
<glyph name="A" format="2">
	<unicode hex="0041"/>
	<advance width="531"/>
	<outline>
		<contour>
			<point x="-57" y="0" type="line"/>
			<point x="64" y="0" type="line"/>
			<point x="243" y="364" type="line" smooth="yes"/>
			<point x="276" y="432"/>
			<point x="305" y="496"/>
			<point x="336" y="566" type="curve"/>
			<point x="340" y="566" type="line"/>
			<point x="343" y="495"/>
			<point x="348" y="430"/>
			<point x="352" y="364" type="curve" smooth="yes"/>
			<point x="377" y="0" type="line"/>
			<point x="492" y="0" type="line"/>
			<point x="422" y="654" type="line"/>
			<point x="291" y="654" type="line"/>
		</contour>
		<contour>
			<point x="108" y="182" type="line"/>
			<point x="402" y="182" type="line"/>
			<point x="422" y="266" type="line"/>
			<point x="128" y="266" type="line"/>
		</contour>
	</outline>
	<anchor name="aboveUC" x="355" y="676"/>
	<anchor name="belowLC" x="222" y="-22"/>
	<anchor name="ogonekUC" x="423" y="0"/>
</glyph>
<glyph name="B" format="2">
	<unicode hex="0042"/>
	<advance width="582"/>
	<outline>
		<contour>
			<point x="31" y="0" type="line"/>
			<point x="256" y="0" type="line" smooth="yes"/>
			<point x="410" y="0"/>
			<point x="534" y="62"/>
			<point x="534" y="212" type="curve" smooth="yes"/>
			<point x="534" y="281"/>
			<point x="488" y="323"/>
			<point x="418" y="339" type="curve"/>
			<point x="419" y="343" type="line"/>
			<point x="498" y="364"/>
			<point x="563" y="425"/>
			<point x="563" y="507" type="curve" smooth="yes"/>
			<point x="563" y="606"/>
			<point x="479" y="654"/>
			<point x="350" y="654" type="curve" smooth="yes"/>
			<point x="162" y="654" type="line"/>
		</contour>
		<contour>
			<point x="218" y="380" type="line"/>
			<point x="256" y="568" type="line"/>
			<point x="328" y="568" type="line" smooth="yes"/>
			<point x="412" y="568"/>
			<point x="449" y="539"/>
			<point x="449" y="489" type="curve" smooth="yes"/>
			<point x="449" y="424"/>
			<point x="402" y="380"/>
			<point x="296" y="380" type="curve" smooth="yes"/>
		</contour>
		<contour>
			<point x="158" y="86" type="line"/>
			<point x="203" y="303" type="line"/>
			<point x="302" y="303" type="line" smooth="yes"/>
			<point x="384" y="303"/>
			<point x="427" y="266"/>
			<point x="427" y="207" type="curve" smooth="yes"/>
			<point x="427" y="125"/>
			<point x="363" y="86"/>
			<point x="257" y="86" type="curve" smooth="yes"/>
		</contour>
	</outline>
	<anchor name="aboveUC" x="369" y="676"/>
	<anchor name="belowLC" x="262" y="-22"/>
</glyph>
<glyph name="C" format="2">
	<unicode hex="0043"/>
	<advance width="560"/>
	<outline>
		<contour>
			<point x="295" y="-12" type="curve" smooth="yes"/>
			<point x="383" y="-12"/>
			<point x="443" y="23"/>
			<point x="490" y="66" type="curve"/>
			<point x="443" y="136" type="line"/>
			<point x="406" y="105"/>
			<point x="365" y="84"/>
			<point x="315" y="84" type="curve" smooth="yes"/>
			<point x="214" y="84"/>
			<point x="170" y="157"/>
			<point x="170" y="266" type="curve" smooth="yes"/>
			<point x="170" y="416"/>
			<point x="263" y="570"/>
			<point x="390" y="570" type="curve" smooth="yes"/>
			<point x="438" y="570"/>
			<point x="475" y="549"/>
			<point x="501" y="508" type="curve"/>
			<point x="564" y="572" type="line"/>
			<point x="532" y="630"/>
			<point x="472" y="666"/>
			<point x="397" y="666" type="curve" smooth="yes"/>
			<point x="201" y="666"/>
			<point x="57" y="474"/>
			<point x="57" y="257" type="curve" smooth="yes"/>
			<point x="57" y="93"/>
			<point x="147" y="-12"/>
		</contour>
	</outline>
	<anchor name="aboveUC" x="399" y="676"/>
	<anchor name="baseLC" x="272" y="0"/>
	<anchor name="belowLC" x="266" y="-22"/>
</glyph>
<glyph name="D" format="2">
	<unicode hex="0044"/>
	<advance width="606"/>
	<outline>
		<contour>
			<point x="31" y="0" type="line"/>
			<point x="223" y="0" type="line" smooth="yes"/>
			<point x="437" y="0"/>
			<point x="580" y="149"/>
			<point x="580" y="398" type="curve" smooth="yes"/>
			<point x="580" y="565"/>
			<point x="478" y="654"/>
			<point x="296" y="654" type="curve" smooth="yes"/>
			<point x="162" y="654" type="line"/>
		</contour>
		<contour>
			<point x="160" y="89" type="line"/>
			<point x="254" y="564" type="line"/>
			<point x="293" y="564" type="line" smooth="yes"/>
			<point x="402" y="564"/>
			<point x="466" y="506"/>
			<point x="466" y="391" type="curve" smooth="yes"/>
			<point x="466" y="198"/>
			<point x="366" y="89"/>
			<point x="221" y="89" type="curve" smooth="yes"/>
		</contour>
	</outline>
	<anchor name="aboveUC" x="375" y="676"/>
	<anchor name="belowLC" x="259" y="-22"/>
</glyph>
<glyph name="E" format="1">
	<unicode hex="0045"/>
	<advance width="515"/>
	<outline>
		<contour>
			<point x="32" y="0" type="line"/>
			<point x="415" y="0" type="line"/>
			<point x="433" y="91" type="line"/>
			<point x="157" y="91" type="line"/>
			<point x="199" y="296" type="line"/>
			<point x="425" y="296" type="line"/>
			<point x="443" y="387" type="line"/>
			<point x="216" y="387" type="line"/>
			<point x="251" y="563" type="line"/>
			<point x="519" y="563" type="line"/>
			<point x="537" y="654" type="line"/>
			<point x="162" y="654" type="line"/>
		</contour>
		<contour>
			<point name="aboveUC" x="356" y="676" type="move"/>
		</contour>
		<contour>
			<point name="belowLC" x="238" y="-22" type="move"/>
		</contour>
		<contour>
			<point name="ogonekUC" x="341" y="0" type="move"/>
		</contour>
	</outline>
</glyph>
<glyph name="F" format="2">
	<unicode hex="0046"/>
	<advance width="489"/>
	<outline>
		<contour>
			<point x="32" y="0" type="line"/>
			<point x="140" y="0" type="line"/>
			<point x="196" y="279" type="line"/>
			<point x="422" y="279" type="line"/>
			<point x="440" y="370" type="line"/>
			<point x="213" y="370" type="line"/>
			<point x="251" y="563" type="line"/>
			<point x="519" y="563" type="line"/>
			<point x="537" y="654" type="line"/>
			<point x="162" y="654" type="line"/>
		</contour>
	</outline>
	<anchor name="aboveUC" x="356" y="676"/>
	<anchor name="belowLC" x="92" y="-22"/>
</glyph>
<glyph name="G" format="2">
	<unicode hex="0047"/>
	<advance width="600"/>
	<outline>
		<contour>
			<point x="307" y="-12" type="curve" smooth="yes"/>
			<point x="386" y="-12"/>
			<point x="454" y="16"/>
			<point x="502" y="55" type="curve"/>
			<point x="561" y="353" type="line"/>
			<point x="344" y="353" type="line"/>
			<point x="327" y="265" type="line"/>
			<point x="448" y="265" type="line"/>
			<point x="416" y="111" type="line"/>
			<point x="394" y="93"/>
			<point x="362" y="80"/>
			<point x="325" y="80" type="curve" smooth="yes"/>
			<point x="211" y="80"/>
			<point x="167" y="157"/>
			<point x="167" y="265" type="curve" smooth="yes"/>
			<point x="167" y="417"/>
			<point x="262" y="573"/>
			<point x="400" y="573" type="curve" smooth="yes"/>
			<point x="451" y="573"/>
			<point x="491" y="551"/>
			<point x="518" y="509" type="curve"/>
			<point x="580" y="572" type="line"/>
			<point x="546" y="629"/>
			<point x="485" y="666"/>
			<point x="406" y="666" type="curve" smooth="yes"/>
			<point x="200" y="666"/>
			<point x="57" y="474"/>
			<point x="57" y="257" type="curve" smooth="yes"/>
			<point x="57" y="91"/>
			<point x="148" y="-12"/>
		</contour>
	</outline>
	<anchor name="aboveUC" x="402" y="676"/>
	<anchor name="belowLC" x="288" y="-22"/>
</glyph>
<glyph name="H" format="2">
	<unicode hex="0048"/>
	<advance width="639"/>
	<outline>
		<contour>
			<point x="31" y="0" type="line"/>
			<point x="142" y="0" type="line"/>
			<point x="200" y="293" type="line"/>
			<point x="455" y="293" type="line"/>
			<point x="396" y="0" type="line"/>
			<point x="507" y="0" type="line"/>
			<point x="638" y="654" type="line"/>
			<point x="527" y="654" type="line"/>
			<point x="474" y="390" type="line"/>
			<point x="219" y="390" type="line"/>
			<point x="273" y="654" type="line"/>
			<point x="162" y="654" type="line"/>
		</contour>
	</outline>
	<anchor name="aboveUC" x="395" y="676"/>
	<anchor name="belowLC" x="279" y="-22"/>
</glyph>
<glyph name="I" format="2">
	<unicode hex="0049"/>
	<advance width="274"/>
	<outline>
		<contour>
			<point x="31" y="0" type="line"/>
			<point x="142" y="0" type="line"/>
			<point x="273" y="654" type="line"/>
			<point x="162" y="654" type="line"/>
		</contour>
	</outline>
	<anchor name="aboveUC" x="221" y="676"/>
	<anchor name="belowLC" x="87" y="-22"/>
	<anchor name="ogonekUC" x="82" y="0"/>
</glyph>
<glyph name="J" format="2">
	<unicode hex="004A"/>
	<advance width="475"/>
	<outline>
		<contour>
			<point x="168" y="-12" type="curve" smooth="yes"/>
			<point x="296" y="-12"/>
			<point x="365" y="79"/>
			<point x="387" y="195" type="curve" smooth="yes"/>
			<point x="479" y="654" type="line"/>
			<point x="368" y="654" type="line"/>
			<point x="280" y="213" type="line" smooth="yes"/>
			<point x="264" y="129"/>
			<point x="227" y="84"/>
			<point x="169" y="84" type="curve" smooth="yes"/>
			<point x="119" y="84"/>
			<point x="83" y="109"/>
			<point x="64" y="150" type="curve"/>
			<point x="-4" y="92" type="line"/>
			<point x="30" y="26"/>
			<point x="92" y="-12"/>
		</contour>
	</outline>
	<anchor name="aboveUC" x="429" y="676"/>
	<anchor name="belowLC" x="167" y="-27"/>
</glyph>
<glyph name="K" format="2">
	<unicode hex="004B"/>
	<advance width="578"/>
	<outline>
		<contour>
			<point x="31" y="0" type="line"/>
			<point x="142" y="0" type="line"/>
			<point x="183" y="204" type="line"/>
			<point x="299" y="324" type="line"/>
			<point x="413" y="0" type="line"/>
			<point x="529" y="0" type="line"/>
			<point x="382" y="393" type="line"/>
			<point x="622" y="654" type="line"/>
			<point x="500" y="654" type="line"/>
			<point x="218" y="361" type="line"/>
			<point x="214" y="361" type="line"/>
			<point x="273" y="654" type="line"/>
			<point x="162" y="654" type="line"/>
		</contour>
	</outline>
	<anchor name="aboveUC" x="385" y="676"/>
	<anchor name="belowLC" x="285" y="-22"/>
</glyph>
<glyph name="L" format="2">
	<unicode hex="004C"/>
	<advance width="483"/>
	<outline>
		<contour>
			<point x="31" y="0" type="line"/>
			<point x="402" y="0" type="line"/>
			<point x="421" y="93" type="line"/>
			<point x="160" y="93" type="line"/>
			<point x="273" y="654" type="line"/>
			<point x="162" y="654" type="line"/>
		</contour>
	</outline>
	<anchor name="aboveUC" x="237" y="676"/>
	<anchor name="belowLC" x="220" y="-22"/>
</glyph>
<glyph name="M" format="2">
	<unicode hex="004D"/>
	<advance width="724"/>
	<outline>
		<contour>
			<point x="32" y="0" type="line"/>
			<point x="136" y="0" type="line"/>
			<point x="198" y="314" type="line" smooth="yes"/>
			<point x="210" y="376"/>
			<point x="216" y="466"/>
			<point x="220" y="530" type="curve"/>
			<point x="224" y="530" type="line"/>
			<point x="242" y="368" type="line"/>
			<point x="290" y="64" type="line"/>
			<point x="366" y="64" type="line"/>
			<point x="528" y="368" type="line"/>
			<point x="606" y="530" type="line"/>
			<point x="610" y="530" type="line"/>
			<point x="590" y="466"/>
			<point x="566" y="378"/>
			<point x="553" y="314" type="curve" smooth="yes"/>
			<point x="488" y="0" type="line"/>
			<point x="592" y="0" type="line"/>
			<point x="722" y="654" type="line"/>
			<point x="590" y="654" type="line"/>
			<point x="414" y="326" type="line" smooth="yes"/>
			<point x="391" y="284"/>
			<point x="374" y="244"/>
			<point x="355" y="200" type="curve"/>
			<point x="351" y="200" type="line"/>
			<point x="346" y="244"/>
			<point x="342" y="284"/>
			<point x="336" y="326" type="curve" smooth="yes"/>
			<point x="290" y="654" type="line"/>
			<point x="162" y="654" type="line"/>
		</contour>
	</outline>
	<anchor name="aboveUC" x="440" y="676"/>
	<anchor name="belowLC" x="310" y="-27"/>
</glyph>
<glyph name="N" format="1">
	<unicode hex="004E"/>
	<advance width="631"/>
	<outline>
		<contour>
			<point x="32" y="0" type="line"/>
			<point x="135" y="0" type="line"/>
			<point x="194" y="300" type="line" smooth="yes"/>
			<point x="209" y="371"/>
			<point x="217" y="451"/>
			<point x="225" y="521" type="curve"/>
			<point x="229" y="521" type="line"/>
			<point x="267" y="378" type="line"/>
			<point x="394" y="0" type="line"/>
			<point x="499" y="0" type="line"/>
			<point x="630" y="654" type="line"/>
			<point x="526" y="654" type="line"/>
			<point x="467" y="357" type="line" smooth="yes"/>
			<point x="452" y="286"/>
			<point x="446" y="201"/>
			<point x="438" y="134" type="curve"/>
			<point x="434" y="134" type="line"/>
			<point x="396" y="275" type="line"/>
			<point x="268" y="654" type="line"/>
			<point x="162" y="654" type="line"/>
		</contour>
		<contour>
			<point name="aboveUC" x="406" y="676" type="move"/>
		</contour>
		<contour>
			<point name="belowLC" x="272" y="-27" type="move"/>
		</contour>
	</outline>
</glyph>
<glyph name="O" format="2">
	<unicode hex="004F"/>
	<advance width="648"/>
	<outline>
		<contour>
			<point x="295" y="-12" type="curve" smooth="yes"/>
			<point x="477" y="-12"/>
			<point x="621" y="174"/>
			<point x="621" y="391" type="curve" smooth="yes"/>
			<point x="621" y="560"/>
			<point x="532" y="666"/>
			<point x="384" y="666" type="curve" smooth="yes"/>
			<point x="203" y="666"/>
			<point x="58" y="480"/>
			<point x="58" y="263" type="curve" smooth="yes"/>
			<point x="58" y="93"/>
			<point x="147" y="-12"/>
		</contour>
		<contour>
			<point x="301" y="84" type="curve" smooth="yes"/>
			<point x="214" y="84"/>
			<point x="172" y="157"/>
			<point x="172" y="271" type="curve" smooth="yes"/>
			<point x="172" y="423"/>
			<point x="265" y="570"/>
			<point x="379" y="570" type="curve" smooth="yes"/>
			<point x="465" y="570"/>
			<point x="508" y="497"/>
			<point x="508" y="383" type="curve" smooth="yes"/>
			<point x="508" y="231"/>
			<point x="415" y="84"/>
		</contour>
	</outline>
	<anchor name="aboveUC" x="402" y="676"/>
	<anchor name="belowLC" x="279" y="-22"/>
	<anchor name="hornLC" x="520" y="646"/>
	<anchor name="ogonekUC" x="281" y="0"/>
	<anchor name="aboverightUC" x="616" y="676"/>
</glyph>
<glyph name="P" format="2">
	<unicode hex="0050"/>
	<advance width="569"/>
	<outline>
		<contour>
			<point x="31" y="0" type="line"/>
			<point x="142" y="0" type="line"/>
			<point x="190" y="243" type="line"/>
			<point x="280" y="243" type="line" smooth="yes"/>
			<point x="445" y="243"/>
			<point x="574" y="314"/>
			<point x="574" y="486" type="curve" smooth="yes"/>
			<point x="574" y="607"/>
			<point x="484" y="654"/>
			<point x="359" y="654" type="curve" smooth="yes"/>
			<point x="162" y="654" type="line"/>
		</contour>
		<contour>
			<point x="209" y="331" type="line"/>
			<point x="254" y="566" type="line"/>
			<point x="338" y="566" type="line" smooth="yes"/>
			<point x="420" y="566"/>
			<point x="465" y="537"/>
			<point x="465" y="471" type="curve" smooth="yes"/>
			<point x="465" y="379"/>
			<point x="403" y="331"/>
			<point x="289" y="331" type="curve" smooth="yes"/>
		</contour>
	</outline>
	<anchor name="aboveUC" x="375" y="676"/>
	<anchor name="belowLC" x="91" y="-27"/>
</glyph>
<glyph name="Q" format="2">
	<unicode hex="0051"/>
	<advance width="647"/>
	<outline>
		<contour>
			<point x="294" y="-12" type="curve" smooth="yes"/>
			<point x="477" y="-12"/>
			<point x="620" y="175"/>
			<point x="620" y="391" type="curve" smooth="yes"/>
			<point x="620" y="560"/>
			<point x="532" y="666"/>
			<point x="384" y="666" type="curve" smooth="yes"/>
			<point x="202" y="666"/>
			<point x="58" y="479"/>
			<point x="58" y="263" type="curve" smooth="yes"/>
			<point x="58" y="94"/>
			<point x="147" y="-12"/>
		</contour>
		<contour>
			<point x="300" y="78" type="curve" smooth="yes"/>
			<point x="212" y="78"/>
			<point x="169" y="150"/>
			<point x="169" y="271" type="curve" smooth="yes"/>
			<point x="169" y="423"/>
			<point x="262" y="573"/>
			<point x="378" y="573" type="curve" smooth="yes"/>
			<point x="466" y="573"/>
			<point x="510" y="499"/>
			<point x="510" y="383" type="curve" smooth="yes"/>
			<point x="510" y="226"/>
			<point x="416" y="78"/>
		</contour>
		<contour>
			<point x="466" y="-173" type="curve" smooth="yes"/>
			<point x="498" y="-173"/>
			<point x="528" y="-167"/>
			<point x="550" y="-158" type="curve"/>
			<point x="532" y="-76" type="line"/>
			<point x="514" y="-82"/>
			<point x="499" y="-85"/>
			<point x="478" y="-85" type="curve" smooth="yes"/>
			<point x="410" y="-85"/>
			<point x="338" y="-53"/>
			<point x="322" y="19" type="curve"/>
			<point x="213" y="22" type="line"/>
			<point x="249" y="-112"/>
			<point x="347" y="-173"/>
		</contour>
	</outline>
	<anchor name="aboveUC" x="402" y="676"/>
	<anchor name="belowLC" x="230" y="-166"/>
</glyph>
<glyph name="R" format="2">
	<unicode hex="0052"/>
	<advance width="576"/>
	<outline>
		<contour>
			<point x="32" y="0" type="line"/>
			<point x="140" y="0" type="line"/>
			<point x="191" y="258" type="line"/>
			<point x="290" y="258" type="line" smooth="yes"/>
			<point x="439" y="258"/>
			<point x="569" y="335"/>
			<point x="569" y="494" type="curve" smooth="yes"/>
			<point x="569" y="610"/>
			<point x="480" y="654"/>
			<point x="355" y="654" type="curve" smooth="yes"/>
			<point x="162" y="654" type="line"/>
		</contour>
		<contour>
			<point x="209" y="344" type="line"/>
			<point x="252" y="568" type="line"/>
			<point x="334" y="568" type="line" smooth="yes"/>
			<point x="418" y="568"/>
			<point x="462" y="542"/>
			<point x="462" y="479" type="curve" smooth="yes"/>
			<point x="462" y="397"/>
			<point x="403" y="344"/>
			<point x="292" y="344" type="curve" smooth="yes"/>
		</contour>
		<contour>
			<point x="383" y="0" type="line"/>
			<point x="498" y="0" type="line"/>
			<point x="359" y="349" type="line"/>
			<point x="279" y="282" type="line"/>
		</contour>
	</outline>
	<anchor name="aboveUC" x="370" y="676"/>
	<anchor name="belowLC" x="274" y="-27"/>
</glyph>
<glyph name="S" format="2">
	<unicode hex="0053"/>
	<advance width="519"/>
	<outline>
		<contour>
			<point x="235" y="-12" type="curve" smooth="yes"/>
			<point x="377" y="-12"/>
			<point x="473" y="78"/>
			<point x="473" y="195" type="curve" smooth="yes"/>
			<point x="473" y="269"/>
			<point x="441" y="310"/>
			<point x="377" y="349" type="curve" smooth="yes"/>
			<point x="309" y="390" type="line" smooth="yes"/>
			<point x="258" y="421"/>
			<point x="226" y="442"/>
			<point x="226" y="485" type="curve" smooth="yes"/>
			<point x="226" y="529"/>
			<point x="261" y="570"/>
			<point x="324" y="570" type="curve" smooth="yes"/>
			<point x="378" y="570"/>
			<point x="420" y="543"/>
			<point x="454" y="505" type="curve"/>
			<point x="519" y="569" type="line"/>
			<point x="475" y="627"/>
			<point x="405" y="666"/>
			<point x="328" y="666" type="curve" smooth="yes"/>
			<point x="208" y="666"/>
			<point x="113" y="578"/>
			<point x="113" y="472" type="curve" smooth="yes"/>
			<point x="113" y="396"/>
			<point x="155" y="349"/>
			<point x="214" y="313" type="curve" smooth="yes"/>
			<point x="280" y="274" type="line" smooth="yes"/>
			<point x="329" y="244"/>
			<point x="358" y="220"/>
			<point x="358" y="176" type="curve" smooth="yes"/>
			<point x="358" y="119"/>
			<point x="310" y="84"/>
			<point x="246" y="84" type="curve" smooth="yes"/>
			<point x="178" y="84"/>
			<point x="119" y="116"/>
			<point x="81" y="169" type="curve"/>
			<point x="13" y="107" type="line"/>
			<point x="69" y="26"/>
			<point x="151" y="-12"/>
		</contour>
	</outline>
	<anchor name="aboveUC" x="349" y="687"/>
	<anchor name="baseLC" x="229" y="0"/>
	<anchor name="belowLC" x="222" y="-27"/>
</glyph>
<glyph name="T" format="1">
	<unicode hex="0054"/>
	<advance width="521"/>
	<outline>
		<contour>
			<point x="157" y="0" type="line"/>
			<point x="265" y="0" type="line"/>
			<point x="377" y="562" type="line"/>
			<point x="558" y="562" type="line"/>
			<point x="576" y="654" type="line"/>
			<point x="106" y="654" type="line"/>
			<point x="88" y="562" type="line"/>
			<point x="269" y="562" type="line"/>
		</contour>
		<contour>
			<point name="aboveUC" x="342" y="676" type="move"/>
		</contour>
		<contour>
			<point name="baseLC" x="212" y="0" type="move"/>
		</contour>
		<contour>
			<point name="belowLC" x="208" y="-22" type="move"/>
		</contour>
	</outline>
</glyph>
<glyph name="U" format="2">
	<unicode hex="0055"/>
	<advance width="631"/>
	<outline>
		<contour>
			<point x="298" y="-12" type="curve" smooth="yes"/>
			<point x="428" y="-12"/>
			<point x="514" y="60"/>
			<point x="555" y="265" type="curve" smooth="yes"/>
			<point x="633" y="654" type="line"/>
			<point x="525" y="654" type="line"/>
			<point x="447" y="265" type="line" smooth="yes"/>
			<point x="419" y="124"/>
			<point x="371" y="84"/>
			<point x="302" y="84" type="curve" smooth="yes"/>
			<point x="221" y="84"/>
			<point x="188" y="129"/>
			<point x="188" y="212" type="curve" smooth="yes"/>
			<point x="188" y="236"/>
			<point x="191" y="260"/>
			<point x="197" y="289" type="curve" smooth="yes"/>
			<point x="270" y="654" type="line"/>
			<point x="159" y="654" type="line"/>
			<point x="89" y="305" type="line" smooth="yes"/>
			<point x="83" y="272"/>
			<point x="77" y="235"/>
			<point x="77" y="206" type="curve" smooth="yes"/>
			<point x="77" y="60"/>
			<point x="153" y="-12"/>
		</contour>
	</outline>
	<anchor name="aboveUC" x="405" y="676"/>
	<anchor name="belowLC" x="271" y="-22"/>
	<anchor name="hornLC" x="601" y="664"/>
	<anchor name="ogonekUC" x="271" y="0"/>
</glyph>
<glyph name="V" format="2">
	<unicode hex="0056"/>
	<advance width="526"/>
	<outline>
		<contour>
			<point x="138" y="0" type="line"/>
			<point x="268" y="0" type="line"/>
			<point x="607" y="654" type="line"/>
			<point x="490" y="654" type="line"/>
			<point x="326" y="312" type="line" smooth="yes"/>
			<point x="294" y="242"/>
			<point x="261" y="169"/>
			<point x="229" y="99" type="curve"/>
			<point x="225" y="99" type="line"/>
			<point x="223" y="170"/>
			<point x="218" y="242"/>
			<point x="214" y="312" type="curve" smooth="yes"/>
			<point x="192" y="654" type="line"/>
			<point x="80" y="654" type="line"/>
		</contour>
	</outline>
	<anchor name="aboveUC" x="342" y="676"/>
	<anchor name="belowLC" x="196" y="-22"/>
</glyph>
<glyph name="W" format="2">
	<unicode hex="0057"/>
	<advance width="775"/>
	<outline>
		<contour>
			<point x="88" y="0" type="line"/>
			<point x="222" y="0" type="line"/>
			<point x="376" y="356" type="line" smooth="yes"/>
			<point x="397" y="405"/>
			<point x="420" y="461"/>
			<point x="438" y="515" type="curve"/>
			<point x="442" y="515" type="line"/>
			<point x="439" y="460"/>
			<point x="437" y="405"/>
			<point x="436" y="356" type="curve" smooth="yes"/>
			<point x="438" y="0" type="line"/>
			<point x="572" y="0" type="line"/>
			<point x="832" y="654" type="line"/>
			<point x="728" y="654" type="line"/>
			<point x="602" y="318" type="line" smooth="yes"/>
			<point x="577" y="249"/>
			<point x="549" y="177"/>
			<point x="524" y="105" type="curve"/>
			<point x="520" y="105" type="line"/>
			<point x="522" y="177"/>
			<point x="523" y="249"/>
			<point x="523" y="318" type="curve" smooth="yes"/>
			<point x="517" y="654" type="line"/>
			<point x="424" y="654" type="line"/>
			<point x="275" y="318" type="line" smooth="yes"/>
			<point x="247" y="249"/>
			<point x="215" y="177"/>
			<point x="186" y="105" type="curve"/>
			<point x="182" y="105" type="line"/>
			<point x="188" y="177"/>
			<point x="192" y="248"/>
			<point x="197" y="318" type="curve" smooth="yes"/>
			<point x="212" y="654" type="line"/>
			<point x="102" y="654" type="line"/>
		</contour>
	</outline>
	<anchor name="aboveUC" x="474" y="676"/>
	<anchor name="belowLC" x="328" y="-27"/>
</glyph>
<glyph name="X" format="2">
	<unicode hex="0058"/>
	<advance width="518"/>
	<outline>
		<contour>
			<point x="-36" y="0" type="line"/>
			<point x="80" y="0" type="line"/>
			<point x="188" y="160" type="line" smooth="yes"/>
			<point x="210" y="194"/>
			<point x="232" y="228"/>
			<point x="257" y="266" type="curve"/>
			<point x="260" y="266" type="line"/>
			<point x="270" y="229"/>
			<point x="280" y="196"/>
			<point x="289" y="163" type="curve" smooth="yes"/>
			<point x="336" y="0" type="line"/>
			<point x="456" y="0" type="line"/>
			<point x="342" y="332" type="line"/>
			<point x="576" y="654" type="line"/>
			<point x="460" y="654" type="line"/>
			<point x="361" y="504" type="line" smooth="yes"/>
			<point x="342" y="474"/>
			<point x="320" y="442"/>
			<point x="298" y="404" type="curve"/>
			<point x="294" y="404" type="line"/>
			<point x="284" y="441"/>
			<point x="277" y="472"/>
			<point x="269" y="502" type="curve" smooth="yes"/>
			<point x="226" y="654" type="line"/>
			<point x="106" y="654" type="line"/>
			<point x="211" y="338" type="line"/>
		</contour>
	</outline>
	<anchor name="aboveUC" x="342" y="676"/>
	<anchor name="belowLC" x="216" y="-27"/>
</glyph>
<glyph name="Y" format="1">
	<unicode hex="0059"/>
	<advance width="486"/>
	<outline>
		<contour>
			<point x="138" y="0" type="line"/>
			<point x="246" y="0" type="line"/>
			<point x="295" y="246" type="line"/>
			<point x="570" y="654" type="line"/>
			<point x="454" y="654" type="line"/>
			<point x="347" y="483" type="line" smooth="yes"/>
			<point x="317" y="434"/>
			<point x="290" y="388"/>
			<point x="262" y="338" type="curve"/>
			<point x="258" y="338" type="line"/>
			<point x="248" y="389"/>
			<point x="240" y="432"/>
			<point x="230" y="482" type="curve" smooth="yes"/>
			<point x="193" y="654" type="line"/>
			<point x="82" y="654" type="line"/>
			<point x="187" y="246" type="line"/>
		</contour>
		<contour>
			<point name="aboveUC" x="326" y="676" type="move"/>
		</contour>
		<contour>
			<point name="belowLC" x="192" y="-27" type="move"/>
		</contour>
	</outline>
</glyph>
<glyph name="Z" format="2">
	<unicode hex="005A"/>
	<advance width="519"/>
	<outline>
		<contour>
			<point x="-3" y="0" type="line"/>
			<point x="435" y="0" type="line"/>
			<point x="454" y="91" type="line"/>
			<point x="148" y="91" type="line"/>
			<point x="535" y="589" type="line"/>
			<point x="548" y="654" type="line"/>
			<point x="141" y="654" type="line"/>
			<point x="123" y="563" type="line"/>
			<point x="401" y="563" type="line"/>
			<point x="11" y="65" type="line"/>
		</contour>
	</outline>
	<anchor name="aboveUC" x="346" y="676"/>
	<anchor name="belowLC" x="226" y="-22"/>
</glyph>
<glyph name="bracketleft" format="2">
	<unicode hex="005B"/>
	<advance width="313"/>
	<outline>
		<contour>
			<point x="2" y="-152" type="line"/>
			<point x="188" y="-152" type="line"/>
			<point x="202" y="-91" type="line"/>
			<point x="97" y="-91" type="line"/>
			<point x="244" y="647" type="line"/>
			<point x="349" y="647" type="line"/>
			<point x="360" y="708" type="line"/>
			<point x="174" y="708" type="line"/>
		</contour>
	</outline>
</glyph>
<glyph name="backslash" format="2">
	<unicode hex="005C"/>
	<advance width="334"/>
	<outline>
		<contour>
			<point x="180" y="-160" type="line"/>
			<point x="253" y="-160" type="line"/>
			<point x="159" y="710" type="line"/>
			<point x="86" y="710" type="line"/>
		</contour>
	</outline>
</glyph>
<glyph name="bracketright" format="2">
	<unicode hex="005D"/>
	<advance width="313"/>
	<outline>
		<contour>
			<point x="-38" y="-152" type="line"/>
			<point x="149" y="-152" type="line"/>
			<point x="321" y="708" type="line"/>
			<point x="134" y="708" type="line"/>
			<point x="123" y="647" type="line"/>
			<point x="227" y="647" type="line"/>
			<point x="78" y="-91" type="line"/>
			<point x="-25" y="-91" type="line"/>
		</contour>
	</outline>
</glyph>
<glyph name="asciicircum" format="2">
	<unicode hex="005E"/>
	<advance width="494"/>
	<outline>
		<contour>
			<point x="77" y="279" type="line"/>
			<point x="168" y="279" type="line"/>
			<point x="222" y="432" type="line"/>
			<point x="268" y="567" type="line"/>
			<point x="271" y="567" type="line"/>
			<point x="315" y="432" type="line"/>
			<point x="369" y="279" type="line"/>
			<point x="460" y="279" type="line"/>
			<point x="312" y="670" type="line"/>
			<point x="225" y="670" type="line"/>
		</contour>
	</outline>
</glyph>
<glyph name="a" format="2">
	<unicode hex="0061"/>
	<advance width="545"/>
	<outline>
		<contour>
			<point x="175" y="-12" type="curve" smooth="yes"/>
			<point x="230" y="-12"/>
			<point x="290" y="20"/>
			<point x="336" y="68" type="curve"/>
			<point x="339" y="68" type="line"/>
			<point x="334" y="0" type="line"/>
			<point x="424" y="0" type="line"/>
			<point x="523" y="492" type="line"/>
			<point x="434" y="492" type="line"/>
			<point x="414" y="435" type="line"/>
			<point x="411" y="435" type="line"/>
			<point x="390" y="477"/>
			<point x="347" y="504"/>
			<point x="299" y="504" type="curve" smooth="yes"/>
			<point x="163" y="504"/>
			<point x="35" y="355"/>
			<point x="35" y="167" type="curve" smooth="yes"/>
			<point x="35" y="52"/>
			<point x="88" y="-12"/>
		</contour>
		<contour>
			<point x="220" y="79" type="curve" smooth="yes"/>
			<point x="176" y="79"/>
			<point x="149" y="111"/>
			<point x="149" y="182" type="curve" smooth="yes"/>
			<point x="149" y="308"/>
			<point x="224" y="413"/>
			<point x="305" y="413" type="curve" smooth="yes"/>
			<point x="335" y="413"/>
			<point x="365" y="396"/>
			<point x="387" y="355" type="curve"/>
			<point x="347" y="161" type="line"/>
			<point x="308" y="101"/>
			<point x="261" y="79"/>
		</contour>
	</outline>
	<anchor name="aboveLC" x="316" y="514"/>
	<anchor name="belowLC" x="229" y="-22"/>
	<anchor name="ogonekLC" x="350" y="0"/>
</glyph>
<glyph name="b" format="2">
	<unicode hex="0062"/>
	<advance width="545"/>
	<outline>
		<contour>
			<point x="245" y="-12" type="curve" smooth="yes"/>
			<point x="380" y="-12"/>
			<point x="508" y="136"/>
			<point x="508" y="324" type="curve" smooth="yes"/>
			<point x="508" y="440"/>
			<point x="455" y="503"/>
			<point x="368" y="503" type="curve" smooth="yes"/>
			<point x="314" y="503"/>
			<point x="260" y="475"/>
			<point x="214" y="438" type="curve"/>
			<point x="212" y="438" type="line"/>
			<point x="236" y="532" type="line"/>
			<point x="271" y="706" type="line"/>
			<point x="164" y="706" type="line"/>
			<point x="22" y="0" type="line"/>
			<point x="111" y="0" type="line"/>
			<point x="132" y="57" type="line"/>
			<point x="134" y="57" type="line"/>
			<point x="156" y="15"/>
			<point x="196" y="-12"/>
		</contour>
		<contour>
			<point x="238" y="76" type="curve" smooth="yes"/>
			<point x="207" y="76"/>
			<point x="178" y="94"/>
			<point x="157" y="136" type="curve"/>
			<point x="199" y="344" type="line"/>
			<point x="236" y="392"/>
			<point x="286" y="415"/>
			<point x="324" y="415" type="curve" smooth="yes"/>
			<point x="369" y="415"/>
			<point x="398" y="381"/>
			<point x="398" y="310" type="curve" smooth="yes"/>
			<point x="398" y="183"/>
			<point x="321" y="76"/>
		</contour>
	</outline>
	<anchor name="aboveUC" x="392" y="726"/>
	<anchor name="belowLC" x="226" y="-22"/>
</glyph>
<glyph name="c" format="2">
	<unicode hex="0063"/>
	<advance width="439"/>
	<outline>
		<contour>
			<point x="220" y="-12" type="curve" smooth="yes"/>
			<point x="293" y="-12"/>
			<point x="346" y="18"/>
			<point x="382" y="46" type="curve"/>
			<point x="335" y="114" type="line"/>
			<point x="312" y="95"/>
			<point x="279" y="77"/>
			<point x="243" y="77" type="curve" smooth="yes"/>
			<point x="178" y="77"/>
			<point x="145" y="119"/>
			<point x="145" y="192" type="curve" smooth="yes"/>
			<point x="145" y="313"/>
			<point x="221" y="414"/>
			<point x="308" y="414" type="curve" smooth="yes"/>
			<point x="342" y="414"/>
			<point x="363" y="403"/>
			<point x="384" y="379" type="curve"/>
			<point x="445" y="443" type="line"/>
			<point x="421" y="475"/>
			<point x="376" y="504"/>
			<point x="315" y="504" type="curve" smooth="yes"/>
			<point x="162" y="504"/>
			<point x="33" y="364"/>
			<point x="33" y="188" type="curve" smooth="yes"/>
			<point x="33" y="61"/>
			<point x="112" y="-12"/>
		</contour>
	</outline>
	<anchor name="aboveLC" x="300" y="514"/>
	<anchor name="baseLC" x="206" y="0"/>
	<anchor name="belowLC" x="200" y="-22"/>
</glyph>
<glyph name="d" format="2">
	<unicode hex="0064"/>
	<advance width="541"/>
	<outline>
		<contour>
			<point x="175" y="-12" type="curve" smooth="yes"/>
			<point x="230" y="-12"/>
			<point x="290" y="20"/>
			<point x="336" y="68" type="curve"/>
			<point x="339" y="68" type="line"/>
			<point x="334" y="0" type="line"/>
			<point x="424" y="0" type="line"/>
			<point x="567" y="706" type="line"/>
			<point x="457" y="706" type="line"/>
			<point x="422" y="533" type="line"/>
			<point x="409" y="439" type="line"/>
			<point x="406" y="439" type="line"/>
			<point x="385" y="478"/>
			<point x="347" y="504"/>
			<point x="299" y="504" type="curve" smooth="yes"/>
			<point x="163" y="504"/>
			<point x="35" y="355"/>
			<point x="35" y="167" type="curve" smooth="yes"/>
			<point x="35" y="52"/>
			<point x="88" y="-12"/>
		</contour>
		<contour>
			<point x="220" y="79" type="curve" smooth="yes"/>
			<point x="176" y="79"/>
			<point x="149" y="111"/>
			<point x="149" y="182" type="curve" smooth="yes"/>
			<point x="149" y="308"/>
			<point x="224" y="413"/>
			<point x="305" y="413" type="curve" smooth="yes"/>
			<point x="335" y="413"/>
			<point x="365" y="396"/>
			<point x="387" y="355" type="curve"/>
			<point x="347" y="161" type="line"/>
			<point x="307" y="101"/>
			<point x="261" y="79"/>
		</contour>
	</outline>
	<anchor name="aboveUC" x="344" y="724"/>
	<anchor name="belowLC" x="222" y="-22"/>
</glyph>
<glyph name="e" format="1">
	<unicode hex="0065"/>
	<advance width="488"/>
	<outline>
		<contour>
			<point x="230" y="-12" type="curve" smooth="yes"/>
			<point x="300" y="-12"/>
			<point x="358" y="12"/>
			<point x="398" y="40" type="curve"/>
			<point x="358" y="109" type="line"/>
			<point x="331" y="89"/>
			<point x="293" y="70"/>
			<point x="258" y="70" type="curve" smooth="yes"/>
			<point x="184" y="70"/>
			<point x="125" y="114"/>
			<point x="137" y="220" type="curve"/>
			<point x="437" y="220" type="line"/>
			<point x="444" y="237"/>
			<point x="457" y="280"/>
			<point x="457" y="322" type="curve" smooth="yes"/>
			<point x="457" y="424"/>
			<point x="415" y="503"/>
			<point x="301" y="503" type="curve" smooth="yes"/>
			<point x="172" y="503"/>
			<point x="33" y="379"/>
			<point x="33" y="196" type="curve" smooth="yes"/>
			<point x="33" y="64"/>
			<point x="113" y="-12"/>
		</contour>
		<contour>
			<point x="146" y="288" type="line"/>
			<point x="170" y="371"/>
			<point x="229" y="420"/>
			<point x="288" y="420" type="curve" smooth="yes"/>
			<point x="348" y="420"/>
			<point x="368" y="377"/>
			<point x="368" y="329" type="curve" smooth="yes"/>
			<point x="368" y="314"/>
			<point x="366" y="301"/>
			<point x="363" y="288" type="curve"/>
		</contour>
		<contour>
			<point name="ogonekLC" x="286" y="0" type="move"/>
		</contour>
		<contour>
			<point name="aboveLC" x="312" y="514" type="move"/>
		</contour>
		<contour>
			<point name="baseLC" x="228" y="0" type="move"/>
		</contour>
		<contour>
			<point name="belowLC" x="216" y="-22" type="move"/>
		</contour>
	</outline>
</glyph>
<glyph name="f" format="2">
	<unicode hex="0066"/>
	<advance width="307"/>
	<outline>
		<contour>
			<point x="39" y="0" type="line"/>
			<point x="149" y="0" type="line"/>
			<point x="229" y="405" type="line"/>
			<point x="322" y="405" type="line"/>
			<point x="340" y="492" type="line"/>
			<point x="248" y="492" type="line"/>
			<point x="259" y="550" type="line" smooth="yes"/>
			<point x="270" y="605"/>
			<point x="295" y="630"/>
			<point x="333" y="630" type="curve" smooth="yes"/>
			<point x="354" y="630"/>
			<point x="374" y="624"/>
			<point x="386" y="616" type="curve"/>
			<point x="422" y="692" type="line"/>
			<point x="394" y="708"/>
			<point x="361" y="718"/>
			<point x="324" y="718" type="curve" smooth="yes"/>
			<point x="225" y="718"/>
			<point x="169" y="646"/>
			<point x="149" y="546" type="curve" smooth="yes"/>
			<point x="139" y="492" type="line"/>
			<point x="74" y="486" type="line"/>
			<point x="57" y="405" type="line"/>
			<point x="121" y="405" type="line"/>
		</contour>
	</outline>
	<anchor name="aboveUC" x="311" y="724"/>
	<anchor name="belowLC" x="97" y="-22"/>
</glyph>
<glyph name="g" format="2">
	<unicode hex="0067"/>
	<advance width="539"/>
	<outline>
		<contour>
			<point x="175" y="-210" type="curve" smooth="yes"/>
			<point x="304" y="-210"/>
			<point x="389" y="-142"/>
			<point x="417" y="-6" type="curve" smooth="yes"/>
			<point x="517" y="492" type="line"/>
			<point x="427" y="492" type="line"/>
			<point x="406" y="435" type="line"/>
			<point x="404" y="435" type="line"/>
			<point x="383" y="477"/>
			<point x="340" y="504"/>
			<point x="293" y="504" type="curve" smooth="yes"/>
			<point x="159" y="504"/>
			<point x="35" y="361"/>
			<point x="35" y="183" type="curve" smooth="yes"/>
			<point x="35" y="68"/>
			<point x="95" y="11"/>
			<point x="178" y="11" type="curve" smooth="yes"/>
			<point x="236" y="11"/>
			<point x="290" y="39"/>
			<point x="337" y="87" type="curve"/>
			<point x="312" y="-8" type="line" smooth="yes"/>
			<point x="294" y="-79"/>
			<point x="249" y="-122"/>
			<point x="178" y="-122" type="curve" smooth="yes"/>
			<point x="129" y="-122"/>
			<point x="83" y="-102"/>
			<point x="46" y="-73" type="curve"/>
			<point x="-1" y="-142" type="line"/>
			<point x="50" y="-191"/>
			<point x="115" y="-210"/>
		</contour>
		<contour>
			<point x="218" y="102" type="curve" smooth="yes"/>
			<point x="176" y="102"/>
			<point x="149" y="133"/>
			<point x="149" y="198" type="curve" smooth="yes"/>
			<point x="149" y="314"/>
			<point x="220" y="413"/>
			<point x="299" y="413" type="curve" smooth="yes"/>
			<point x="329" y="413"/>
			<point x="357" y="396"/>
			<point x="379" y="355" type="curve"/>
			<point x="343" y="175" type="line"/>
			<point x="305" y="123"/>
			<point x="257" y="102"/>
		</contour>
	</outline>
	<anchor name="aboveLC" x="310" y="514"/>
	<anchor name="belowLC" x="189" y="-207"/>
</glyph>
<glyph name="h" format="2">
	<unicode hex="0068"/>
	<advance width="536"/>
	<outline>
		<contour>
			<point x="22" y="0" type="line"/>
			<point x="132" y="0" type="line"/>
			<point x="197" y="334" type="line"/>
			<point x="249" y="386"/>
			<point x="286" y="409"/>
			<point x="320" y="409" type="curve" smooth="yes"/>
			<point x="361" y="409"/>
			<point x="380" y="389"/>
			<point x="380" y="348" type="curve" smooth="yes"/>
			<point x="380" y="333"/>
			<point x="377" y="319"/>
			<point x="372" y="296" type="curve" smooth="yes"/>
			<point x="313" y="0" type="line"/>
			<point x="423" y="0" type="line"/>
			<point x="485" y="310" type="line" smooth="yes"/>
			<point x="491" y="336"/>
			<point x="493" y="356"/>
			<point x="493" y="379" type="curve" smooth="yes"/>
			<point x="493" y="458"/>
			<point x="458" y="504"/>
			<point x="376" y="504" type="curve" smooth="yes"/>
			<point x="317" y="504"/>
			<point x="264" y="471"/>
			<point x="215" y="428" type="curve"/>
			<point x="211" y="428" type="line"/>
			<point x="231" y="500" type="line"/>
			<point x="273" y="706" type="line"/>
			<point x="163" y="706" type="line"/>
		</contour>
	</outline>
	<anchor name="aboveUC" x="389" y="724"/>
	<anchor name="belowLC" x="226" y="-22"/>
</glyph>
<glyph name="j" format="1">
	<unicode hex="006A"/>
	<advance width="252"/>
	<outline>
		<component base="dotlessj"/>
		<component base="dotaccentcmb" xOffset="73"/>
		<contour>
			<point name="aboveLC" x="223" y="710" type="move"/>
		</contour>
		<contour>
			<point name="belowLC" x="-22" y="-235" type="move"/>
		</contour>
	</outline>
</glyph>
<glyph name="k" format="2">
	<unicode hex="006B"/>
	<advance width="503"/>
	<outline>
		<contour>
			<point x="22" y="0" type="line"/>
			<point x="132" y="0" type="line"/>
			<point x="156" y="121" type="line"/>
			<point x="251" y="216" type="line"/>
			<point x="334" y="0" type="line"/>
			<point x="445" y="0" type="line"/>
			<point x="328" y="281" type="line"/>
			<point x="526" y="492" type="line"/>
			<point x="403" y="492" type="line"/>
			<point x="188" y="265" type="line"/>
			<point x="185" y="265" type="line"/>
			<point x="273" y="706" type="line"/>
			<point x="163" y="706" type="line"/>
		</contour>
	</outline>
	<anchor name="aboveUC" x="369" y="724"/>
	<anchor name="belowLC" x="228" y="-22"/>
</glyph>
<glyph name="l" format="1">
	<unicode hex="006C"/>
	<advance width="262"/>
	<outline>
		<contour>
			<point x="123" y="-12" type="curve" smooth="yes"/>
			<point x="150" y="-12"/>
			<point x="169" y="-8"/>
			<point x="184" y="-2" type="curve"/>
			<point x="186" y="78" type="line"/>
			<point x="177" y="75"/>
			<point x="174" y="75"/>
			<point x="168" y="75" type="curve" smooth="yes"/>
			<point x="158" y="75"/>
			<point x="151" y="81"/>
			<point x="151" y="96" type="curve" smooth="yes"/>
			<point x="151" y="100"/>
			<point x="151" y="105"/>
			<point x="153" y="115" type="curve" smooth="yes"/>
			<point x="271" y="706" type="line"/>
			<point x="164" y="706" type="line"/>
			<point x="47" y="120" type="line" smooth="yes"/>
			<point x="42" y="99"/>
			<point x="40" y="83"/>
			<point x="40" y="68" type="curve" smooth="yes"/>
			<point x="40" y="18"/>
			<point x="66" y="-12"/>
		</contour>
		<contour>
			<point name="aboveUC" x="216" y="724" type="move"/>
		</contour>
		<contour>
			<point name="belowLC" x="96" y="-22" type="move"/>
		</contour>
	</outline>
</glyph>
<glyph name="m" format="2">
	<unicode hex="006D"/>
	<advance width="815"/>
	<outline>
		<contour>
			<point x="22" y="0" type="line"/>
			<point x="132" y="0" type="line"/>
			<point x="197" y="334" type="line"/>
			<point x="246" y="386"/>
			<point x="287" y="409"/>
			<point x="313" y="409" type="curve" smooth="yes"/>
			<point x="352" y="409"/>
			<point x="371" y="389"/>
			<point x="371" y="348" type="curve" smooth="yes"/>
			<point x="371" y="333"/>
			<point x="368" y="319"/>
			<point x="363" y="296" type="curve" smooth="yes"/>
			<point x="304" y="0" type="line"/>
			<point x="414" y="0" type="line"/>
			<point x="481" y="334" type="line"/>
			<point x="530" y="386"/>
			<point x="571" y="409"/>
			<point x="596" y="409" type="curve" smooth="yes"/>
			<point x="635" y="409"/>
			<point x="655" y="389"/>
			<point x="655" y="348" type="curve" smooth="yes"/>
			<point x="655" y="333"/>
			<point x="652" y="319"/>
			<point x="647" y="296" type="curve" smooth="yes"/>
			<point x="587" y="0" type="line"/>
			<point x="697" y="0" type="line"/>
			<point x="759" y="310" type="line" smooth="yes"/>
			<point x="765" y="336"/>
			<point x="767" y="356"/>
			<point x="767" y="379" type="curve" smooth="yes"/>
			<point x="767" y="458"/>
			<point x="733" y="504"/>
			<point x="652" y="504" type="curve" smooth="yes"/>
			<point x="598" y="504"/>
			<point x="540" y="468"/>
			<point x="482" y="413" type="curve"/>
			<point x="471" y="466"/>
			<point x="443" y="504"/>
			<point x="368" y="504" type="curve" smooth="yes"/>
			<point x="315" y="504"/>
			<point x="258" y="467"/>
			<point x="209" y="422" type="curve"/>
			<point x="205" y="422" type="line"/>
			<point x="210" y="492" type="line"/>
			<point x="120" y="492" type="line"/>
		</contour>
	</outline>
	<anchor name="aboveLC" x="479" y="514"/>
	<anchor name="belowLC" x="362" y="-22"/>
</glyph>
<glyph name="n" format="2">
	<unicode hex="006E"/>
	<advance width="540"/>
	<outline>
		<contour>
			<point x="22" y="0" type="line"/>
			<point x="132" y="0" type="line"/>
			<point x="197" y="334" type="line"/>
			<point x="249" y="386"/>
			<point x="286" y="409"/>
			<point x="320" y="409" type="curve" smooth="yes"/>
			<point x="361" y="409"/>
			<point x="380" y="389"/>
			<point x="380" y="348" type="curve" smooth="yes"/>
			<point x="380" y="333"/>
			<point x="377" y="319"/>
			<point x="372" y="296" type="curve" smooth="yes"/>
			<point x="313" y="0" type="line"/>
			<point x="423" y="0" type="line"/>
			<point x="485" y="310" type="line" smooth="yes"/>
			<point x="490" y="336"/>
			<point x="493" y="356"/>
			<point x="493" y="379" type="curve" smooth="yes"/>
			<point x="493" y="458"/>
			<point x="458" y="504"/>
			<point x="376" y="504" type="curve" smooth="yes"/>
			<point x="315" y="504"/>
			<point x="259" y="467"/>
			<point x="209" y="422" type="curve"/>
			<point x="205" y="422" type="line"/>
			<point x="210" y="492" type="line"/>
			<point x="120" y="492" type="line"/>
		</contour>
	</outline>
	<anchor name="aboveLC" x="345" y="514"/>
	<anchor name="belowLC" x="226" y="-22"/>
</glyph>
<glyph name="o" format="2">
	<unicode hex="006F"/>
	<advance width="524"/>
	<outline>
		<contour>
			<point x="218" y="-12" type="curve" smooth="yes"/>
			<point x="353" y="-12"/>
			<point x="489" y="115"/>
			<point x="489" y="303" type="curve" smooth="yes"/>
			<point x="489" y="426"/>
			<point x="416" y="504"/>
			<point x="305" y="504" type="curve" smooth="yes"/>
			<point x="170" y="504"/>
			<point x="34" y="376"/>
			<point x="34" y="188" type="curve" smooth="yes"/>
			<point x="34" y="66"/>
			<point x="107" y="-12"/>
		</contour>
		<contour>
			<point x="230" y="77" type="curve" smooth="yes"/>
			<point x="174" y="77"/>
			<point x="145" y="119"/>
			<point x="145" y="192" type="curve" smooth="yes"/>
			<point x="145" y="317"/>
			<point x="216" y="414"/>
			<point x="293" y="414" type="curve" smooth="yes"/>
			<point x="348" y="414"/>
			<point x="378" y="372"/>
			<point x="378" y="300" type="curve" smooth="yes"/>
			<point x="378" y="175"/>
			<point x="307" y="77"/>
		</contour>
	</outline>
	<anchor name="aboveLC" x="320" y="514"/>
	<anchor name="belowLC" x="196" y="-22"/>
	<anchor name="hornLC" x="409" y="492"/>
	<anchor name="ogonekLC" x="202" y="0"/>
	<anchor name="aboverightLC" x="556" y="514"/>
</glyph>
<glyph name="p" format="2">
	<unicode hex="0070"/>
	<advance width="545"/>
	<outline>
		<contour>
			<point x="-17" y="-193" type="line"/>
			<point x="93" y="-193" type="line"/>
			<point x="120" y="-48" type="line"/>
			<point x="136" y="52" type="line"/>
			<point x="138" y="52" type="line"/>
			<point x="161" y="13"/>
			<point x="200" y="-12"/>
			<point x="246" y="-12" type="curve" smooth="yes"/>
			<point x="382" y="-12"/>
			<point x="510" y="136"/>
			<point x="510" y="324" type="curve" smooth="yes"/>
			<point x="510" y="440"/>
			<point x="456" y="504"/>
			<point x="370" y="504" type="curve" smooth="yes"/>
			<point x="314" y="504"/>
			<point x="258" y="472"/>
			<point x="211" y="432" type="curve"/>
			<point x="208" y="432" type="line"/>
			<point x="210" y="492" type="line"/>
			<point x="120" y="492" type="line"/>
		</contour>
		<contour>
			<point x="239" y="79" type="curve" smooth="yes"/>
			<point x="209" y="79"/>
			<point x="180" y="95"/>
			<point x="159" y="136" type="curve"/>
			<point x="201" y="343" type="line"/>
			<point x="238" y="390"/>
			<point x="287" y="413"/>
			<point x="324" y="413" type="curve" smooth="yes"/>
			<point x="368" y="413"/>
			<point x="396" y="380"/>
			<point x="396" y="310" type="curve" smooth="yes"/>
			<point x="396" y="184"/>
			<point x="321" y="79"/>
		</contour>
	</outline>
	<anchor name="aboveLC" x="336" y="514"/>
	<anchor name="belowLC" x="45" y="-206"/>
</glyph>
<glyph name="q" format="2">
	<unicode hex="0071"/>
	<advance width="544"/>
	<outline>
		<contour>
			<point x="275" y="-193" type="line"/>
			<point x="385" y="-193" type="line"/>
			<point x="523" y="492" type="line"/>
			<point x="434" y="492" type="line"/>
			<point x="414" y="435" type="line"/>
			<point x="411" y="435" type="line"/>
			<point x="390" y="477"/>
			<point x="347" y="504"/>
			<point x="299" y="504" type="curve" smooth="yes"/>
			<point x="163" y="504"/>
			<point x="35" y="355"/>
			<point x="35" y="167" type="curve" smooth="yes"/>
			<point x="35" y="52"/>
			<point x="88" y="-12"/>
			<point x="175" y="-12" type="curve" smooth="yes"/>
			<point x="230" y="-12"/>
			<point x="290" y="20"/>
			<point x="337" y="69" type="curve"/>
			<point x="339" y="69" type="line"/>
			<point x="305" y="-48" type="line"/>
		</contour>
		<contour>
			<point x="220" y="79" type="curve" smooth="yes"/>
			<point x="176" y="79"/>
			<point x="149" y="111"/>
			<point x="149" y="182" type="curve" smooth="yes"/>
			<point x="149" y="308"/>
			<point x="224" y="413"/>
			<point x="305" y="413" type="curve" smooth="yes"/>
			<point x="335" y="413"/>
			<point x="365" y="396"/>
			<point x="387" y="355" type="curve"/>
			<point x="347" y="161" type="line"/>
			<point x="307" y="101"/>
			<point x="261" y="79"/>
		</contour>
	</outline>
	<anchor name="aboveLC" x="325" y="514"/>
	<anchor name="belowLC" x="324" y="-206"/>
</glyph>
<glyph name="r" format="2">
	<unicode hex="0072"/>
	<advance width="365"/>
	<outline>
		<contour>
			<point x="22" y="0" type="line"/>
			<point x="132" y="0" type="line"/>
			<point x="189" y="296" type="line"/>
			<point x="230" y="370"/>
			<point x="276" y="406"/>
			<point x="322" y="406" type="curve" smooth="yes"/>
			<point x="339" y="406"/>
			<point x="356" y="405"/>
			<point x="368" y="399" type="curve"/>
			<point x="405" y="494" type="line"/>
			<point x="393" y="500"/>
			<point x="377" y="504"/>
			<point x="355" y="504" type="curve" smooth="yes"/>
			<point x="297" y="504"/>
			<point x="244" y="458"/>
			<point x="205" y="397" type="curve"/>
			<point x="201" y="397" type="line"/>
			<point x="210" y="492" type="line"/>
			<point x="120" y="492" type="line"/>
		</contour>
	</outline>
	<anchor name="aboveLC" x="270" y="514"/>
	<anchor name="belowLC" x="74" y="-22"/>
</glyph>
<glyph name="s" format="2">
	<unicode hex="0073"/>
	<advance width="414"/>
	<outline>
		<contour>
			<point x="167" y="-12" type="curve" smooth="yes"/>
			<point x="279" y="-12"/>
			<point x="362" y="51"/>
			<point x="362" y="145" type="curve" smooth="yes"/>
			<point x="362" y="210"/>
			<point x="322" y="247"/>
			<point x="254" y="284" type="curve" smooth="yes"/>
			<point x="209" y="309"/>
			<point x="170" y="328"/>
			<point x="170" y="362" type="curve" smooth="yes"/>
			<point x="170" y="393"/>
			<point x="200" y="421"/>
			<point x="243" y="421" type="curve" smooth="yes"/>
			<point x="281" y="421"/>
			<point x="316" y="401"/>
			<point x="343" y="374" type="curve"/>
			<point x="399" y="431" type="line"/>
			<point x="360" y="475"/>
			<point x="308" y="504"/>
			<point x="244" y="504" type="curve" smooth="yes"/>
			<point x="146" y="504"/>
			<point x="66" y="439"/>
			<point x="66" y="351" type="curve" smooth="yes"/>
			<point x="66" y="290"/>
			<point x="111" y="248"/>
			<point x="167" y="216" type="curve" smooth="yes"/>
			<point x="233" y="179"/>
			<point x="258" y="164"/>
			<point x="258" y="132" type="curve" smooth="yes"/>
			<point x="258" y="96"/>
			<point x="220" y="70"/>
			<point x="174" y="70" type="curve" smooth="yes"/>
			<point x="131" y="70"/>
			<point x="88" y="90"/>
			<point x="54" y="133" type="curve"/>
			<point x="-4" y="81" type="line"/>
			<point x="33" y="22"/>
			<point x="105" y="-12"/>
		</contour>
	</outline>
	<anchor name="aboveLC" x="262" y="514"/>
	<anchor name="baseLC" x="166" y="0"/>
	<anchor name="belowLC" x="160" y="-22"/>
</glyph>
<glyph name="t" format="2">
	<unicode hex="0074"/>
	<advance width="348"/>
	<outline>
		<contour>
			<point x="194" y="-12" type="curve" smooth="yes"/>
			<point x="239" y="-12"/>
			<point x="276" y="0"/>
			<point x="300" y="12" type="curve"/>
			<point x="278" y="86" type="line"/>
			<point x="265" y="80"/>
			<point x="248" y="75"/>
			<point x="231" y="75" type="curve" smooth="yes"/>
			<point x="195" y="75"/>
			<point x="178" y="93"/>
			<point x="178" y="129" type="curve" smooth="yes"/>
			<point x="178" y="140"/>
			<point x="179" y="151"/>
			<point x="181" y="163" type="curve" smooth="yes"/>
			<point x="230" y="405" type="line"/>
			<point x="349" y="405" type="line"/>
			<point x="367" y="492" type="line"/>
			<point x="250" y="492" type="line"/>
			<point x="279" y="645" type="line"/>
			<point x="187" y="645" type="line"/>
			<point x="143" y="492" type="line"/>
			<point x="69" y="486" type="line"/>
			<point x="53" y="405" type="line"/>
			<point x="121" y="405" type="line"/>
			<point x="72" y="167" type="line" smooth="yes"/>
			<point x="68" y="148"/>
			<point x="65" y="130"/>
			<point x="65" y="110" type="curve" smooth="yes"/>
			<point x="65" y="40"/>
			<point x="102" y="-12"/>
		</contour>
	</outline>
	<anchor name="aboveLC" x="237" y="653"/>
	<anchor name="baseLC" x="179" y="0"/>
	<anchor name="belowLC" x="169" y="-22"/>
</glyph>
<glyph name="u" format="1">
	<unicode hex="0075"/>
	<advance width="537"/>
	<outline>
		<contour>
			<point x="164" y="-12" type="curve" smooth="yes"/>
			<point x="223" y="-12"/>
			<point x="279" y="26"/>
			<point x="328" y="70" type="curve"/>
			<point x="332" y="70" type="line"/>
			<point x="328" y="0" type="line"/>
			<point x="415" y="0" type="line"/>
			<point x="512" y="491" type="line"/>
			<point x="405" y="491" type="line"/>
			<point x="339" y="156" type="line"/>
			<point x="290" y="104"/>
			<point x="251" y="80"/>
			<point x="218" y="80" type="curve" smooth="yes"/>
			<point x="177" y="80"/>
			<point x="157" y="101"/>
			<point x="157" y="143" type="curve" smooth="yes"/>
			<point x="157" y="158"/>
			<point x="160" y="172"/>
			<point x="165" y="195" type="curve" smooth="yes"/>
			<point x="224" y="491" type="line"/>
			<point x="117" y="491" type="line"/>
			<point x="55" y="181" type="line" smooth="yes"/>
			<point x="50" y="156"/>
			<point x="47" y="135"/>
			<point x="47" y="112" type="curve" smooth="yes"/>
			<point x="47" y="34"/>
			<point x="82" y="-12"/>
		</contour>
		<contour>
			<point name="aboveLC" x="316" y="514" type="move"/>
		</contour>
		<contour>
			<point name="baseLC" x="202" y="0" type="move"/>
		</contour>
		<contour>
			<point name="belowLC" x="232" y="-27" type="move"/>
		</contour>
		<contour>
			<point name="hornLC" x="464" y="501" type="move"/>
		</contour>
		<contour>
			<point name="ogonekLC" x="342" y="0" type="move"/>
		</contour>
	</outline>
</glyph>
<glyph name="v" format="2">
	<unicode hex="0076"/>
	<advance width="476"/>
	<outline>
		<contour>
			<point x="126" y="0" type="line"/>
			<point x="255" y="0" type="line"/>
			<point x="510" y="492" type="line"/>
			<point x="402" y="492" type="line"/>
			<point x="277" y="232" type="line" smooth="yes"/>
			<point x="253" y="182"/>
			<point x="231" y="133"/>
			<point x="208" y="83" type="curve"/>
			<point x="204" y="83" type="line"/>
			<point x="201" y="133"/>
			<point x="199" y="183"/>
			<point x="194" y="232" type="curve" smooth="yes"/>
			<point x="169" y="492" type="line"/>
			<point x="59" y="492" type="line"/>
		</contour>
	</outline>
	<anchor name="aboveLC" x="287" y="514"/>
	<anchor name="belowLC" x="191" y="-22"/>
</glyph>
<glyph name="w" format="2">
	<unicode hex="0077"/>
	<advance width="728"/>
	<outline>
		<contour>
			<point x="101" y="0" type="line"/>
			<point x="227" y="0" type="line"/>
			<point x="328" y="236" type="line" smooth="yes"/>
			<point x="349" y="286"/>
			<point x="366" y="334"/>
			<point x="385" y="387" type="curve"/>
			<point x="389" y="387" type="line"/>
			<point x="389" y="334"/>
			<point x="387" y="285"/>
			<point x="388" y="236" type="curve" smooth="yes"/>
			<point x="397" y="0" type="line"/>
			<point x="523" y="0" type="line"/>
			<point x="739" y="491" type="line"/>
			<point x="639" y="491" type="line"/>
			<point x="531" y="228" type="line" smooth="yes"/>
			<point x="511" y="181"/>
			<point x="494" y="134"/>
			<point x="476" y="86" type="curve"/>
			<point x="472" y="86" type="line"/>
			<point x="471" y="135"/>
			<point x="470" y="181"/>
			<point x="470" y="228" type="curve" smooth="yes"/>
			<point x="455" y="491" type="line"/>
			<point x="356" y="491" type="line"/>
			<point x="244" y="228" type="line" smooth="yes"/>
			<point x="224" y="181"/>
			<point x="207" y="134"/>
			<point x="188" y="86" type="curve"/>
			<point x="184" y="86" type="line"/>
			<point x="185" y="134"/>
			<point x="187" y="181"/>
			<point x="185" y="228" type="curve" smooth="yes"/>
			<point x="175" y="491" type="line"/>
			<point x="71" y="491" type="line"/>
		</contour>
	</outline>
	<anchor name="aboveLC" x="412" y="514"/>
	<anchor name="belowLC" x="310" y="-22"/>
</glyph>
<glyph name="x" format="2">
	<unicode hex="0078"/>
	<advance width="463"/>
	<outline>
		<contour>
			<point x="-42" y="0" type="line"/>
			<point x="77" y="0" type="line"/>
			<point x="152" y="99" type="line" smooth="yes"/>
			<point x="174" y="130"/>
			<point x="195" y="158"/>
			<point x="214" y="187" type="curve"/>
			<point x="218" y="187" type="line"/>
			<point x="229" y="158"/>
			<point x="239" y="127"/>
			<point x="249" y="99" type="curve" smooth="yes"/>
			<point x="286" y="0" type="line"/>
			<point x="399" y="0" type="line"/>
			<point x="304" y="237" type="line"/>
			<point x="500" y="492" type="line"/>
			<point x="383" y="492" type="line"/>
			<point x="317" y="395" type="line" smooth="yes"/>
			<point x="299" y="367"/>
			<point x="279" y="340"/>
			<point x="260" y="313" type="curve"/>
			<point x="256" y="313" type="line"/>
			<point x="247" y="341"/>
			<point x="239" y="367"/>
			<point x="230" y="395" type="curve" smooth="yes"/>
			<point x="195" y="492" type="line"/>
			<point x="83" y="492" type="line"/>
			<point x="172" y="262" type="line"/>
		</contour>
	</outline>
	<anchor name="aboveLC" x="288" y="515"/>
	<anchor name="belowLC" x="188" y="-22"/>
</glyph>
<glyph name="y" format="2">
	<unicode hex="0079"/>
	<advance width="476"/>
	<outline>
		<contour>
			<point x="25" y="-201" type="curve" smooth="yes"/>
			<point x="119" y="-201"/>
			<point x="183" y="-142"/>
			<point x="250" y="-15" type="curve" smooth="yes"/>
			<point x="516" y="492" type="line"/>
			<point x="404" y="492" type="line"/>
			<point x="285" y="247" type="line"/>
			<point x="264" y="204"/>
			<point x="241" y="150"/>
			<point x="220" y="107" type="curve"/>
			<point x="216" y="107" type="line"/>
			<point x="213" y="150"/>
			<point x="210" y="204"/>
			<point x="204" y="247" type="curve" smooth="yes"/>
			<point x="173" y="492" type="line"/>
			<point x="60" y="492" type="line"/>
			<point x="147" y="-1" type="line"/>
			<point x="134" y="-26" type="line" smooth="yes"/>
			<point x="107" y="-79"/>
			<point x="66" y="-110"/>
			<point x="24" y="-110" type="curve" smooth="yes"/>
			<point x="9" y="-110"/>
			<point x="-3" y="-108"/>
			<point x="-14" y="-103" type="curve"/>
			<point x="-47" y="-183" type="line"/>
			<point x="-29" y="-195"/>
			<point x="-3" y="-201"/>
		</contour>
	</outline>
	<anchor name="aboveLC" x="287" y="514"/>
	<anchor name="belowLC" x="115" y="-215"/>
</glyph>
<glyph name="z" format="1">
	<unicode hex="007A"/>
	<advance width="427"/>
	<outline>
		<contour>
			<point x="-10" y="0" type="line"/>
			<point x="355" y="0" type="line"/>
			<point x="372" y="85" type="line"/>
			<point x="141" y="85" type="line"/>
			<point x="434" y="429" type="line"/>
			<point x="446" y="491" type="line"/>
			<point x="111" y="491" type="line"/>
			<point x="94" y="406" type="line"/>
			<point x="294" y="406" type="line"/>
			<point x="2" y="61" type="line"/>
		</contour>
		<contour>
			<point name="aboveLC" x="284" y="514" type="move"/>
		</contour>
		<contour>
			<point name="belowLC" x="180" y="-22" type="move"/>
		</contour>
	</outline>
</glyph>
<glyph name="braceleft" format="2">
	<unicode hex="007B"/>
	<advance width="309"/>
	<outline>
		<contour>
			<point x="138" y="-152" type="curve" smooth="yes"/>
			<point x="191" y="-152" type="line"/>
			<point x="203" y="-93" type="line"/>
			<point x="183" y="-93" type="line" smooth="yes"/>
			<point x="145" y="-93"/>
			<point x="134" y="-79"/>
			<point x="134" y="-48" type="curve" smooth="yes"/>
			<point x="134" y="11"/>
			<point x="184" y="139"/>
			<point x="184" y="207" type="curve" smooth="yes"/>
			<point x="184" y="242"/>
			<point x="170" y="262"/>
			<point x="133" y="273" type="curve"/>
			<point x="134" y="277" type="line"/>
			<point x="183" y="289"/>
			<point x="210" y="322"/>
			<point x="225" y="394" type="curve" smooth="yes"/>
			<point x="236" y="454"/>
			<point x="243" y="510"/>
			<point x="254" y="565" type="curve" smooth="yes"/>
			<point x="265" y="625"/>
			<point x="282" y="649"/>
			<point x="329" y="649" type="curve" smooth="yes"/>
			<point x="351" y="649" type="line"/>
			<point x="364" y="708" type="line"/>
			<point x="309" y="708" type="line" smooth="yes"/>
			<point x="225" y="708"/>
			<point x="189" y="676"/>
			<point x="168" y="570" type="curve" smooth="yes"/>
			<point x="154" y="501"/>
			<point x="153" y="452"/>
			<point x="141" y="389" type="curve" smooth="yes"/>
			<point x="134" y="352"/>
			<point x="111" y="312"/>
			<point x="43" y="310" type="curve"/>
			<point x="29" y="246" type="line"/>
			<point x="85" y="244"/>
			<point x="99" y="216"/>
			<point x="99" y="189" type="curve" smooth="yes"/>
			<point x="99" y="135"/>
			<point x="45" y="8"/>
			<point x="45" y="-68" type="curve" smooth="yes"/>
			<point x="45" y="-124"/>
			<point x="71" y="-152"/>
		</contour>
	</outline>
</glyph>
<glyph name="bar" format="2">
	<unicode hex="007C"/>
	<advance width="244"/>
	<outline>
		<contour>
			<point x="91" y="-250" type="line"/>
			<point x="162" y="-250" type="line"/>
			<point x="162" y="750" type="line"/>
			<point x="91" y="750" type="line"/>
		</contour>
	</outline>
</glyph>
<glyph name="braceright" format="2">
	<unicode hex="007D"/>
	<advance width="314"/>
	<outline>
		<contour>
			<point x="-44" y="-152" type="line"/>
			<point x="11" y="-152" type="line" smooth="yes"/>
			<point x="96" y="-152"/>
			<point x="132" y="-120"/>
			<point x="153" y="-14" type="curve" smooth="yes"/>
			<point x="167" y="56"/>
			<point x="168" y="104"/>
			<point x="180" y="167" type="curve" smooth="yes"/>
			<point x="187" y="203"/>
			<point x="210" y="244"/>
			<point x="278" y="245" type="curve"/>
			<point x="292" y="311" type="line"/>
			<point x="236" y="312"/>
			<point x="222" y="340"/>
			<point x="222" y="368" type="curve" smooth="yes"/>
			<point x="222" y="421"/>
			<point x="276" y="548"/>
			<point x="276" y="624" type="curve" smooth="yes"/>
			<point x="276" y="680"/>
			<point x="250" y="708"/>
			<point x="182" y="708" type="curve" smooth="yes"/>
			<point x="128" y="708" type="line"/>
			<point x="116" y="647" type="line"/>
			<point x="136" y="647" type="line" smooth="yes"/>
			<point x="174" y="647"/>
			<point x="184" y="634"/>
			<point x="184" y="604" type="curve" smooth="yes"/>
			<point x="184" y="544"/>
			<point x="135" y="417"/>
			<point x="135" y="350" type="curve" smooth="yes"/>
			<point x="135" y="314"/>
			<point x="149" y="294"/>
			<point x="186" y="283" type="curve"/>
			<point x="186" y="279" type="line"/>
			<point x="136" y="267"/>
			<point x="108" y="234"/>
			<point x="94" y="162" type="curve" smooth="yes"/>
			<point x="83" y="102"/>
			<point x="76" y="46"/>
			<point x="65" y="-8" type="curve" smooth="yes"/>
			<point x="54" y="-68"/>
			<point x="37" y="-91"/>
			<point x="-9" y="-91" type="curve" smooth="yes"/>
			<point x="-31" y="-91" type="line"/>
		</contour>
	</outline>
</glyph>
<glyph name="asciitilde" format="2">
	<unicode hex="007E"/>
	<advance width="496"/>
	<outline>
		<contour>
			<point x="338" y="252" type="curve" smooth="yes"/>
			<point x="382" y="252"/>
			<point x="432" y="279"/>
			<point x="470" y="349" type="curve"/>
			<point x="412" y="387" type="line"/>
			<point x="392" y="347"/>
			<point x="369" y="329"/>
			<point x="341" y="329" type="curve" smooth="yes"/>
			<point x="289" y="329"/>
			<point x="248" y="410"/>
			<point x="174" y="410" type="curve" smooth="yes"/>
			<point x="129" y="410"/>
			<point x="80" y="383"/>
			<point x="41" y="313" type="curve"/>
			<point x="99" y="275" type="line"/>
			<point x="120" y="315"/>
			<point x="142" y="333"/>
			<point x="170" y="333" type="curve" smooth="yes"/>
			<point x="223" y="333"/>
			<point x="263" y="252"/>
		</contour>
	</outline>
</glyph>
<glyph name="exclamdown" format="2">
	<unicode hex="00A1"/>
	<advance width="309"/>
	<outline>
		<contour>
			<point x="19" y="-179" type="line"/>
			<point x="129" y="-179" type="line"/>
			<point x="201" y="279" type="line"/>
			<point x="128" y="279" type="line"/>
			<point x="43" y="-68" type="line"/>
		</contour>
		<contour>
			<point x="182" y="353" type="curve" smooth="yes"/>
			<point x="231" y="353"/>
			<point x="266" y="398"/>
			<point x="266" y="440" type="curve" smooth="yes"/>
			<point x="266" y="477"/>
			<point x="243" y="504"/>
			<point x="206" y="504" type="curve" smooth="yes"/>
			<point x="157" y="504"/>
			<point x="123" y="461"/>
			<point x="123" y="417" type="curve" smooth="yes"/>
			<point x="123" y="381"/>
			<point x="145" y="353"/>
		</contour>
	</outline>
</glyph>
<glyph name="cent" format="2">
	<unicode hex="00A2"/>
	<advance width="496"/>
	<outline>
		<contour>
			<point x="264" y="82" type="curve" smooth="yes"/>
			<point x="332" y="82"/>
			<point x="387" y="106"/>
			<point x="438" y="139" type="curve"/>
			<point x="403" y="210" type="line"/>
			<point x="370" y="187"/>
			<point x="334" y="171"/>
			<point x="289" y="171" type="curve" smooth="yes"/>
			<point x="221" y="171"/>
			<point x="183" y="223"/>
			<point x="183" y="304" type="curve" smooth="yes"/>
			<point x="183" y="412"/>
			<point x="260" y="487"/>
			<point x="346" y="487" type="curve" smooth="yes"/>
			<point x="386" y="487"/>
			<point x="410" y="471"/>
			<point x="435" y="446" type="curve"/>
			<point x="499" y="505" type="line"/>
			<point x="466" y="544"/>
			<point x="424" y="577"/>
			<point x="357" y="577" type="curve" smooth="yes"/>
			<point x="223" y="577"/>
			<point x="75" y="468"/>
			<point x="75" y="287" type="curve" smooth="yes"/>
			<point x="75" y="157"/>
			<point x="150" y="82"/>
		</contour>
		<contour>
			<point x="208" y="-16" type="line"/>
			<point x="272" y="-16" type="line"/>
			<point x="409" y="673" type="line"/>
			<point x="345" y="673" type="line"/>
		</contour>
	</outline>
</glyph>
<glyph name="sterling" format="1">
	<unicode hex="00A3"/>
	<advance width="494"/>
	<outline>
		<contour>
			<point x="1" y="0" type="line"/>
			<point x="407" y="0" type="line"/>
			<point x="423" y="91" type="line"/>
			<point x="176" y="91" type="line"/>
			<point x="176" y="95" type="line"/>
			<point x="229" y="148"/>
			<point x="253" y="205"/>
			<point x="253" y="287" type="curve" smooth="yes"/>
			<point x="253" y="326"/>
			<point x="244" y="373"/>
			<point x="244" y="410" type="curve" smooth="yes"/>
			<point x="244" y="509"/>
			<point x="294" y="561"/>
			<point x="358" y="561" type="curve" smooth="yes"/>
			<point x="394" y="561"/>
			<point x="420" y="540"/>
			<point x="442" y="507" type="curve"/>
			<point x="512" y="564" type="line"/>
			<point x="480" y="612"/>
			<point x="432" y="648"/>
			<point x="364" y="648" type="curve" smooth="yes"/>
			<point x="239" y="648"/>
			<point x="144" y="560"/>
			<point x="144" y="422" type="curve" smooth="yes"/>
			<point x="144" y="377"/>
			<point x="155" y="318"/>
			<point x="155" y="274" type="curve" smooth="yes"/>
			<point x="155" y="183"/>
			<point x="104" y="107"/>
			<point x="14" y="65" type="curve"/>
		</contour>
		<contour>
			<point x="59" y="276" type="line"/>
			<point x="384" y="276" type="line"/>
			<point x="399" y="354" type="line"/>
			<point x="154" y="354" type="line"/>
			<point x="74" y="349" type="line"/>
		</contour>
	</outline>
</glyph>
<glyph name="currency" format="2">
	<unicode hex="00A4"/>
	<advance width="496"/>
	<outline>
		<contour>
			<point x="57" y="103" type="line"/>
			<point x="129" y="166" type="line"/>
			<point x="155" y="145"/>
			<point x="188" y="135"/>
			<point x="228" y="135" type="curve" smooth="yes"/>
			<point x="267" y="135"/>
			<point x="307" y="147"/>
			<point x="342" y="169" type="curve"/>
			<point x="395" y="102" type="line"/>
			<point x="455" y="153" type="line"/>
			<point x="405" y="216" type="line"/>
			<point x="439" y="255"/>
			<point x="461" y="307"/>
			<point x="461" y="366" type="curve" smooth="yes"/>
			<point x="461" y="394"/>
			<point x="456" y="420"/>
			<point x="446" y="441" type="curve"/>
			<point x="514" y="501" type="line"/>
			<point x="466" y="558" type="line"/>
			<point x="394" y="496" type="line"/>
			<point x="368" y="515"/>
			<point x="334" y="527"/>
			<point x="295" y="527" type="curve" smooth="yes"/>
			<point x="256" y="527"/>
			<point x="217" y="515"/>
			<point x="183" y="495" type="curve"/>
			<point x="134" y="558" type="line"/>
			<point x="74" y="507" type="line"/>
			<point x="120" y="448" type="line"/>
			<point x="84" y="408"/>
			<point x="61" y="356"/>
			<point x="61" y="295" type="curve" smooth="yes"/>
			<point x="61" y="266"/>
			<point x="67" y="241"/>
			<point x="77" y="219" type="curve"/>
			<point x="9" y="161" type="line"/>
		</contour>
		<contour>
			<point x="240" y="214" type="curve" smooth="yes"/>
			<point x="191" y="214"/>
			<point x="162" y="247"/>
			<point x="162" y="305" type="curve" smooth="yes"/>
			<point x="162" y="387"/>
			<point x="223" y="447"/>
			<point x="283" y="447" type="curve" smooth="yes"/>
			<point x="331" y="447"/>
			<point x="360" y="415"/>
			<point x="360" y="357" type="curve" smooth="yes"/>
			<point x="360" y="275"/>
			<point x="300" y="214"/>
		</contour>
	</outline>
</glyph>
<glyph name="yen" format="2">
	<unicode hex="00A5"/>
	<advance width="494"/>
	<outline>
		<contour>
			<point x="144" y="0" type="line"/>
			<point x="250" y="0" type="line"/>
			<point x="280" y="153" type="line"/>
			<point x="432" y="153" type="line"/>
			<point x="443" y="207" type="line"/>
			<point x="291" y="207" type="line"/>
			<point x="304" y="272" type="line"/>
			<point x="456" y="272" type="line"/>
			<point x="467" y="327" type="line"/>
			<point x="340" y="327" type="line"/>
			<point x="549" y="637" type="line"/>
			<point x="441" y="637" type="line"/>
			<point x="349" y="479" type="line"/>
			<point x="322" y="436"/>
			<point x="296" y="392"/>
			<point x="268" y="345" type="curve"/>
			<point x="265" y="345" type="line"/>
			<point x="255" y="391"/>
			<point x="247" y="435"/>
			<point x="239" y="479" type="curve" smooth="yes"/>
			<point x="207" y="637" type="line"/>
			<point x="98" y="637" type="line"/>
			<point x="184" y="327" type="line"/>
			<point x="57" y="327" type="line"/>
			<point x="46" y="272" type="line"/>
			<point x="198" y="272" type="line"/>
			<point x="185" y="207" type="line"/>
			<point x="33" y="207" type="line"/>
			<point x="22" y="153" type="line"/>
			<point x="174" y="153" type="line"/>
		</contour>
	</outline>
</glyph>
<glyph name="brokenbar" format="2">
	<unicode hex="00A6"/>
	<advance width="244"/>
	<outline>
		<contour>
			<point x="91" y="300" type="line"/>
			<point x="162" y="300" type="line"/>
			<point x="162" y="750" type="line"/>
			<point x="91" y="750" type="line"/>
		</contour>
		<contour>
			<point x="91" y="-250" type="line"/>
			<point x="162" y="-250" type="line"/>
			<point x="162" y="209" type="line"/>
			<point x="91" y="209" type="line"/>
		</contour>
	</outline>
</glyph>
<glyph name="section" format="2">
	<unicode hex="00A7"/>
	<advance width="493"/>
	<outline>
		<contour>
			<point x="329" y="130" type="line"/>
			<point x="410" y="162"/>
			<point x="459" y="208"/>
			<point x="459" y="292" type="curve" smooth="yes"/>
			<point x="459" y="440"/>
			<point x="242" y="465"/>
			<point x="242" y="544" type="curve" smooth="yes"/>
			<point x="242" y="582"/>
			<point x="272" y="603"/>
			<point x="306" y="603" type="curve" smooth="yes"/>
			<point x="347" y="603"/>
			<point x="383" y="577"/>
			<point x="411" y="549" type="curve"/>
			<point x="469" y="611" type="line"/>
			<point x="425" y="657"/>
			<point x="368" y="687"/>
			<point x="307" y="687" type="curve" smooth="yes"/>
			<point x="210" y="687"/>
			<point x="142" y="623"/>
			<point x="142" y="532" type="curve" smooth="yes"/>
			<point x="142" y="395"/>
			<point x="363" y="379"/>
			<point x="363" y="279" type="curve" smooth="yes"/>
			<point x="363" y="224"/>
			<point x="330" y="200"/>
			<point x="276" y="185" type="curve"/>
		</contour>
		<contour>
			<point x="188" y="-71" type="curve" smooth="yes"/>
			<point x="293" y="-71"/>
			<point x="366" y="-6"/>
			<point x="366" y="88" type="curve" smooth="yes"/>
			<point x="366" y="230"/>
			<point x="147" y="238"/>
			<point x="147" y="338" type="curve" smooth="yes"/>
			<point x="147" y="391"/>
			<point x="186" y="419"/>
			<point x="234" y="433" type="curve"/>
			<point x="189" y="485" type="line"/>
			<point x="112" y="461"/>
			<point x="52" y="406"/>
			<point x="52" y="325" type="curve" smooth="yes"/>
			<point x="52" y="174"/>
			<point x="266" y="161"/>
			<point x="266" y="75" type="curve" smooth="yes"/>
			<point x="266" y="37"/>
			<point x="236" y="12"/>
			<point x="193" y="12" type="curve" smooth="yes"/>
			<point x="145" y="12"/>
			<point x="97" y="43"/>
			<point x="63" y="78" type="curve"/>
			<point x="7" y="9" type="line"/>
			<point x="58" y="-42"/>
			<point x="125" y="-71"/>
		</contour>
	</outline>
</glyph>
<glyph name="copyright" format="2">
	<unicode hex="00A9"/>
	<advance width="668"/>
	<outline>
		<contour>
			<point x="298" y="-10" type="curve" smooth="yes"/>
			<point x="516" y="-10"/>
			<point x="666" y="173"/>
			<point x="666" y="377" type="curve" smooth="yes"/>
			<point x="666" y="539"/>
			<point x="556" y="654"/>
			<point x="401" y="654" type="curve" smooth="yes"/>
			<point x="183" y="654"/>
			<point x="33" y="472"/>
			<point x="33" y="268" type="curve" smooth="yes"/>
			<point x="33" y="106"/>
			<point x="143" y="-10"/>
		</contour>
		<contour>
			<point x="302" y="41" type="curve" smooth="yes"/>
			<point x="164" y="41"/>
			<point x="86" y="142"/>
			<point x="86" y="273" type="curve" smooth="yes"/>
			<point x="86" y="444"/>
			<point x="217" y="604"/>
			<point x="397" y="604" type="curve" smooth="yes"/>
			<point x="535" y="604"/>
			<point x="613" y="503"/>
			<point x="613" y="372" type="curve" smooth="yes"/>
			<point x="613" y="201"/>
			<point x="482" y="41"/>
		</contour>
		<contour>
			<point x="326" y="129" type="curve" smooth="yes"/>
			<point x="377" y="129"/>
			<point x="419" y="146"/>
			<point x="460" y="178" type="curve"/>
			<point x="428" y="227" type="line"/>
			<point x="398" y="207"/>
			<point x="376" y="194"/>
			<point x="343" y="194" type="curve" smooth="yes"/>
			<point x="289" y="194"/>
			<point x="256" y="229"/>
			<point x="256" y="292" type="curve" smooth="yes"/>
			<point x="256" y="384"/>
			<point x="324" y="450"/>
			<point x="382" y="450" type="curve" smooth="yes"/>
			<point x="408" y="450"/>
			<point x="426" y="441"/>
			<point x="444" y="420" type="curve"/>
			<point x="492" y="464" type="line"/>
			<point x="472" y="491"/>
			<point x="438" y="515"/>
			<point x="392" y="515" type="curve" smooth="yes"/>
			<point x="292" y="515"/>
			<point x="177" y="425"/>
			<point x="177" y="282" type="curve" smooth="yes"/>
			<point x="177" y="184"/>
			<point x="238" y="129"/>
		</contour>
	</outline>
</glyph>
<glyph name="logicalnot" format="2">
	<unicode hex="00AC"/>
	<advance width="496"/>
	<outline>
		<contour>
			<point x="392" y="99" type="line"/>
			<point x="473" y="99" type="line"/>
			<point x="473" y="370" type="line"/>
			<point x="48" y="370" type="line"/>
			<point x="48" y="291" type="line"/>
			<point x="392" y="291" type="line"/>
		</contour>
	</outline>
</glyph>
<glyph name="registered" format="2">
	<unicode hex="00AE"/>
	<advance width="427"/>
	<outline>
		<contour>
			<point x="246" y="317" type="curve" smooth="yes"/>
			<point x="365" y="317"/>
			<point x="451" y="425"/>
			<point x="451" y="539" type="curve" smooth="yes"/>
			<point x="449" y="640"/>
			<point x="372" y="712"/>
			<point x="282" y="712" type="curve" smooth="yes"/>
			<point x="161" y="712"/>
			<point x="77" y="604"/>
			<point x="77" y="490" type="curve" smooth="yes"/>
			<point x="77" y="389"/>
			<point x="155" y="317"/>
		</contour>
		<contour>
			<point x="249" y="358" type="curve" smooth="yes"/>
			<point x="171" y="358"/>
			<point x="122" y="417"/>
			<point x="122" y="494" type="curve" smooth="yes"/>
			<point x="122" y="589"/>
			<point x="188" y="671"/>
			<point x="278" y="671" type="curve" smooth="yes"/>
			<point x="356" y="671"/>
			<point x="406" y="612"/>
			<point x="406" y="535" type="curve" smooth="yes"/>
			<point x="406" y="440"/>
			<point x="339" y="358"/>
		</contour>
		<contour>
			<point x="173" y="417" type="line"/>
			<point x="220" y="417" type="line"/>
			<point x="234" y="482" type="line"/>
			<point x="264" y="482" type="line"/>
			<point x="284" y="417" type="line"/>
			<point x="332" y="417" type="line"/>
			<point x="305" y="493" type="line"/>
			<point x="336" y="504"/>
			<point x="354" y="529"/>
			<point x="354" y="557" type="curve" smooth="yes"/>
			<point x="354" y="594"/>
			<point x="328" y="615"/>
			<point x="289" y="615" type="curve" smooth="yes"/>
			<point x="214" y="615" type="line"/>
		</contour>
		<contour>
			<point x="241" y="517" type="line"/>
			<point x="253" y="579" type="line"/>
			<point x="274" y="579" type="line" smooth="yes"/>
			<point x="295" y="579"/>
			<point x="303" y="569"/>
			<point x="303" y="553" type="curve" smooth="yes"/>
			<point x="303" y="532"/>
			<point x="287" y="517"/>
			<point x="260" y="517" type="curve" smooth="yes"/>
		</contour>
	</outline>
</glyph>
<glyph name="degree" format="1">
	<unicode hex="00B0"/>
	<advance width="331"/>
	<outline>
		<contour>
			<point x="214" y="418" type="curve" smooth="yes"/>
			<point x="290" y="418"/>
			<point x="355" y="485"/>
			<point x="355" y="567" type="curve" smooth="yes"/>
			<point x="355" y="638"/>
			<point x="307" y="685"/>
			<point x="239" y="685" type="curve" smooth="yes"/>
			<point x="163" y="685"/>
			<point x="98" y="618"/>
			<point x="98" y="536" type="curve" smooth="yes"/>
			<point x="98" y="465"/>
			<point x="146" y="418"/>
		</contour>
		<contour>
			<point x="218" y="473" type="curve" smooth="yes"/>
			<point x="180" y="473"/>
			<point x="158" y="502"/>
			<point x="158" y="538" type="curve" smooth="yes"/>
			<point x="158" y="585"/>
			<point x="189" y="630"/>
			<point x="235" y="630" type="curve" smooth="yes"/>
			<point x="273" y="630"/>
			<point x="294" y="601"/>
			<point x="294" y="565" type="curve" smooth="yes"/>
			<point x="294" y="518"/>
			<point x="264" y="473"/>
		</contour>
	</outline>
</glyph>
<glyph name="plusminus" format="2">
	<unicode hex="00B1"/>
	<advance width="496"/>
	<outline>
		<contour>
			<point x="218" y="144" type="line"/>
			<point x="301" y="144" type="line"/>
			<point x="301" y="313" type="line"/>
			<point x="473" y="313" type="line"/>
			<point x="473" y="392" type="line"/>
			<point x="302" y="392" type="line"/>
			<point x="302" y="560" type="line"/>
			<point x="219" y="560" type="line"/>
			<point x="219" y="392" type="line"/>
			<point x="48" y="392" type="line"/>
			<point x="48" y="313" type="line"/>
			<point x="218" y="313" type="line"/>
		</contour>
		<contour>
			<point x="48" y="0" type="line"/>
			<point x="473" y="0" type="line"/>
			<point x="473" y="79" type="line"/>
			<point x="48" y="79" type="line"/>
		</contour>
	</outline>
</glyph>
<glyph name="mu" format="2">
	<unicode hex="00B5"/>
	<unicode hex="03BC"/>
	<advance width="538"/>
	<outline>
		<contour>
			<point x="-15" y="-178" type="line"/>
			<point x="96" y="-178" type="line"/>
			<point x="104" y="-105"/>
			<point x="112" y="-52"/>
			<point x="130" y="35" type="curve"/>
			<point x="144" y="0"/>
			<point x="175" y="-11"/>
			<point x="207" y="-11" type="curve" smooth="yes"/>
			<point x="249" y="-11"/>
			<point x="300" y="13"/>
			<point x="337" y="77" type="curve"/>
			<point x="341" y="77" type="line"/>
			<point x="339" y="64"/>
			<point x="338" y="59"/>
			<point x="338" y="54" type="curve" smooth="yes"/>
			<point x="339" y="12"/>
			<point x="365" y="-12"/>
			<point x="423" y="-12" type="curve" smooth="yes"/>
			<point x="447" y="-12"/>
			<point x="464" y="-8"/>
			<point x="478" y="-2" type="curve"/>
			<point x="480" y="80" type="line"/>
			<point x="473" y="78"/>
			<point x="464" y="77"/>
			<point x="458" y="77" type="curve" smooth="yes"/>
			<point x="444" y="77"/>
			<point x="433" y="83"/>
			<point x="433" y="104" type="curve" smooth="yes"/>
			<point x="433" y="133"/>
			<point x="469" y="287"/>
			<point x="518" y="492" type="curve"/>
			<point x="407" y="492" type="line"/>
			<point x="343" y="171" type="line"/>
			<point x="295" y="101"/>
			<point x="258" y="81"/>
			<point x="223" y="81" type="curve" smooth="yes"/>
			<point x="187" y="81"/>
			<point x="163" y="96"/>
			<point x="163" y="144" type="curve" smooth="yes"/>
			<point x="163" y="157"/>
			<point x="165" y="181"/>
			<point x="170" y="202" type="curve" smooth="yes"/>
			<point x="230" y="492" type="line"/>
			<point x="120" y="492" type="line"/>
		</contour>
	</outline>
</glyph>
<glyph name="mu.math" format="1">
	<unicode hex="00B5"/>
	<advance width="536"/>
	<outline>
		<contour>
			<point x="-17" y="-186" type="line"/>
			<point x="90" y="-186" type="line"/>
			<point x="118" y="-40" type="line"/>
			<point x="129" y="32" type="line"/>
			<point x="141" y="3"/>
			<point x="169" y="-7"/>
			<point x="202" y="-7" type="curve" smooth="yes"/>
			<point x="246" y="-7"/>
			<point x="291" y="27"/>
			<point x="329" y="70" type="curve"/>
			<point x="333" y="70" type="line"/>
			<point x="328" y="0" type="line"/>
			<point x="416" y="0" type="line"/>
			<point x="512" y="491" type="line"/>
			<point x="406" y="491" type="line"/>
			<point x="340" y="155" type="line"/>
			<point x="290" y="104"/>
			<point x="252" y="80"/>
			<point x="219" y="80" type="curve" smooth="yes"/>
			<point x="178" y="80"/>
			<point x="158" y="101"/>
			<point x="158" y="143" type="curve" smooth="yes"/>
			<point x="158" y="158"/>
			<point x="161" y="172"/>
			<point x="166" y="195" type="curve" smooth="yes"/>
			<point x="225" y="491" type="line"/>
			<point x="118" y="491" type="line"/>
		</contour>
	</outline>
</glyph>
<glyph name="paragraph" format="1">
	<unicode hex="00B6"/>
	<advance width="572"/>
	<outline>
		<contour>
			<point x="307" y="-80" type="line"/>
			<point x="414" y="-80" type="line"/>
			<point x="560" y="654" type="line"/>
			<point x="453" y="654" type="line"/>
		</contour>
		<contour>
			<point x="289" y="213" type="curve" smooth="yes"/>
			<point x="312" y="213" type="line"/>
			<point x="400" y="654" type="line"/>
			<point x="354" y="654" type="line" smooth="yes"/>
			<point x="208" y="654"/>
			<point x="71" y="573"/>
			<point x="71" y="393" type="curve" smooth="yes"/>
			<point x="71" y="276"/>
			<point x="172" y="213"/>
		</contour>
	</outline>
</glyph>
<glyph name="questiondown" format="2">
	<unicode hex="00BF"/>
	<advance width="428"/>
	<outline>
		<contour>
			<point x="165" y="-190" type="curve" smooth="yes"/>
			<point x="225" y="-190"/>
			<point x="281" y="-163"/>
			<point x="325" y="-119" type="curve"/>
			<point x="268" y="-56" type="line"/>
			<point x="241" y="-84"/>
			<point x="211" y="-100"/>
			<point x="179" y="-100" type="curve" smooth="yes"/>
			<point x="133" y="-100"/>
			<point x="105" y="-73"/>
			<point x="105" y="-27" type="curve" smooth="yes"/>
			<point x="105" y="80"/>
			<point x="278" y="111"/>
			<point x="292" y="274" type="curve"/>
			<point x="198" y="282" type="line"/>
			<point x="181" y="140"/>
			<point x="-2" y="114"/>
			<point x="-2" y="-44" type="curve" smooth="yes"/>
			<point x="-2" y="-135"/>
			<point x="64" y="-190"/>
		</contour>
		<contour>
			<point x="261" y="354" type="curve" smooth="yes"/>
			<point x="310" y="354"/>
			<point x="345" y="399"/>
			<point x="345" y="441" type="curve" smooth="yes"/>
			<point x="345" y="478"/>
			<point x="322" y="504"/>
			<point x="285" y="504" type="curve" smooth="yes"/>
			<point x="236" y="504"/>
			<point x="202" y="461"/>
			<point x="202" y="418" type="curve" smooth="yes"/>
			<point x="202" y="382"/>
			<point x="224" y="354"/>
		</contour>
	</outline>
</glyph>
<glyph name="AE" format="2">
	<unicode hex="00C6"/>
	<advance width="822"/>
	<outline>
		<contour>
			<point x="-34" y="0" type="line"/>
			<point x="91" y="0" type="line"/>
			<point x="328" y="372" type="line" smooth="yes"/>
			<point x="372" y="440"/>
			<point x="414" y="504"/>
			<point x="459" y="572" type="curve"/>
			<point x="462" y="572" type="line"/>
			<point x="348" y="0" type="line"/>
			<point x="722" y="0" type="line"/>
			<point x="741" y="93" type="line"/>
			<point x="476" y="93" type="line"/>
			<point x="518" y="295" type="line"/>
			<point x="732" y="295" type="line"/>
			<point x="751" y="388" type="line"/>
			<point x="535" y="388" type="line"/>
			<point x="570" y="561" type="line"/>
			<point x="825" y="561" type="line"/>
			<point x="844" y="654" type="line"/>
			<point x="405" y="654" type="line"/>
		</contour>
		<contour>
			<point x="143" y="173" type="line"/>
			<point x="441" y="173" type="line"/>
			<point x="459" y="259" type="line"/>
			<point x="162" y="259" type="line"/>
		</contour>
	</outline>
	<anchor name="aboveUC" x="620" y="676"/>
</glyph>
<glyph name="multiply" format="2">
	<unicode hex="00D7"/>
	<advance width="496"/>
	<outline>
		<contour>
			<point x="119" y="127" type="line"/>
			<point x="261" y="275" type="line"/>
			<point x="402" y="127" type="line"/>
			<point x="458" y="182" type="line"/>
			<point x="316" y="331" type="line"/>
			<point x="458" y="479" type="line"/>
			<point x="402" y="534" type="line"/>
			<point x="261" y="386" type="line"/>
			<point x="119" y="534" type="line"/>
			<point x="64" y="479" type="line"/>
			<point x="205" y="331" type="line"/>
			<point x="64" y="182" type="line"/>
		</contour>
	</outline>
</glyph>
<glyph name="Oslash" format="2">
	<unicode hex="00D8"/>
	<advance width="647"/>
	<outline>
		<contour>
			<point x="44" y="-35" type="line"/>
			<point x="692" y="647" type="line"/>
			<point x="644" y="692" type="line"/>
			<point x="-6" y="10" type="line"/>
		</contour>
		<component base="O"/>
	</outline>
	<anchor name="aboveUC" x="402" y="676"/>
</glyph>
<glyph name="Thorn" format="2">
	<unicode hex="00DE"/>
	<advance width="581"/>
	<outline>
		<contour>
			<point x="31" y="0" type="line"/>
			<point x="141" y="0" type="line"/>
			<point x="169" y="140" type="line"/>
			<point x="260" y="140" type="line" smooth="yes"/>
			<point x="425" y="140"/>
			<point x="556" y="211"/>
			<point x="556" y="384" type="curve" smooth="yes"/>
			<point x="556" y="504"/>
			<point x="470" y="551"/>
			<point x="351" y="551" type="curve" smooth="yes"/>
			<point x="251" y="551" type="line"/>
			<point x="273" y="660" type="line"/>
			<point x="162" y="660" type="line"/>
		</contour>
		<contour>
			<point x="187" y="228" type="line"/>
			<point x="233" y="463" type="line"/>
			<point x="325" y="463" type="line" smooth="yes"/>
			<point x="403" y="463"/>
			<point x="446" y="434"/>
			<point x="446" y="368" type="curve" smooth="yes"/>
			<point x="446" y="276"/>
			<point x="384" y="228"/>
			<point x="269" y="228" type="curve" smooth="yes"/>
		</contour>
	</outline>
</glyph>
<glyph name="germandbls" format="2">
	<unicode hex="00DF"/>
	<advance width="583"/>
	<outline>
		<contour>
			<point x="357" y="-12" type="curve" smooth="yes"/>
			<point x="457" y="-12"/>
			<point x="533" y="62"/>
			<point x="533" y="154" type="curve" smooth="yes"/>
			<point x="533" y="274"/>
			<point x="405" y="296"/>
			<point x="405" y="361" type="curve" smooth="yes"/>
			<point x="405" y="427"/>
			<point x="538" y="458"/>
			<point x="538" y="578" type="curve" smooth="yes"/>
			<point x="538" y="674"/>
			<point x="456" y="718"/>
			<point x="363" y="718" type="curve" smooth="yes"/>
			<point x="233" y="718"/>
			<point x="148" y="628"/>
			<point x="126" y="515" type="curve" smooth="yes"/>
			<point x="22" y="0" type="line"/>
			<point x="130" y="0" type="line"/>
			<point x="228" y="493" type="line" smooth="yes"/>
			<point x="244" y="570"/>
			<point x="293" y="632"/>
			<point x="358" y="632" type="curve" smooth="yes"/>
			<point x="412" y="632"/>
			<point x="434" y="604"/>
			<point x="434" y="563" type="curve" smooth="yes"/>
			<point x="434" y="467"/>
			<point x="300" y="443"/>
			<point x="300" y="345" type="curve" smooth="yes"/>
			<point x="300" y="243"/>
			<point x="433" y="223"/>
			<point x="433" y="142" type="curve" smooth="yes"/>
			<point x="433" y="100"/>
			<point x="400" y="69"/>
			<point x="356" y="69" type="curve" smooth="yes"/>
			<point x="318" y="69"/>
			<point x="286" y="82"/>
			<point x="258" y="103" type="curve"/>
			<point x="219" y="36" type="line"/>
			<point x="258" y="1"/>
			<point x="308" y="-12"/>
		</contour>
	</outline>
</glyph>
<glyph name="ae" format="2">
	<unicode hex="00E6"/>
	<advance width="758"/>
	<outline>
		<contour>
			<point x="156" y="-12" type="curve" smooth="yes"/>
			<point x="228" y="-12"/>
			<point x="289" y="21"/>
			<point x="350" y="76" type="curve"/>
			<point x="376" y="27"/>
			<point x="436" y="-12"/>
			<point x="506" y="-12" type="curve" smooth="yes"/>
			<point x="572" y="-12"/>
			<point x="627" y="11"/>
			<point x="667" y="42" type="curve"/>
			<point x="630" y="106" type="line"/>
			<point x="602" y="86"/>
			<point x="565" y="72"/>
			<point x="527" y="72" type="curve" smooth="yes"/>
			<point x="454" y="72"/>
			<point x="406" y="124"/>
			<point x="418" y="218" type="curve"/>
			<point x="706" y="218" type="line"/>
			<point x="713" y="234"/>
			<point x="726" y="279"/>
			<point x="726" y="322" type="curve" smooth="yes"/>
			<point x="726" y="424"/>
			<point x="684" y="503"/>
			<point x="570" y="503" type="curve" smooth="yes"/>
			<point x="514" y="503"/>
			<point x="457" y="473"/>
			<point x="413" y="422" type="curve"/>
			<point x="396" y="478"/>
			<point x="346" y="503"/>
			<point x="278" y="503" type="curve" smooth="yes"/>
			<point x="226" y="503"/>
			<point x="157" y="480"/>
			<point x="106" y="453" type="curve"/>
			<point x="140" y="378" type="line"/>
			<point x="185" y="403"/>
			<point x="230" y="418"/>
			<point x="266" y="418" type="curve" smooth="yes"/>
			<point x="318" y="418"/>
			<point x="342" y="392"/>
			<point x="342" y="338" type="curve" smooth="yes"/>
			<point x="342" y="328"/>
			<point x="341" y="318"/>
			<point x="338" y="306" type="curve"/>
			<point x="160" y="300"/>
			<point x="27" y="251"/>
			<point x="27" y="109" type="curve" smooth="yes"/>
			<point x="27" y="33"/>
			<point x="84" y="-12"/>
		</contour>
		<contour>
			<point x="198" y="72" type="curve" smooth="yes"/>
			<point x="159" y="72"/>
			<point x="132" y="93"/>
			<point x="132" y="131" type="curve" smooth="yes"/>
			<point x="132" y="196"/>
			<point x="200" y="235"/>
			<point x="324" y="238" type="curve"/>
			<point x="319" y="202"/>
			<point x="319" y="177"/>
			<point x="324" y="144" type="curve"/>
			<point x="279" y="95"/>
			<point x="233" y="72"/>
		</contour>
		<contour>
			<point x="427" y="291" type="line"/>
			<point x="451" y="371"/>
			<point x="506" y="420"/>
			<point x="557" y="420" type="curve" smooth="yes"/>
			<point x="617" y="420"/>
			<point x="637" y="377"/>
			<point x="637" y="329" type="curve" smooth="yes"/>
			<point x="637" y="315"/>
			<point x="635" y="304"/>
			<point x="632" y="291" type="curve"/>
		</contour>
	</outline>
	<anchor name="aboveLC" x="440" y="522"/>
	<anchor name="belowLC" x="340" y="-22"/>
</glyph>
<glyph name="eth" format="1">
	<unicode hex="00F0"/>
	<advance width="542"/>
	<outline>
		<contour>
			<point x="220" y="-12" type="curve" smooth="yes"/>
			<point x="377" y="-12"/>
			<point x="490" y="140"/>
			<point x="490" y="362" type="curve" smooth="yes"/>
			<point x="490" y="540"/>
			<point x="391" y="657"/>
			<point x="256" y="735" type="curve"/>
			<point x="201" y="672" type="line"/>
			<point x="324" y="595"/>
			<point x="384" y="503"/>
			<point x="384" y="350" type="curve" smooth="yes"/>
			<point x="384" y="187"/>
			<point x="319" y="75"/>
			<point x="234" y="75" type="curve" smooth="yes"/>
			<point x="175" y="75"/>
			<point x="144" y="126"/>
			<point x="144" y="186" type="curve" smooth="yes"/>
			<point x="144" y="275"/>
			<point x="195" y="368"/>
			<point x="281" y="368" type="curve" smooth="yes"/>
			<point x="329" y="368"/>
			<point x="363" y="333"/>
			<point x="384" y="296" type="curve"/>
			<point x="401" y="357" type="line"/>
			<point x="379" y="417"/>
			<point x="327" y="451"/>
			<point x="268" y="451" type="curve" smooth="yes"/>
			<point x="124" y="451"/>
			<point x="38" y="312"/>
			<point x="38" y="177" type="curve" smooth="yes"/>
			<point x="38" y="64"/>
			<point x="111" y="-12"/>
		</contour>
		<contour>
			<point x="182" y="496" type="line"/>
			<point x="544" y="643" type="line"/>
			<point x="523" y="696" type="line"/>
			<point x="161" y="549" type="line"/>
		</contour>
		<contour>
			<point name="aboveUC" x="370" y="724" type="move"/>
		</contour>
		<contour>
			<point name="belowLC" x="216" y="-22" type="move"/>
		</contour>
	</outline>
</glyph>
<glyph name="divide" format="2">
	<unicode hex="00F7"/>
	<advance width="496"/>
	<outline>
		<contour>
			<point x="48" y="291" type="line"/>
			<point x="473" y="291" type="line"/>
			<point x="473" y="370" type="line"/>
			<point x="48" y="370" type="line"/>
		</contour>
		<contour>
			<point x="261" y="85" type="curve" smooth="yes"/>
			<point x="297" y="85"/>
			<point x="325" y="111"/>
			<point x="325" y="148" type="curve" smooth="yes"/>
			<point x="325" y="183"/>
			<point x="297" y="211"/>
			<point x="261" y="211" type="curve" smooth="yes"/>
			<point x="224" y="211"/>
			<point x="196" y="183"/>
			<point x="196" y="148" type="curve" smooth="yes"/>
			<point x="196" y="111"/>
			<point x="224" y="85"/>
		</contour>
		<contour>
			<point x="261" y="448" type="curve" smooth="yes"/>
			<point x="297" y="448"/>
			<point x="325" y="475"/>
			<point x="325" y="512" type="curve" smooth="yes"/>
			<point x="325" y="547"/>
			<point x="297" y="574"/>
			<point x="261" y="574" type="curve" smooth="yes"/>
			<point x="224" y="574"/>
			<point x="196" y="547"/>
			<point x="196" y="512" type="curve" smooth="yes"/>
			<point x="196" y="475"/>
			<point x="224" y="448"/>
		</contour>
	</outline>
</glyph>
<glyph name="thorn" format="2">
	<unicode hex="00FE"/>
	<advance width="545"/>
	<outline>
		<contour>
			<point x="-17" y="-193" type="line"/>
			<point x="93" y="-193" type="line"/>
			<point x="120" y="-48" type="line"/>
			<point x="136" y="52" type="line"/>
			<point x="138" y="52" type="line"/>
			<point x="162" y="13"/>
			<point x="200" y="-12"/>
			<point x="246" y="-12" type="curve" smooth="yes"/>
			<point x="382" y="-12"/>
			<point x="510" y="136"/>
			<point x="510" y="324" type="curve" smooth="yes"/>
			<point x="510" y="440"/>
			<point x="456" y="504"/>
			<point x="370" y="504" type="curve" smooth="yes"/>
			<point x="315" y="504"/>
			<point x="262" y="476"/>
			<point x="216" y="439" type="curve"/>
			<point x="214" y="439" type="line"/>
			<point x="238" y="533" type="line"/>
			<point x="273" y="706" type="line"/>
			<point x="163" y="706" type="line"/>
		</contour>
		<contour>
			<point x="239" y="79" type="curve" smooth="yes"/>
			<point x="209" y="79"/>
			<point x="180" y="95"/>
			<point x="159" y="136" type="curve"/>
			<point x="201" y="343" type="line"/>
			<point x="238" y="390"/>
			<point x="287" y="413"/>
			<point x="324" y="413" type="curve" smooth="yes"/>
			<point x="368" y="413"/>
			<point x="396" y="380"/>
			<point x="396" y="310" type="curve" smooth="yes"/>
			<point x="396" y="184"/>
			<point x="321" y="79"/>
		</contour>
	</outline>
	<anchor name="aboveUC" x="392" y="724"/>
	<anchor name="belowLC" x="41" y="-206"/>
</glyph>
<glyph name="Aogonek" format="2">
	<unicode hex="0104"/>
	<advance width="531"/>
	<outline>
		<contour>
			<point x="388" y="-217" type="curve" smooth="yes"/>
			<point x="416" y="-217"/>
			<point x="454" y="-206"/>
			<point x="479" y="-190" type="curve"/>
			<point x="457" y="-134" type="line"/>
			<point x="445" y="-141"/>
			<point x="436" y="-144"/>
			<point x="426" y="-144" type="curve" smooth="yes"/>
			<point x="406" y="-144"/>
			<point x="390" y="-131"/>
			<point x="390" y="-109" type="curve" smooth="yes"/>
			<point x="390" y="-74"/>
			<point x="421" y="-33"/>
			<point x="492" y="0" type="curve"/>
			<point x="422" y="654" type="line"/>
			<point x="291" y="654" type="line"/>
			<point x="-58" y="0" type="line"/>
			<point x="64" y="0" type="line"/>
			<point x="243" y="364" type="line" smooth="yes"/>
			<point x="276" y="432"/>
			<point x="305" y="496"/>
			<point x="336" y="566" type="curve"/>
			<point x="340" y="566" type="line"/>
			<point x="343" y="495"/>
			<point x="348" y="430"/>
			<point x="352" y="364" type="curve" smooth="yes"/>
			<point x="377" y="0" type="line"/>
			<point x="397" y="0" type="line"/>
			<point x="358" y="-28"/>
			<point x="302" y="-82"/>
			<point x="302" y="-144" type="curve" smooth="yes"/>
			<point x="302" y="-191"/>
			<point x="338" y="-217"/>
		</contour>
		<contour>
			<point x="108" y="182" type="line"/>
			<point x="402" y="182" type="line"/>
			<point x="422" y="266" type="line"/>
			<point x="128" y="266" type="line"/>
		</contour>
	</outline>
	<anchor name="aboveUC" x="361" y="676"/>
</glyph>
<glyph name="aogonek" format="2">
	<unicode hex="0105"/>
	<advance width="545"/>
	<outline>
		<contour>
			<point x="330" y="-217" type="curve" smooth="yes"/>
			<point x="371" y="-217"/>
			<point x="406" y="-203"/>
			<point x="435" y="-181" type="curve"/>
			<point x="412" y="-130" type="line"/>
			<point x="398" y="-139"/>
			<point x="388" y="-144"/>
			<point x="372" y="-144" type="curve" smooth="yes"/>
			<point x="351" y="-144"/>
			<point x="335" y="-131"/>
			<point x="335" y="-108" type="curve" smooth="yes"/>
			<point x="335" y="-64"/>
			<point x="371" y="-21"/>
			<point x="424" y="0" type="curve"/>
			<point x="523" y="492" type="line"/>
			<point x="434" y="492" type="line"/>
			<point x="414" y="435" type="line"/>
			<point x="411" y="435" type="line"/>
			<point x="390" y="477"/>
			<point x="347" y="504"/>
			<point x="299" y="504" type="curve" smooth="yes"/>
			<point x="163" y="504"/>
			<point x="35" y="355"/>
			<point x="35" y="167" type="curve" smooth="yes"/>
			<point x="35" y="52"/>
			<point x="88" y="-12"/>
			<point x="175" y="-12" type="curve" smooth="yes"/>
			<point x="230" y="-12"/>
			<point x="290" y="20"/>
			<point x="336" y="68" type="curve"/>
			<point x="339" y="68" type="line"/>
			<point x="335" y="4" type="line"/>
			<point x="292" y="-24"/>
			<point x="244" y="-82"/>
			<point x="244" y="-139" type="curve" smooth="yes"/>
			<point x="244" y="-190"/>
			<point x="281" y="-217"/>
		</contour>
		<contour>
			<point x="220" y="79" type="curve" smooth="yes"/>
			<point x="176" y="79"/>
			<point x="149" y="111"/>
			<point x="149" y="182" type="curve" smooth="yes"/>
			<point x="149" y="308"/>
			<point x="224" y="413"/>
			<point x="305" y="413" type="curve" smooth="yes"/>
			<point x="335" y="413"/>
			<point x="365" y="396"/>
			<point x="387" y="355" type="curve"/>
			<point x="347" y="161" type="line"/>
			<point x="308" y="101"/>
			<point x="261" y="79"/>
		</contour>
	</outline>
	<anchor name="aboveLC" x="316" y="514"/>
</glyph>
<glyph name="dcroat" format="2">
	<unicode hex="0111"/>
	<advance width="544"/>
	<outline>
		<contour>
			<point x="175" y="-12" type="curve" smooth="yes"/>
			<point x="230" y="-12"/>
			<point x="290" y="20"/>
			<point x="336" y="68" type="curve"/>
			<point x="339" y="68" type="line"/>
			<point x="334" y="0" type="line"/>
			<point x="424" y="0" type="line"/>
			<point x="567" y="706" type="line"/>
			<point x="457" y="706" type="line"/>
			<point x="415" y="493" type="line"/>
			<point x="401" y="399" type="line"/>
			<point x="398" y="399" type="line"/>
			<point x="378" y="438"/>
			<point x="340" y="464"/>
			<point x="292" y="464" type="curve" smooth="yes"/>
			<point x="159" y="464"/>
			<point x="34" y="330"/>
			<point x="34" y="168" type="curve" smooth="yes"/>
			<point x="34" y="52"/>
			<point x="88" y="-12"/>
		</contour>
		<contour>
			<point x="220" y="80" type="curve" smooth="yes"/>
			<point x="176" y="80"/>
			<point x="148" y="111"/>
			<point x="148" y="182" type="curve" smooth="yes"/>
			<point x="148" y="282"/>
			<point x="220" y="373"/>
			<point x="298" y="373" type="curve" smooth="yes"/>
			<point x="328" y="373"/>
			<point x="358" y="356"/>
			<point x="379" y="315" type="curve"/>
			<point x="347" y="161" type="line"/>
			<point x="307" y="101"/>
			<point x="261" y="80"/>
		</contour>
		<contour>
			<point x="260" y="542" type="line"/>
			<point x="536" y="542" type="line"/>
			<point x="610" y="548" type="line"/>
			<point x="624" y="624" type="line"/>
			<point x="276" y="624" type="line"/>
		</contour>
	</outline>
</glyph>
<glyph name="Eogonek" format="2">
	<unicode hex="0118"/>
	<advance width="515"/>
	<outline>
		<contour>
			<point x="310" y="-223" type="curve" smooth="yes"/>
			<point x="348" y="-223"/>
			<point x="388" y="-210"/>
			<point x="417" y="-188" type="curve"/>
			<point x="394" y="-130" type="line"/>
			<point x="380" y="-139"/>
			<point x="369" y="-142"/>
			<point x="355" y="-142" type="curve" smooth="yes"/>
			<point x="333" y="-142"/>
			<point x="316" y="-129"/>
			<point x="316" y="-106" type="curve" smooth="yes"/>
			<point x="316" y="-66"/>
			<point x="366" y="-6"/>
			<point x="416" y="0" type="curve"/>
			<point x="435" y="93" type="line"/>
			<point x="160" y="93" type="line"/>
			<point x="201" y="295" type="line"/>
			<point x="426" y="295" type="line"/>
			<point x="445" y="388" type="line"/>
			<point x="219" y="388" type="line"/>
			<point x="253" y="561" type="line"/>
			<point x="519" y="561" type="line"/>
			<point x="538" y="654" type="line"/>
			<point x="162" y="654" type="line"/>
			<point x="31" y="0" type="line"/>
			<point x="318" y="0" type="line"/>
			<point x="269" y="-32"/>
			<point x="215" y="-89"/>
			<point x="215" y="-144" type="curve" smooth="yes"/>
			<point x="215" y="-194"/>
			<point x="256" y="-223"/>
		</contour>
	</outline>
	<anchor name="aboveUC" x="361" y="676"/>
</glyph>
<glyph name="eogonek" format="2">
	<unicode hex="0119"/>
	<advance width="488"/>
	<outline>
		<contour>
			<point x="256" y="-217" type="curve" smooth="yes"/>
			<point x="296" y="-217"/>
			<point x="330" y="-203"/>
			<point x="359" y="-181" type="curve"/>
			<point x="336" y="-132" type="line"/>
			<point x="323" y="-140"/>
			<point x="312" y="-145"/>
			<point x="296" y="-145" type="curve" smooth="yes"/>
			<point x="275" y="-145"/>
			<point x="259" y="-132"/>
			<point x="259" y="-109" type="curve" smooth="yes"/>
			<point x="259" y="-65"/>
			<point x="295" y="-19"/>
			<point x="398" y="42" type="curve"/>
			<point x="361" y="108" type="line"/>
			<point x="333" y="88"/>
			<point x="293" y="72"/>
			<point x="258" y="72" type="curve" smooth="yes"/>
			<point x="184" y="72"/>
			<point x="125" y="114"/>
			<point x="137" y="218" type="curve"/>
			<point x="437" y="218" type="line"/>
			<point x="444" y="234"/>
			<point x="457" y="279"/>
			<point x="457" y="322" type="curve" smooth="yes"/>
			<point x="457" y="424"/>
			<point x="415" y="503"/>
			<point x="301" y="503" type="curve" smooth="yes"/>
			<point x="172" y="503"/>
			<point x="33" y="379"/>
			<point x="33" y="196" type="curve" smooth="yes"/>
			<point x="33" y="64"/>
			<point x="113" y="-12"/>
			<point x="231" y="-12" type="curve" smooth="yes"/>
			<point x="246" y="-12"/>
			<point x="262" y="-10"/>
			<point x="274" y="-7" type="curve"/>
			<point x="265" y="2" type="line"/>
			<point x="210" y="-38"/>
			<point x="170" y="-86"/>
			<point x="170" y="-139" type="curve" smooth="yes"/>
			<point x="170" y="-190"/>
			<point x="206" y="-217"/>
		</contour>
		<contour>
			<point x="146" y="291" type="line"/>
			<point x="170" y="372"/>
			<point x="229" y="420"/>
			<point x="288" y="420" type="curve" smooth="yes"/>
			<point x="348" y="420"/>
			<point x="368" y="377"/>
			<point x="368" y="329" type="curve" smooth="yes"/>
			<point x="368" y="315"/>
			<point x="366" y="303"/>
			<point x="363" y="291" type="curve"/>
		</contour>
	</outline>
	<anchor name="aboveLC" x="312" y="514"/>
</glyph>
<glyph name="Hbar" format="2">
	<unicode hex="0126"/>
	<advance width="670"/>
	<outline>
		<contour>
			<point x="72" y="483" type="line"/>
			<point x="688" y="483" type="line"/>
			<point x="702" y="554" type="line"/>
			<point x="171" y="554" type="line"/>
			<point x="86" y="550" type="line"/>
		</contour>
		<component base="H" xOffset="15"/>
	</outline>
</glyph>
<glyph name="hbar" format="2">
	<unicode hex="0127"/>
	<advance width="535"/>
	<outline>
		<contour>
			<point x="22" y="0" type="line"/>
			<point x="130" y="0" type="line"/>
			<point x="188" y="296" type="line"/>
			<point x="240" y="348"/>
			<point x="278" y="372"/>
			<point x="313" y="372" type="curve" smooth="yes"/>
			<point x="354" y="372"/>
			<point x="374" y="351"/>
			<point x="374" y="309" type="curve" smooth="yes"/>
			<point x="374" y="294"/>
			<point x="371" y="280"/>
			<point x="366" y="257" type="curve" smooth="yes"/>
			<point x="314" y="0" type="line"/>
			<point x="421" y="0" type="line"/>
			<point x="476" y="271" type="line" smooth="yes"/>
			<point x="481" y="296"/>
			<point x="484" y="317"/>
			<point x="484" y="340" type="curve" smooth="yes"/>
			<point x="484" y="418"/>
			<point x="449" y="464"/>
			<point x="367" y="464" type="curve" smooth="yes"/>
			<point x="308" y="464"/>
			<point x="255" y="431"/>
			<point x="206" y="388" type="curve"/>
			<point x="202" y="388" type="line"/>
			<point x="221" y="459" type="line"/>
			<point x="271" y="706" type="line"/>
			<point x="164" y="706" type="line"/>
		</contour>
		<contour>
			<point x="60" y="542" type="line"/>
			<point x="408" y="542" type="line"/>
			<point x="424" y="622" type="line"/>
			<point x="148" y="622" type="line"/>
			<point x="74" y="616" type="line"/>
		</contour>
	</outline>
</glyph>
<glyph name="Iogonek" format="2">
	<unicode hex="012E"/>
	<advance width="272"/>
	<outline>
		<contour>
			<point x="47" y="-222" type="curve" smooth="yes"/>
			<point x="85" y="-222"/>
			<point x="124" y="-210"/>
			<point x="153" y="-188" type="curve"/>
			<point x="130" y="-131" type="line"/>
			<point x="116" y="-140"/>
			<point x="105" y="-144"/>
			<point x="91" y="-144" type="curve" smooth="yes"/>
			<point x="69" y="-144"/>
			<point x="51" y="-130"/>
			<point x="51" y="-107" type="curve" smooth="yes"/>
			<point x="51" y="-71"/>
			<point x="85" y="-28"/>
			<point x="140" y="0" type="curve"/>
			<point x="270" y="654" type="line"/>
			<point x="162" y="654" type="line"/>
			<point x="32" y="0" type="line"/>
			<point x="55" y="0" type="line"/>
			<point x="7" y="-32"/>
			<point x="-47" y="-89"/>
			<point x="-47" y="-144" type="curve" smooth="yes"/>
			<point x="-47" y="-194"/>
			<point x="-7" y="-222"/>
		</contour>
	</outline>
	<anchor name="aboveUC" x="220" y="676"/>
</glyph>
<glyph name="dotlessi" format="2">
	<unicode hex="0131"/>
	<advance width="253"/>
	<outline>
		<contour>
			<point x="22" y="0" type="line"/>
			<point x="132" y="0" type="line"/>
			<point x="230" y="492" type="line"/>
			<point x="120" y="492" type="line"/>
		</contour>
	</outline>
	<anchor name="aboveLC" x="179" y="514"/>
	<anchor name="belowLC" x="72" y="-22"/>
	<anchor name="ogonekLC" x="72" y="0"/>
</glyph>
<glyph name="IJ" format="2">
	<unicode hex="0132"/>
	<advance width="548"/>
	<outline>
		<contour>
			<point x="249" y="-170" type="curve" smooth="yes"/>
			<point x="350" y="-170"/>
			<point x="396" y="-98"/>
			<point x="417" y="0" type="curve" smooth="yes"/>
			<point x="547" y="654" type="line"/>
			<point x="436" y="654" type="line"/>
			<point x="306" y="2" type="line" smooth="yes"/>
			<point x="294" y="-53"/>
			<point x="276" y="-81"/>
			<point x="241" y="-81" type="curve" smooth="yes"/>
			<point x="225" y="-81"/>
			<point x="213" y="-78"/>
			<point x="197" y="-69" type="curve"/>
			<point x="163" y="-149" type="line"/>
			<point x="193" y="-165"/>
			<point x="219" y="-170"/>
		</contour>
		<contour>
			<point x="31" y="0" type="line"/>
			<point x="142" y="0" type="line"/>
			<point x="273" y="654" type="line"/>
			<point x="162" y="654" type="line"/>
		</contour>
	</outline>
</glyph>
<glyph name="kgreenlandic" format="2">
	<unicode hex="0138"/>
	<advance width="503"/>
	<outline>
		<contour>
			<point x="22" y="0" type="line"/>
			<point x="132" y="0" type="line"/>
			<point x="156" y="121" type="line"/>
			<point x="251" y="216" type="line"/>
			<point x="334" y="0" type="line"/>
			<point x="445" y="0" type="line"/>
			<point x="328" y="281" type="line"/>
			<point x="526" y="492" type="line"/>
			<point x="403" y="492" type="line"/>
			<point x="188" y="265" type="line"/>
			<point x="185" y="265" type="line"/>
			<point x="229" y="492" type="line"/>
			<point x="119" y="492" type="line"/>
		</contour>
	</outline>
</glyph>
<glyph name="Lslash" format="2">
	<unicode hex="0141"/>
	<advance width="505"/>
	<outline>
		<contour>
			<point x="19" y="204" type="line"/>
			<point x="114" y="242" type="line"/>
			<point x="192" y="276" type="line"/>
			<point x="432" y="374" type="line"/>
			<point x="404" y="446" type="line"/>
			<point x="211" y="368" type="line"/>
			<point x="132" y="334" type="line"/>
			<point x="-8" y="277" type="line"/>
		</contour>
		<component base="L" xOffset="22"/>
	</outline>
</glyph>
<glyph name="lslash" format="2">
	<unicode hex="0142"/>
	<advance width="314"/>
	<outline>
		<contour>
			<point x="34" y="288" type="line"/>
			<point x="126" y="328" type="line"/>
			<point x="228" y="372" type="line"/>
			<point x="374" y="432" type="line"/>
			<point x="348" y="508" type="line"/>
			<point x="246" y="466" type="line"/>
			<point x="144" y="422" type="line"/>
			<point x="6" y="364" type="line"/>
		</contour>
		<component base="l" xOffset="29"/>
	</outline>
	<anchor name="aboveUC" x="245" y="730"/>
	<anchor name="belowLC" x="126" y="-22"/>
</glyph>
<glyph name="Eng" format="2">
	<unicode hex="014A"/>
	<advance width="631"/>
	<outline>
		<contour>
			<point x="355" y="-12" type="curve" smooth="yes"/>
			<point x="505" y="-12"/>
			<point x="609" y="197"/>
			<point x="609" y="431" type="curve" smooth="yes"/>
			<point x="609" y="599"/>
			<point x="536" y="666"/>
			<point x="428" y="666" type="curve" smooth="yes"/>
			<point x="372" y="666"/>
			<point x="308" y="635"/>
			<point x="254" y="587" type="curve"/>
			<point x="268" y="654" type="line"/>
			<point x="162" y="654" type="line"/>
			<point x="31" y="0" type="line"/>
			<point x="142" y="0" type="line"/>
			<point x="239" y="490" type="line"/>
			<point x="290" y="543"/>
			<point x="352" y="570"/>
			<point x="394" y="570" type="curve" smooth="yes"/>
			<point x="456" y="570"/>
			<point x="496" y="531"/>
			<point x="496" y="423" type="curve" smooth="yes"/>
			<point x="496" y="255"/>
			<point x="421" y="84"/>
			<point x="343" y="84" type="curve" smooth="yes"/>
			<point x="328" y="84"/>
			<point x="314" y="86"/>
			<point x="302" y="93" type="curve"/>
			<point x="269" y="8" type="line"/>
			<point x="288" y="-4"/>
			<point x="324" y="-12"/>
		</contour>
	</outline>
	<anchor name="aboveUC" x="431" y="676"/>
	<anchor name="belowLC" x="271" y="-22"/>
</glyph>
<glyph name="eng" format="1">
	<unicode hex="014B"/>
	<advance width="539"/>
	<outline>
		<contour>
			<point x="249" y="-206" type="curve" smooth="yes"/>
			<point x="347" y="-206"/>
			<point x="393" y="-135"/>
			<point x="414" y="-38" type="curve"/>
			<point x="483" y="310" type="line" smooth="yes"/>
			<point x="489" y="336"/>
			<point x="491" y="356"/>
			<point x="491" y="379" type="curve" smooth="yes"/>
			<point x="491" y="458"/>
			<point x="457" y="503"/>
			<point x="375" y="503" type="curve" smooth="yes"/>
			<point x="313" y="503"/>
			<point x="259" y="466"/>
			<point x="208" y="422" type="curve"/>
			<point x="204" y="422" type="line"/>
			<point x="208" y="491" type="line"/>
			<point x="121" y="491" type="line"/>
			<point x="22" y="0" type="line"/>
			<point x="130" y="0" type="line"/>
			<point x="196" y="335" type="line"/>
			<point x="248" y="388"/>
			<point x="286" y="411"/>
			<point x="320" y="411" type="curve" smooth="yes"/>
			<point x="362" y="411"/>
			<point x="382" y="390"/>
			<point x="382" y="348" type="curve" smooth="yes"/>
			<point x="382" y="333"/>
			<point x="378" y="319"/>
			<point x="374" y="296" type="curve" smooth="yes"/>
			<point x="307" y="-36" type="line"/>
			<point x="294" y="-92"/>
			<point x="276" y="-120"/>
			<point x="241" y="-120" type="curve" smooth="yes"/>
			<point x="222" y="-120"/>
			<point x="210" y="-116"/>
			<point x="197" y="-108" type="curve"/>
			<point x="163" y="-186" type="line"/>
			<point x="190" y="-200"/>
			<point x="216" y="-206"/>
		</contour>
		<contour>
			<point name="aboveLC" x="344" y="514" type="move"/>
		</contour>
		<contour>
			<point name="belowLC" x="190" y="-208" type="move"/>
		</contour>
	</outline>
</glyph>
<glyph name="OE" format="2">
	<unicode hex="0152"/>
	<advance width="826"/>
	<outline>
		<contour>
			<point x="342" y="0" type="curve" smooth="yes"/>
			<point x="725" y="0" type="line"/>
			<point x="744" y="93" type="line"/>
			<point x="484" y="93" type="line"/>
			<point x="526" y="295" type="line"/>
			<point x="735" y="295" type="line"/>
			<point x="754" y="388" type="line"/>
			<point x="544" y="388" type="line"/>
			<point x="578" y="561" type="line"/>
			<point x="828" y="561" type="line"/>
			<point x="847" y="654" type="line"/>
			<point x="415" y="654" type="line" smooth="yes"/>
			<point x="201" y="654"/>
			<point x="58" y="505"/>
			<point x="58" y="256" type="curve" smooth="yes"/>
			<point x="58" y="89"/>
			<point x="160" y="0"/>
		</contour>
		<contour>
			<point x="345" y="89" type="line" smooth="yes"/>
			<point x="236" y="89"/>
			<point x="172" y="148"/>
			<point x="172" y="263" type="curve" smooth="yes"/>
			<point x="172" y="456"/>
			<point x="272" y="564"/>
			<point x="417" y="564" type="curve" smooth="yes"/>
			<point x="469" y="564" type="line"/>
			<point x="374" y="89" type="line"/>
		</contour>
	</outline>
	<anchor name="aboveUC" x="580" y="676"/>
</glyph>
<glyph name="oe" format="2">
	<unicode hex="0153"/>
	<advance width="805"/>
	<outline>
		<contour>
			<point x="211" y="-12" type="curve" smooth="yes"/>
			<point x="282" y="-12"/>
			<point x="354" y="32"/>
			<point x="400" y="104" type="curve"/>
			<point x="422" y="26"/>
			<point x="482" y="-12"/>
			<point x="558" y="-12" type="curve" smooth="yes"/>
			<point x="625" y="-12"/>
			<point x="677" y="13"/>
			<point x="714" y="40" type="curve"/>
			<point x="674" y="108" type="line"/>
			<point x="646" y="88"/>
			<point x="612" y="72"/>
			<point x="575" y="72" type="curve" smooth="yes"/>
			<point x="509" y="72"/>
			<point x="458" y="112"/>
			<point x="466" y="214" type="curve"/>
			<point x="752" y="214" type="line"/>
			<point x="760" y="234"/>
			<point x="774" y="278"/>
			<point x="774" y="322" type="curve" smooth="yes"/>
			<point x="774" y="424"/>
			<point x="730" y="503"/>
			<point x="618" y="503" type="curve" smooth="yes"/>
			<point x="554" y="503"/>
			<point x="488" y="462"/>
			<point x="444" y="392" type="curve"/>
			<point x="422" y="464"/>
			<point x="377" y="503"/>
			<point x="298" y="503" type="curve" smooth="yes"/>
			<point x="168" y="503"/>
			<point x="34" y="376"/>
			<point x="34" y="188" type="curve" smooth="yes"/>
			<point x="34" y="66"/>
			<point x="104" y="-12"/>
		</contour>
		<contour>
			<point x="229" y="76" type="curve" smooth="yes"/>
			<point x="172" y="76"/>
			<point x="142" y="118"/>
			<point x="142" y="192" type="curve" smooth="yes"/>
			<point x="142" y="318"/>
			<point x="216" y="416"/>
			<point x="288" y="416" type="curve" smooth="yes"/>
			<point x="344" y="416"/>
			<point x="372" y="374"/>
			<point x="372" y="300" type="curve" smooth="yes"/>
			<point x="372" y="174"/>
			<point x="302" y="76"/>
		</contour>
		<contour>
			<point x="478" y="294" type="line"/>
			<point x="498" y="374"/>
			<point x="552" y="418"/>
			<point x="604" y="418" type="curve" smooth="yes"/>
			<point x="664" y="418"/>
			<point x="684" y="376"/>
			<point x="684" y="330" type="curve" smooth="yes"/>
			<point x="684" y="316"/>
			<point x="682" y="304"/>
			<point x="680" y="294" type="curve"/>
		</contour>
	</outline>
	<anchor name="aboveLC" x="458" y="514"/>
	<anchor name="belowLC" x="384" y="-22"/>
</glyph>
<glyph name="Tbar" format="2">
	<unicode hex="0166"/>
	<advance width="521"/>
	<outline>
		<contour>
			<point x="94" y="286" type="line"/>
			<point x="442" y="286" type="line"/>
			<point x="456" y="362" type="line"/>
			<point x="197" y="362" type="line"/>
			<point x="108" y="357" type="line"/>
		</contour>
		<component base="T"/>
	</outline>
	<anchor name="aboveUC" x="342" y="676"/>
	<anchor name="belowLC" x="208" y="-22"/>
</glyph>
<glyph name="tbar" format="1">
	<unicode hex="0167"/>
	<advance width="346"/>
	<outline>
		<contour>
			<point x="16" y="224" type="line"/>
			<point x="310" y="224" type="line"/>
			<point x="323" y="292" type="line"/>
			<point x="115" y="292" type="line"/>
			<point x="29" y="287" type="line"/>
		</contour>
		<component base="t"/>
		<contour>
			<point name="aboveLC" x="236" y="652" type="move"/>
		</contour>
		<contour>
			<point name="baseLC" x="174" y="0" type="move"/>
		</contour>
		<contour>
			<point name="belowLC" x="168" y="-22" type="move"/>
		</contour>
	</outline>
</glyph>
<glyph name="Uogonek" format="2">
	<unicode hex="0172"/>
	<advance width="631"/>
	<outline>
		<contour>
			<point x="229" y="-223" type="curve" smooth="yes"/>
			<point x="268" y="-223"/>
			<point x="307" y="-210"/>
			<point x="336" y="-188" type="curve"/>
			<point x="313" y="-130" type="line"/>
			<point x="298" y="-140"/>
			<point x="287" y="-142"/>
			<point x="274" y="-142" type="curve" smooth="yes"/>
			<point x="253" y="-142"/>
			<point x="235" y="-129"/>
			<point x="235" y="-106" type="curve" smooth="yes"/>
			<point x="235" y="-72"/>
			<point x="270" y="-26"/>
			<point x="347" y="-9" type="curve" smooth="yes"/>
			<point x="461" y="16"/>
			<point x="521" y="96"/>
			<point x="555" y="265" type="curve" smooth="yes"/>
			<point x="633" y="654" type="line"/>
			<point x="525" y="654" type="line"/>
			<point x="447" y="265" type="line" smooth="yes"/>
			<point x="419" y="124"/>
			<point x="371" y="84"/>
			<point x="302" y="84" type="curve" smooth="yes"/>
			<point x="221" y="84"/>
			<point x="188" y="129"/>
			<point x="188" y="212" type="curve" smooth="yes"/>
			<point x="188" y="236"/>
			<point x="191" y="260"/>
			<point x="197" y="289" type="curve" smooth="yes"/>
			<point x="270" y="654" type="line"/>
			<point x="159" y="654" type="line"/>
			<point x="89" y="305" type="line" smooth="yes"/>
			<point x="83" y="272"/>
			<point x="77" y="235"/>
			<point x="77" y="206" type="curve" smooth="yes"/>
			<point x="77" y="60"/>
			<point x="153" y="-12"/>
			<point x="298" y="-12" type="curve"/>
			<point x="248" y="0" type="line"/>
			<point x="191" y="-28"/>
			<point x="134" y="-86"/>
			<point x="134" y="-144" type="curve" smooth="yes"/>
			<point x="134" y="-194"/>
			<point x="175" y="-223"/>
		</contour>
	</outline>
	<anchor name="aboveUC" x="405" y="676"/>
</glyph>
<glyph name="uogonek" format="2">
	<unicode hex="0173"/>
	<advance width="534"/>
	<outline>
		<contour>
			<point x="308" y="-208" type="curve" smooth="yes"/>
			<point x="336" y="-208"/>
			<point x="373" y="-195"/>
			<point x="399" y="-177" type="curve"/>
			<point x="379" y="-129" type="line"/>
			<point x="367" y="-136"/>
			<point x="357" y="-140"/>
			<point x="344" y="-140" type="curve" smooth="yes"/>
			<point x="325" y="-140"/>
			<point x="309" y="-128"/>
			<point x="309" y="-107" type="curve" smooth="yes"/>
			<point x="309" y="-64"/>
			<point x="350" y="-25"/>
			<point x="417" y="0" type="curve"/>
			<point x="514" y="492" type="line"/>
			<point x="404" y="492" type="line"/>
			<point x="338" y="157" type="line"/>
			<point x="290" y="106"/>
			<point x="252" y="82"/>
			<point x="219" y="82" type="curve" smooth="yes"/>
			<point x="179" y="82"/>
			<point x="159" y="103"/>
			<point x="159" y="144" type="curve" smooth="yes"/>
			<point x="159" y="159"/>
			<point x="162" y="173"/>
			<point x="167" y="196" type="curve" smooth="yes"/>
			<point x="226" y="492" type="line"/>
			<point x="116" y="492" type="line"/>
			<point x="54" y="182" type="line" smooth="yes"/>
			<point x="49" y="156"/>
			<point x="46" y="135"/>
			<point x="46" y="113" type="curve" smooth="yes"/>
			<point x="46" y="34"/>
			<point x="81" y="-12"/>
			<point x="163" y="-12" type="curve" smooth="yes"/>
			<point x="222" y="-12"/>
			<point x="279" y="26"/>
			<point x="327" y="70" type="curve"/>
			<point x="331" y="70" type="line"/>
			<point x="328" y="4" type="line"/>
			<point x="286" y="-22"/>
			<point x="227" y="-75"/>
			<point x="227" y="-138" type="curve" smooth="yes"/>
			<point x="227" y="-184"/>
			<point x="261" y="-208"/>
		</contour>
	</outline>
	<anchor name="aboveLC" x="316" y="514"/>
</glyph>
<glyph name="longs" format="1">
	<unicode hex="017F"/>
	<advance width="305"/>
	<outline>
		<contour>
			<point x="40" y="0" type="line"/>
			<point x="147" y="0" type="line"/>
			<point x="257" y="551" type="line" smooth="yes"/>
			<point x="268" y="607"/>
			<point x="293" y="632"/>
			<point x="333" y="632" type="curve" smooth="yes"/>
			<point x="353" y="632"/>
			<point x="372" y="624"/>
			<point x="384" y="617" type="curve"/>
			<point x="420" y="693" type="line"/>
			<point x="392" y="708"/>
			<point x="360" y="718"/>
			<point x="323" y="718" type="curve" smooth="yes"/>
			<point x="226" y="718"/>
			<point x="171" y="650"/>
			<point x="150" y="548" type="curve" smooth="yes"/>
		</contour>
		<contour>
			<point x="58" y="406" type="line"/>
			<point x="177" y="406" type="line"/>
			<point x="194" y="491" type="line"/>
			<point x="140" y="491" type="line"/>
			<point x="74" y="486" type="line"/>
		</contour>
		<contour>
			<point name="aboveUC" x="310" y="724" type="move"/>
		</contour>
		<contour>
			<point name="belowLC" x="96" y="-22" type="move"/>
		</contour>
	</outline>
</glyph>
<glyph name="bstroke" format="2">
	<unicode hex="0180"/>
	<advance width="534"/>
	<outline>
		<contour>
			<point x="246" y="-12" type="curve" smooth="yes"/>
			<point x="379" y="-12"/>
			<point x="503" y="121"/>
			<point x="503" y="288" type="curve" smooth="yes"/>
			<point x="503" y="401"/>
			<point x="450" y="464"/>
			<point x="363" y="464" type="curve" smooth="yes"/>
			<point x="309" y="464"/>
			<point x="255" y="436"/>
			<point x="210" y="399" type="curve"/>
			<point x="208" y="399" type="line"/>
			<point x="231" y="493" type="line"/>
			<point x="273" y="706" type="line"/>
			<point x="163" y="706" type="line"/>
			<point x="22" y="0" type="line"/>
			<point x="113" y="0" type="line"/>
			<point x="133" y="57" type="line"/>
			<point x="136" y="57" type="line"/>
			<point x="157" y="15"/>
			<point x="198" y="-12"/>
		</contour>
		<contour>
			<point x="239" y="79" type="curve" smooth="yes"/>
			<point x="209" y="79"/>
			<point x="180" y="96"/>
			<point x="159" y="137" type="curve"/>
			<point x="194" y="304" type="line"/>
			<point x="231" y="351"/>
			<point x="280" y="373"/>
			<point x="318" y="373" type="curve" smooth="yes"/>
			<point x="361" y="373"/>
			<point x="389" y="341"/>
			<point x="389" y="273" type="curve" smooth="yes"/>
			<point x="389" y="169"/>
			<point x="318" y="79"/>
		</contour>
		<contour>
			<point x="62" y="542" type="line"/>
			<point x="410" y="542" type="line"/>
			<point x="426" y="624" type="line"/>
			<point x="150" y="624" type="line"/>
			<point x="76" y="618" type="line"/>
		</contour>
	</outline>
</glyph>
<glyph name="Bhook" format="2">
	<unicode hex="0181"/>
	<advance width="728"/>
	<outline>
		<contour>
			<point x="200" y="0" type="line"/>
			<point x="402" y="0" type="line" smooth="yes"/>
			<point x="556" y="0"/>
			<point x="679" y="62"/>
			<point x="679" y="212" type="curve" smooth="yes"/>
			<point x="679" y="282"/>
			<point x="632" y="323"/>
			<point x="562" y="340" type="curve"/>
			<point x="562" y="344" type="line"/>
			<point x="642" y="364"/>
			<point x="708" y="425"/>
			<point x="708" y="507" type="curve" smooth="yes"/>
			<point x="708" y="607"/>
			<point x="631" y="666"/>
			<point x="435" y="666" type="curve" smooth="yes"/>
			<point x="161" y="666"/>
			<point x="51" y="520"/>
			<point x="51" y="376" type="curve" smooth="yes"/>
			<point x="51" y="314"/>
			<point x="84" y="263"/>
			<point x="138" y="234" type="curve"/>
			<point x="195" y="309" type="line"/>
			<point x="164" y="328"/>
			<point x="148" y="351"/>
			<point x="148" y="391" type="curve" smooth="yes"/>
			<point x="148" y="469"/>
			<point x="218" y="578"/>
			<point x="382" y="578" type="curve" smooth="yes"/>
			<point x="457" y="578" type="line" smooth="yes"/>
			<point x="554" y="578"/>
			<point x="597" y="544"/>
			<point x="597" y="490" type="curve" smooth="yes"/>
			<point x="597" y="424"/>
			<point x="549" y="380"/>
			<point x="441" y="380" type="curve" smooth="yes"/>
			<point x="383" y="380" type="line"/>
			<point x="429" y="606" type="line"/>
			<point x="321" y="606" type="line"/>
		</contour>
		<contour>
			<point x="324" y="84" type="line"/>
			<point x="368" y="304" type="line"/>
			<point x="447" y="304" type="line" smooth="yes"/>
			<point x="530" y="304"/>
			<point x="574" y="270"/>
			<point x="574" y="207" type="curve" smooth="yes"/>
			<point x="574" y="123"/>
			<point x="510" y="84"/>
			<point x="402" y="84" type="curve" smooth="yes"/>
		</contour>
	</outline>
	<anchor name="aboveUC" x="498" y="676"/>
	<anchor name="belowLC" x="416" y="-22"/>
</glyph>
<glyph name="Dhook" format="1">
	<unicode hex="018A"/>
	<advance width="762"/>
	<outline>
		<contour>
			<point x="200" y="0" type="line"/>
			<point x="372" y="0" type="line" smooth="yes"/>
			<point x="582" y="0"/>
			<point x="728" y="150"/>
			<point x="728" y="408" type="curve" smooth="yes"/>
			<point x="728" y="568"/>
			<point x="636" y="666"/>
			<point x="435" y="666" type="curve" smooth="yes"/>
			<point x="161" y="666"/>
			<point x="51" y="520"/>
			<point x="51" y="376" type="curve" smooth="yes"/>
			<point x="51" y="314"/>
			<point x="83" y="262"/>
			<point x="136" y="234" type="curve"/>
			<point x="196" y="310" type="line"/>
			<point x="164" y="330"/>
			<point x="148" y="354"/>
			<point x="148" y="391" type="curve" smooth="yes"/>
			<point x="148" y="472"/>
			<point x="218" y="578"/>
			<point x="383" y="578" type="curve" smooth="yes"/>
			<point x="436" y="578" type="line" smooth="yes"/>
			<point x="558" y="578"/>
			<point x="618" y="520"/>
			<point x="618" y="401" type="curve" smooth="yes"/>
			<point x="618" y="198"/>
			<point x="513" y="87"/>
			<point x="369" y="87" type="curve" smooth="yes"/>
			<point x="325" y="87" type="line"/>
			<point x="429" y="606" type="line"/>
			<point x="321" y="606" type="line"/>
		</contour>
		<contour>
			<point name="aboveUC" x="511" y="675" type="move"/>
		</contour>
		<contour>
			<point name="belowLC" x="391" y="-21" type="move"/>
		</contour>
	</outline>
</glyph>
<glyph name="Eturned" format="2">
	<unicode hex="018E"/>
	<advance width="515"/>
	<outline>
		<contour>
			<point x="-2" y="0" type="line"/>
			<point x="383" y="0" type="line"/>
			<point x="514" y="654" type="line"/>
			<point x="138" y="654" type="line"/>
			<point x="119" y="561" type="line"/>
			<point x="385" y="561" type="line"/>
			<point x="350" y="388" type="line"/>
			<point x="124" y="388" type="line"/>
			<point x="107" y="295" type="line"/>
			<point x="332" y="295" type="line"/>
			<point x="292" y="93" type="line"/>
			<point x="17" y="93" type="line"/>
		</contour>
	</outline>
	<anchor name="aboveUC" x="331" y="676"/>
	<anchor name="belowLC" x="205" y="-22"/>
	<anchor name="ogonekUC" x="209" y="0"/>
</glyph>
<glyph name="Schwa" format="2">
	<unicode hex="018F"/>
	<advance width="652"/>
	<outline>
		<contour>
			<point x="290" y="-12" type="curve" smooth="yes"/>
			<point x="486" y="-12"/>
			<point x="628" y="158"/>
			<point x="628" y="391" type="curve" smooth="yes"/>
			<point x="628" y="562"/>
			<point x="539" y="666"/>
			<point x="391" y="666" type="curve" smooth="yes"/>
			<point x="297" y="666"/>
			<point x="222" y="629"/>
			<point x="162" y="578" type="curve"/>
			<point x="211" y="508" type="line"/>
			<point x="255" y="545"/>
			<point x="314" y="576"/>
			<point x="378" y="576" type="curve" smooth="yes"/>
			<point x="483" y="576"/>
			<point x="522" y="502"/>
			<point x="522" y="382" type="curve" smooth="yes"/>
			<point x="522" y="206"/>
			<point x="428" y="78"/>
			<point x="298" y="78" type="curve" smooth="yes"/>
			<point x="206" y="78"/>
			<point x="150" y="151"/>
			<point x="167" y="274" type="curve"/>
			<point x="528" y="274" type="line"/>
			<point x="545" y="354" type="line"/>
			<point x="83" y="354" type="line"/>
			<point x="70" y="313"/>
			<point x="64" y="281"/>
			<point x="64" y="234" type="curve" smooth="yes"/>
			<point x="64" y="87"/>
			<point x="151" y="-12"/>
		</contour>
	</outline>
	<anchor name="aboveUC" x="442" y="676"/>
	<anchor name="belowLC" x="308" y="-22"/>
</glyph>
<glyph name="Eopen" format="2">
	<unicode hex="0190"/>
	<advance width="536"/>
	<outline>
		<contour>
			<point x="245" y="-12" type="curve" smooth="yes"/>
			<point x="349" y="-12"/>
			<point x="420" y="24"/>
			<point x="478" y="77" type="curve"/>
			<point x="432" y="144" type="line"/>
			<point x="385" y="105"/>
			<point x="329" y="80"/>
			<point x="261" y="80" type="curve" smooth="yes"/>
			<point x="188" y="80"/>
			<point x="144" y="115"/>
			<point x="144" y="175" type="curve" smooth="yes"/>
			<point x="144" y="244"/>
			<point x="215" y="302"/>
			<point x="314" y="302" type="curve" smooth="yes"/>
			<point x="389" y="302" type="line"/>
			<point x="404" y="381" type="line"/>
			<point x="347" y="381" type="line" smooth="yes"/>
			<point x="261" y="381"/>
			<point x="230" y="419"/>
			<point x="230" y="467" type="curve" smooth="yes"/>
			<point x="230" y="531"/>
			<point x="290" y="574"/>
			<point x="360" y="574" type="curve" smooth="yes"/>
			<point x="415" y="574"/>
			<point x="456" y="554"/>
			<point x="486" y="513" type="curve"/>
			<point x="545" y="571" type="line"/>
			<point x="512" y="629"/>
			<point x="440" y="666"/>
			<point x="361" y="666" type="curve" smooth="yes"/>
			<point x="223" y="666"/>
			<point x="124" y="580"/>
			<point x="124" y="475" type="curve" smooth="yes"/>
			<point x="124" y="414"/>
			<point x="160" y="369"/>
			<point x="209" y="348" type="curve"/>
			<point x="209" y="344" type="line"/>
			<point x="116" y="322"/>
			<point x="28" y="249"/>
			<point x="28" y="149" type="curve" smooth="yes"/>
			<point x="28" y="51"/>
			<point x="110" y="-12"/>
		</contour>
	</outline>
	<anchor name="aboveUC" x="368" y="676"/>
	<anchor name="baseLC" x="240" y="0"/>
	<anchor name="belowLC" x="236" y="-22"/>
	<anchor name="ogonekUC" x="240" y="0"/>
</glyph>
<glyph name="florin" format="2">
	<unicode hex="0192"/>
	<advance width="307"/>
	<outline>
		<contour>
			<point x="-25" y="-205" type="curve" smooth="yes"/>
			<point x="74" y="-205"/>
			<point x="123" y="-132"/>
			<point x="142" y="-37" type="curve" smooth="yes"/>
			<point x="229" y="405" type="line"/>
			<point x="322" y="405" type="line"/>
			<point x="340" y="492" type="line"/>
			<point x="248" y="492" type="line"/>
			<point x="259" y="550" type="line" smooth="yes"/>
			<point x="270" y="605"/>
			<point x="295" y="630"/>
			<point x="333" y="630" type="curve" smooth="yes"/>
			<point x="354" y="630"/>
			<point x="374" y="624"/>
			<point x="386" y="616" type="curve"/>
			<point x="422" y="692" type="line"/>
			<point x="394" y="708"/>
			<point x="361" y="718"/>
			<point x="324" y="718" type="curve" smooth="yes"/>
			<point x="225" y="718"/>
			<point x="169" y="646"/>
			<point x="149" y="546" type="curve" smooth="yes"/>
			<point x="139" y="492" type="line"/>
			<point x="74" y="486" type="line"/>
			<point x="57" y="405" type="line"/>
			<point x="121" y="405" type="line"/>
			<point x="32" y="-33" type="line" smooth="yes"/>
			<point x="20" y="-89"/>
			<point x="2" y="-117"/>
			<point x="-34" y="-117" type="curve" smooth="yes"/>
			<point x="-50" y="-117"/>
			<point x="-65" y="-114"/>
			<point x="-79" y="-107" type="curve"/>
			<point x="-109" y="-185" type="line"/>
			<point x="-84" y="-200"/>
			<point x="-56" y="-205"/>
		</contour>
	</outline>
	<anchor name="aboveUC" x="311" y="724"/>
	<anchor name="belowLC" x="-9" y="-200"/>
</glyph>
<glyph name="Ghook" format="2">
	<unicode hex="0193"/>
	<advance width="600"/>
	<outline>
		<contour>
			<point x="490" y="577" type="curve"/>
			<point x="580" y="572" type="line"/>
			<point x="568" y="602"/>
			<point x="563" y="626"/>
			<point x="563" y="651" type="curve" smooth="yes"/>
			<point x="563" y="698"/>
			<point x="583" y="723"/>
			<point x="618" y="723" type="curve" smooth="yes"/>
			<point x="633" y="723"/>
			<point x="641" y="720"/>
			<point x="653" y="712" type="curve"/>
			<point x="688" y="786" type="line"/>
			<point x="667" y="799"/>
			<point x="638" y="808"/>
			<point x="606" y="808" type="curve" smooth="yes"/>
			<point x="527" y="808"/>
			<point x="477" y="749"/>
			<point x="477" y="678" type="curve" smooth="yes"/>
			<point x="477" y="653"/>
			<point x="481" y="613"/>
		</contour>
		<component base="G"/>
	</outline>
	<anchor name="aboveUC" x="326" y="676"/>
	<anchor name="belowLC" x="288" y="-22"/>
</glyph>
<glyph name="Istroke" format="2">
	<unicode hex="0197"/>
	<advance width="306"/>
	<outline>
		<contour>
			<point x="37" y="304" type="line"/>
			<point x="290" y="304" type="line"/>
			<point x="305" y="378" type="line"/>
			<point x="137" y="378" type="line"/>
			<point x="52" y="373" type="line"/>
		</contour>
		<component base="I" xOffset="15"/>
	</outline>
	<anchor name="aboveUC" x="239" y="676"/>
	<anchor name="belowLC" x="105" y="-22"/>
</glyph>
<glyph name="lambdastroke" format="2">
	<unicode hex="019B"/>
	<advance width="476"/>
	<outline>
		<contour>
			<point x="118" y="440" type="line"/>
			<point x="482" y="588" type="line"/>
			<point x="452" y="662" type="line"/>
			<point x="88" y="514" type="line"/>
		</contour>
		<component base="lambda.latin"/>
	</outline>
</glyph>
<glyph name="nlong" format="2">
	<unicode hex="019E"/>
	<advance width="539"/>
	<outline>
		<contour>
			<point x="275" y="-194" type="line"/>
			<point x="382" y="-194" type="line"/>
			<point x="483" y="310" type="line" smooth="yes"/>
			<point x="489" y="336"/>
			<point x="491" y="356"/>
			<point x="491" y="379" type="curve" smooth="yes"/>
			<point x="491" y="458"/>
			<point x="457" y="503"/>
			<point x="375" y="503" type="curve" smooth="yes"/>
			<point x="313" y="503"/>
			<point x="258" y="466"/>
			<point x="208" y="422" type="curve"/>
			<point x="204" y="422" type="line"/>
			<point x="208" y="491" type="line"/>
			<point x="121" y="491" type="line"/>
			<point x="22" y="0" type="line"/>
			<point x="130" y="0" type="line"/>
			<point x="196" y="335" type="line"/>
			<point x="248" y="388"/>
			<point x="286" y="411"/>
			<point x="320" y="411" type="curve" smooth="yes"/>
			<point x="362" y="411"/>
			<point x="382" y="390"/>
			<point x="382" y="348" type="curve" smooth="yes"/>
			<point x="382" y="333"/>
			<point x="378" y="319"/>
			<point x="374" y="296" type="curve" smooth="yes"/>
		</contour>
	</outline>
	<anchor name="aboveLC" x="332" y="514"/>
	<anchor name="belowLC" x="176" y="-198"/>
</glyph>
<glyph name="Ohorn" format="2">
	<unicode hex="01A0"/>
	<advance width="648"/>
	<outline>
		<contour>
			<point x="549" y="595" type="line"/>
			<point x="629" y="609"/>
			<point x="681" y="661"/>
			<point x="681" y="737" type="curve" smooth="yes"/>
			<point x="681" y="758"/>
			<point x="676" y="779"/>
			<point x="666" y="802" type="curve"/>
			<point x="582" y="775" type="line"/>
			<point x="588" y="759"/>
			<point x="592" y="744"/>
			<point x="592" y="730" type="curve" smooth="yes"/>
			<point x="592" y="682"/>
			<point x="559" y="642"/>
			<point x="497" y="637" type="curve"/>
		</contour>
		<component base="O"/>
	</outline>
	<anchor name="aboveUC" x="408" y="676"/>
	<anchor name="belowLC" x="282" y="-22"/>
</glyph>
<glyph name="ohorn" format="2">
	<unicode hex="01A1"/>
	<advance width="529"/>
	<outline>
		<contour>
			<point x="440" y="438" type="line"/>
			<point x="518" y="454"/>
			<point x="572" y="512"/>
			<point x="572" y="593" type="curve" smooth="yes"/>
			<point x="572" y="613"/>
			<point x="567" y="639"/>
			<point x="559" y="660" type="curve"/>
			<point x="475" y="632" type="line"/>
			<point x="480" y="619"/>
			<point x="484" y="598"/>
			<point x="484" y="586" type="curve" smooth="yes"/>
			<point x="482" y="530"/>
			<point x="446" y="487"/>
			<point x="391" y="480" type="curve"/>
		</contour>
		<component base="o"/>
	</outline>
	<anchor name="aboveLC" x="313" y="514"/>
	<anchor name="belowLC" x="195" y="-22"/>
</glyph>
<glyph name="Uhorn" format="2">
	<unicode hex="01AF"/>
	<advance width="650"/>
	<outline>
		<contour>
			<point x="619" y="609" type="line"/>
			<point x="709" y="624"/>
			<point x="763" y="667"/>
			<point x="763" y="743" type="curve" smooth="yes"/>
			<point x="763" y="764"/>
			<point x="759" y="785"/>
			<point x="749" y="808" type="curve"/>
			<point x="664" y="781" type="line"/>
			<point x="671" y="765"/>
			<point x="674" y="750"/>
			<point x="674" y="736" type="curve" smooth="yes"/>
			<point x="674" y="688"/>
			<point x="640" y="658"/>
			<point x="578" y="653" type="curve"/>
		</contour>
		<component base="U"/>
	</outline>
	<anchor name="aboveUC" x="405" y="676"/>
	<anchor name="belowLC" x="271" y="-22"/>
</glyph>
<glyph name="uhorn" format="2">
	<unicode hex="01B0"/>
	<advance width="556"/>
	<outline>
		<contour>
			<point x="497" y="448" type="line"/>
			<point x="568" y="464"/>
			<point x="622" y="517"/>
			<point x="622" y="599" type="curve" smooth="yes"/>
			<point x="622" y="619"/>
			<point x="618" y="645"/>
			<point x="609" y="666" type="curve"/>
			<point x="526" y="638" type="line"/>
			<point x="531" y="625"/>
			<point x="534" y="604"/>
			<point x="534" y="592" type="curve" smooth="yes"/>
			<point x="533" y="535"/>
			<point x="497" y="497"/>
			<point x="450" y="492" type="curve"/>
		</contour>
		<component base="u"/>
	</outline>
	<anchor name="aboveLC" x="316" y="514"/>
	<anchor name="belowLC" x="232" y="-27"/>
</glyph>
<glyph name="Ezh" format="2">
	<unicode hex="01B7"/>
	<advance width="536"/>
	<outline>
		<contour>
			<point x="224" y="-12" type="curve" smooth="yes"/>
			<point x="385" y="-12"/>
			<point x="493" y="77"/>
			<point x="493" y="219" type="curve" smooth="yes"/>
			<point x="493" y="316"/>
			<point x="433" y="373"/>
			<point x="328" y="377" type="curve"/>
			<point x="541" y="589" type="line"/>
			<point x="554" y="654" type="line"/>
			<point x="147" y="654" type="line"/>
			<point x="129" y="563" type="line"/>
			<point x="396" y="563" type="line"/>
			<point x="173" y="354" type="line"/>
			<point x="205" y="292" type="line"/>
			<point x="233" y="302"/>
			<point x="248" y="305"/>
			<point x="284" y="305" type="curve" smooth="yes"/>
			<point x="341" y="305"/>
			<point x="382" y="272"/>
			<point x="382" y="204" type="curve" smooth="yes"/>
			<point x="382" y="130"/>
			<point x="316" y="81"/>
			<point x="230" y="81" type="curve" smooth="yes"/>
			<point x="168" y="81"/>
			<point x="110" y="101"/>
			<point x="65" y="149" type="curve"/>
			<point x="13" y="80" type="line"/>
			<point x="64" y="15"/>
			<point x="145" y="-12"/>
		</contour>
	</outline>
	<anchor name="aboveUC" x="340" y="676"/>
	<anchor name="belowLC" x="238" y="-22"/>
</glyph>
<glyph name="wynn" format="2">
	<unicode hex="01BF"/>
	<advance width="539"/>
	<outline>
		<contour>
			<point x="-17" y="-194" type="line"/>
			<point x="90" y="-194" type="line"/>
			<point x="110" y="-90" type="line"/>
			<point x="123" y="-12" type="line"/>
			<point x="365" y="52"/>
			<point x="510" y="208"/>
			<point x="510" y="369" type="curve" smooth="yes"/>
			<point x="510" y="452"/>
			<point x="460" y="503"/>
			<point x="376" y="503" type="curve" smooth="yes"/>
			<point x="318" y="503"/>
			<point x="265" y="475"/>
			<point x="205" y="412" type="curve"/>
			<point x="202" y="412" type="line"/>
			<point x="208" y="491" type="line"/>
			<point x="121" y="491" type="line"/>
		</contour>
		<contour>
			<point x="145" y="77" type="curve"/>
			<point x="194" y="324" type="line"/>
			<point x="246" y="392"/>
			<point x="291" y="415"/>
			<point x="335" y="415" type="curve" smooth="yes"/>
			<point x="376" y="415"/>
			<point x="399" y="387"/>
			<point x="399" y="342" type="curve" smooth="yes"/>
			<point x="399" y="241"/>
			<point x="298" y="126"/>
		</contour>
	</outline>
	<anchor name="aboveLC" x="338" y="514"/>
	<anchor name="belowLC" x="44" y="-198"/>
</glyph>
<glyph name="clickalveolar" format="1">
	<unicode hex="01C2"/>
	<advance width="326"/>
	<outline>
		<contour>
			<point x="-23" y="147" type="line"/>
			<point x="303" y="147" type="line"/>
			<point x="317" y="218" type="line"/>
			<point x="65" y="218" type="line"/>
			<point x="-11" y="212" type="line"/>
		</contour>
		<contour>
			<point x="11" y="320" type="line"/>
			<point x="337" y="320" type="line"/>
			<point x="351" y="390" type="line"/>
			<point x="100" y="390" type="line"/>
			<point x="23" y="385" type="line"/>
		</contour>
		<contour>
			<point x="21" y="-194" type="line"/>
			<point x="128" y="-194" type="line"/>
			<point x="309" y="706" type="line"/>
			<point x="202" y="706" type="line"/>
		</contour>
		<contour>
			<point name="aboveUC" x="254" y="724" type="move"/>
		</contour>
		<contour>
			<point name="belowLC" x="76" y="-206" type="move"/>
		</contour>
	</outline>
</glyph>
<glyph name="clickretroflex" format="2">
	<unicode hex="01C3"/>
	<advance width="284"/>
	<outline>
		<contour>
			<point x="101" y="212" type="line"/>
			<point x="173" y="212" type="line"/>
			<point x="257" y="561" type="line"/>
			<point x="289" y="706" type="line"/>
			<point x="180" y="706" type="line"/>
			<point x="157" y="561" type="line"/>
		</contour>
		<contour>
			<point x="96" y="-12" type="curve" smooth="yes"/>
			<point x="144" y="-12"/>
			<point x="178" y="30"/>
			<point x="178" y="73" type="curve" smooth="yes"/>
			<point x="178" y="109"/>
			<point x="155" y="136"/>
			<point x="119" y="136" type="curve" smooth="yes"/>
			<point x="71" y="136"/>
			<point x="36" y="92"/>
			<point x="36" y="50" type="curve" smooth="yes"/>
			<point x="36" y="14"/>
			<point x="60" y="-12"/>
		</contour>
	</outline>
	<anchor name="aboveUC" x="242" y="726"/>
	<anchor name="belowLC" x="94" y="-22"/>
</glyph>
<glyph name="gstroke" format="2">
	<unicode hex="01E5"/>
	<advance width="561"/>
	<outline>
		<contour>
			<point x="250" y="226" type="line"/>
			<point x="548" y="226" type="line"/>
			<point x="564" y="306" type="line"/>
			<point x="374" y="306" type="line"/>
			<point x="266" y="300" type="line"/>
		</contour>
		<component base="g"/>
	</outline>
	<anchor name="aboveLC" x="310" y="514"/>
	<anchor name="belowLC" x="188" y="-210"/>
</glyph>
<glyph name="Oogonek" format="2">
	<unicode hex="01EA"/>
	<advance width="648"/>
	<outline>
		<contour>
			<point x="237" y="-223" type="curve" smooth="yes"/>
			<point x="275" y="-223"/>
			<point x="315" y="-210"/>
			<point x="344" y="-188" type="curve"/>
			<point x="321" y="-130" type="line"/>
			<point x="307" y="-139"/>
			<point x="296" y="-142"/>
			<point x="282" y="-142" type="curve" smooth="yes"/>
			<point x="260" y="-142"/>
			<point x="243" y="-129"/>
			<point x="243" y="-106" type="curve" smooth="yes"/>
			<point x="243" y="-74"/>
			<point x="272" y="-20"/>
			<point x="341" y="-8" type="curve" smooth="yes"/>
			<point x="519" y="25"/>
			<point x="621" y="210"/>
			<point x="621" y="391" type="curve" smooth="yes"/>
			<point x="621" y="560"/>
			<point x="532" y="666"/>
			<point x="384" y="666" type="curve" smooth="yes"/>
			<point x="203" y="666"/>
			<point x="58" y="480"/>
			<point x="58" y="263" type="curve" smooth="yes"/>
			<point x="58" y="93"/>
			<point x="147" y="-12"/>
			<point x="295" y="-12" type="curve"/>
			<point x="247" y="1" type="line"/>
			<point x="203" y="-24"/>
			<point x="142" y="-83"/>
			<point x="142" y="-144" type="curve" smooth="yes"/>
			<point x="142" y="-195"/>
			<point x="182" y="-223"/>
		</contour>
		<contour>
			<point x="301" y="84" type="curve" smooth="yes"/>
			<point x="214" y="84"/>
			<point x="172" y="157"/>
			<point x="172" y="271" type="curve" smooth="yes"/>
			<point x="172" y="423"/>
			<point x="265" y="570"/>
			<point x="379" y="570" type="curve" smooth="yes"/>
			<point x="465" y="570"/>
			<point x="508" y="497"/>
			<point x="508" y="383" type="curve" smooth="yes"/>
			<point x="508" y="231"/>
			<point x="415" y="84"/>
		</contour>
	</outline>
	<anchor name="aboveUC" x="402" y="676"/>
</glyph>
<glyph name="oogonek" format="2">
	<unicode hex="01EB"/>
	<advance width="524"/>
	<outline>
		<contour>
			<point x="175" y="-217" type="curve" smooth="yes"/>
			<point x="216" y="-217"/>
			<point x="251" y="-203"/>
			<point x="279" y="-181" type="curve"/>
			<point x="256" y="-130" type="line"/>
			<point x="243" y="-139"/>
			<point x="233" y="-144"/>
			<point x="216" y="-144" type="curve" smooth="yes"/>
			<point x="195" y="-144"/>
			<point x="180" y="-131"/>
			<point x="180" y="-108" type="curve" smooth="yes"/>
			<point x="180" y="-73"/>
			<point x="205" y="-27"/>
			<point x="272" y="-6" type="curve" smooth="yes"/>
			<point x="409" y="36"/>
			<point x="489" y="158"/>
			<point x="489" y="303" type="curve" smooth="yes"/>
			<point x="489" y="431"/>
			<point x="411" y="504"/>
			<point x="305" y="504" type="curve" smooth="yes"/>
			<point x="170" y="504"/>
			<point x="34" y="376"/>
			<point x="34" y="188" type="curve" smooth="yes"/>
			<point x="34" y="66"/>
			<point x="107" y="-12"/>
			<point x="218" y="-12" type="curve"/>
			<point x="199" y="1" type="line"/>
			<point x="142" y="-26"/>
			<point x="89" y="-82"/>
			<point x="89" y="-139" type="curve" smooth="yes"/>
			<point x="89" y="-190"/>
			<point x="125" y="-217"/>
		</contour>
		<contour>
			<point x="230" y="77" type="curve" smooth="yes"/>
			<point x="174" y="77"/>
			<point x="145" y="119"/>
			<point x="145" y="192" type="curve" smooth="yes"/>
			<point x="145" y="317"/>
			<point x="216" y="414"/>
			<point x="293" y="414" type="curve" smooth="yes"/>
			<point x="348" y="414"/>
			<point x="378" y="372"/>
			<point x="378" y="300" type="curve" smooth="yes"/>
			<point x="378" y="175"/>
			<point x="307" y="77"/>
		</contour>
	</outline>
	<anchor name="aboveLC" x="319" y="514"/>
</glyph>
<glyph name="Wynn" format="2">
	<unicode hex="01F7"/>
	<advance width="567"/>
	<outline>
		<contour>
			<point x="0" y="-162" type="line"/>
			<point x="107" y="-162" type="line"/>
			<point x="140" y="-2" type="line"/>
			<point x="456" y="143"/>
			<point x="573" y="348"/>
			<point x="573" y="517" type="curve" smooth="yes"/>
			<point x="573" y="622"/>
			<point x="522" y="666"/>
			<point x="439" y="666" type="curve" smooth="yes"/>
			<point x="373" y="666"/>
			<point x="311" y="631"/>
			<point x="251" y="579" type="curve"/>
			<point x="264" y="654" type="line"/>
			<point x="162" y="654" type="line"/>
		</contour>
		<contour>
			<point x="159" y="100" type="curve"/>
			<point x="235" y="476" type="line"/>
			<point x="293" y="540"/>
			<point x="354" y="573"/>
			<point x="396" y="573" type="curve" smooth="yes"/>
			<point x="436" y="573"/>
			<point x="466" y="548"/>
			<point x="466" y="483" type="curve" smooth="yes"/>
			<point x="466" y="373"/>
			<point x="380" y="220"/>
		</contour>
	</outline>
	<anchor name="aboveUC" x="394" y="676"/>
	<anchor name="belowLC" x="64" y="-166"/>
</glyph>
<glyph name="Yogh" format="2">
	<unicode hex="021C"/>
	<advance width="485"/>
	<outline>
		<contour>
			<point x="18" y="-173" type="line"/>
			<point x="312" y="-74"/>
			<point x="432" y="43"/>
			<point x="432" y="196" type="curve" smooth="yes"/>
			<point x="432" y="270"/>
			<point x="382" y="317"/>
			<point x="300" y="314" type="curve"/>
			<point x="407" y="379"/>
			<point x="463" y="458"/>
			<point x="463" y="545" type="curve" smooth="yes"/>
			<point x="463" y="614"/>
			<point x="415" y="666"/>
			<point x="328" y="666" type="curve" smooth="yes"/>
			<point x="235" y="666"/>
			<point x="170" y="634"/>
			<point x="79" y="560" type="curve"/>
			<point x="125" y="498" type="line"/>
			<point x="190" y="550"/>
			<point x="234" y="573"/>
			<point x="292" y="573" type="curve" smooth="yes"/>
			<point x="330" y="573"/>
			<point x="355" y="544"/>
			<point x="355" y="504" type="curve" smooth="yes"/>
			<point x="355" y="441"/>
			<point x="318" y="390"/>
			<point x="110" y="282" type="curve"/>
			<point x="141" y="217" type="line"/>
			<point x="189" y="242"/>
			<point x="217" y="251"/>
			<point x="250" y="251" type="curve" smooth="yes"/>
			<point x="295" y="251"/>
			<point x="324" y="225"/>
			<point x="324" y="180" type="curve" smooth="yes"/>
			<point x="324" y="102"/>
			<point x="251" y="0"/>
			<point x="-9" y="-96" type="curve"/>
		</contour>
	</outline>
	<anchor name="aboveUC" x="318" y="676"/>
	<anchor name="belowLC" x="194" y="-166"/>
</glyph>
<glyph name="yogh" format="2">
	<unicode hex="021D"/>
	<advance width="430"/>
	<outline>
		<contour>
			<point x="2" y="-206" type="line"/>
			<point x="256" y="-114"/>
			<point x="364" y="-18"/>
			<point x="364" y="106" type="curve" smooth="yes"/>
			<point x="364" y="174"/>
			<point x="320" y="210"/>
			<point x="248" y="211" type="curve"/>
			<point x="341" y="268"/>
			<point x="384" y="329"/>
			<point x="384" y="395" type="curve" smooth="yes"/>
			<point x="384" y="459"/>
			<point x="337" y="503"/>
			<point x="260" y="503" type="curve" smooth="yes"/>
			<point x="185" y="503"/>
			<point x="126" y="476"/>
			<point x="46" y="411" type="curve"/>
			<point x="84" y="350" type="line"/>
			<point x="141" y="394"/>
			<point x="182" y="416"/>
			<point x="225" y="416" type="curve" smooth="yes"/>
			<point x="257" y="416"/>
			<point x="278" y="396"/>
			<point x="278" y="365" type="curve" smooth="yes"/>
			<point x="278" y="312"/>
			<point x="243" y="265"/>
			<point x="76" y="183" type="curve"/>
			<point x="106" y="122" type="line"/>
			<point x="145" y="141"/>
			<point x="170" y="150"/>
			<point x="195" y="150" type="curve" smooth="yes"/>
			<point x="232" y="150"/>
			<point x="257" y="128"/>
			<point x="257" y="92" type="curve" smooth="yes"/>
			<point x="257" y="23"/>
			<point x="186" y="-49"/>
			<point x="-22" y="-128" type="curve"/>
		</contour>
	</outline>
	<anchor name="aboveLC" x="248" y="514"/>
	<anchor name="belowLC" x="154" y="-198"/>
</glyph>
<glyph name="dotlessj" format="1">
	<unicode hex="0237"/>
	<advance width="252"/>
	<outline>
		<contour>
			<point x="-42" y="-206" type="curve" smooth="yes"/>
			<point x="56" y="-206"/>
			<point x="102" y="-135"/>
			<point x="123" y="-38" type="curve" smooth="yes"/>
			<point x="229" y="491" type="line"/>
			<point x="122" y="491" type="line"/>
			<point x="16" y="-36" type="line" smooth="yes"/>
			<point x="3" y="-92"/>
			<point x="-14" y="-120"/>
			<point x="-50" y="-120" type="curve" smooth="yes"/>
			<point x="-68" y="-120"/>
			<point x="-81" y="-116"/>
			<point x="-94" y="-108" type="curve"/>
			<point x="-128" y="-186" type="line"/>
			<point x="-100" y="-200"/>
			<point x="-75" y="-206"/>
		</contour>
		<contour>
			<point name="aboveLC" x="180" y="514" type="move"/>
		</contour>
		<contour>
			<point name="belowLC" x="-10" y="-208" type="move"/>
		</contour>
	</outline>
</glyph>
<glyph name="Astroke" format="2">
	<unicode hex="023A"/>
	<advance width="529"/>
	<outline>
		<contour>
			<point x="142" y="-36" type="line"/>
			<point x="470" y="676" type="line"/>
			<point x="432" y="690" type="line"/>
			<point x="104" y="-22" type="line"/>
		</contour>
		<component base="A"/>
	</outline>
	<anchor name="aboveUC" x="354" y="676"/>
	<anchor name="belowLC" x="222" y="-22"/>
</glyph>
<glyph name="cstroke" format="2">
	<unicode hex="023C"/>
	<advance width="439"/>
	<outline>
		<contour>
			<point x="158" y="-36" type="line"/>
			<point x="410" y="520" type="line"/>
			<point x="374" y="534" type="line"/>
			<point x="122" y="-22" type="line"/>
		</contour>
		<component base="c"/>
	</outline>
	<anchor name="aboveLC" x="300" y="514"/>
	<anchor name="belowLC" x="200" y="-22"/>
</glyph>
<glyph name="Lbar" format="2">
	<unicode hex="023D"/>
	<advance width="503"/>
	<outline>
		<contour>
			<point x="42" y="318" type="line"/>
			<point x="388" y="318" type="line"/>
			<point x="404" y="400" type="line"/>
			<point x="136" y="400" type="line"/>
			<point x="58" y="394" type="line"/>
		</contour>
		<component base="L" xOffset="22"/>
	</outline>
	<anchor name="aboveUC" x="239" y="676"/>
	<anchor name="belowLC" x="241" y="-22"/>
</glyph>
<glyph name="Glottalstop" format="2">
	<unicode hex="0241"/>
	<advance width="503"/>
	<outline>
		<contour>
			<point x="127" y="0" type="line"/>
			<point x="238" y="0" type="line"/>
			<point x="281" y="217" type="line"/>
			<point x="407" y="265"/>
			<point x="508" y="368"/>
			<point x="508" y="487" type="curve" smooth="yes"/>
			<point x="508" y="605"/>
			<point x="424" y="666"/>
			<point x="317" y="666" type="curve" smooth="yes"/>
			<point x="225" y="666"/>
			<point x="140" y="624"/>
			<point x="77" y="571" type="curve"/>
			<point x="123" y="498" type="line"/>
			<point x="172" y="537"/>
			<point x="235" y="570"/>
			<point x="295" y="570" type="curve" smooth="yes"/>
			<point x="355" y="570"/>
			<point x="395" y="535"/>
			<point x="395" y="467" type="curve" smooth="yes"/>
			<point x="395" y="391"/>
			<point x="332" y="322"/>
			<point x="182" y="271" type="curve"/>
		</contour>
	</outline>
	<anchor name="aboveUC" x="329" y="676"/>
	<anchor name="belowLC" x="179" y="-22"/>
</glyph>
<glyph name="glottalstoplatin" format="2">
	<unicode hex="0242"/>
	<advance width="438"/>
	<outline>
		<contour>
			<point x="93" y="0" type="line"/>
			<point x="200" y="0" type="line"/>
			<point x="229" y="147" type="line"/>
			<point x="340" y="190"/>
			<point x="407" y="272"/>
			<point x="407" y="365" type="curve" smooth="yes"/>
			<point x="407" y="454"/>
			<point x="338" y="503"/>
			<point x="248" y="503" type="curve" smooth="yes"/>
			<point x="166" y="503"/>
			<point x="103" y="465"/>
			<point x="50" y="420" type="curve"/>
			<point x="93" y="357" type="line"/>
			<point x="131" y="389"/>
			<point x="174" y="416"/>
			<point x="225" y="416" type="curve" smooth="yes"/>
			<point x="269" y="416"/>
			<point x="298" y="390"/>
			<point x="298" y="344" type="curve" smooth="yes"/>
			<point x="298" y="283"/>
			<point x="247" y="230"/>
			<point x="131" y="188" type="curve"/>
		</contour>
	</outline>
	<anchor name="aboveLC" x="266" y="514"/>
	<anchor name="belowLC" x="148" y="-22"/>
</glyph>
<glyph name="Bstroke" format="1">
	<unicode hex="0243"/>
	<advance width="608"/>
	<outline>
		<contour>
			<point x="50" y="0" type="line"/>
			<point x="273" y="0" type="line" smooth="yes"/>
			<point x="428" y="0"/>
			<point x="550" y="64"/>
			<point x="550" y="218" type="curve" smooth="yes"/>
			<point x="550" y="291"/>
			<point x="504" y="334"/>
			<point x="434" y="352" type="curve"/>
			<point x="435" y="356" type="line"/>
			<point x="514" y="375"/>
			<point x="579" y="434"/>
			<point x="579" y="513" type="curve" smooth="yes"/>
			<point x="579" y="608"/>
			<point x="496" y="654"/>
			<point x="368" y="654" type="curve" smooth="yes"/>
			<point x="180" y="654" type="line"/>
		</contour>
		<contour>
			<point x="3" y="172" type="line"/>
			<point x="329" y="172" type="line"/>
			<point x="342" y="240" type="line"/>
			<point x="100" y="240" type="line"/>
			<point x="16" y="235" type="line"/>
		</contour>
		<contour>
			<point x="172" y="78" type="line"/>
			<point x="221" y="319" type="line"/>
			<point x="321" y="319" type="line" smooth="yes"/>
			<point x="402" y="319"/>
			<point x="446" y="279"/>
			<point x="446" y="219" type="curve" smooth="yes"/>
			<point x="446" y="124"/>
			<point x="378" y="78"/>
			<point x="272" y="78" type="curve" smooth="yes"/>
		</contour>
		<contour>
			<point x="236" y="389" type="line"/>
			<point x="273" y="575" type="line"/>
			<point x="346" y="575" type="line" smooth="yes"/>
			<point x="429" y="575"/>
			<point x="469" y="547"/>
			<point x="469" y="496" type="curve" smooth="yes"/>
			<point x="469" y="432"/>
			<point x="418" y="389"/>
			<point x="313" y="389" type="curve" smooth="yes"/>
		</contour>
	</outline>
</glyph>
<glyph name="Ubar" format="2">
	<unicode hex="0244"/>
	<advance width="668"/>
	<outline>
		<contour>
			<point x="38" y="318" type="line"/>
			<point x="656" y="318" type="line"/>
			<point x="670" y="400" type="line"/>
			<point x="140" y="400" type="line"/>
			<point x="54" y="394" type="line"/>
		</contour>
		<component base="U" xOffset="18"/>
	</outline>
	<anchor name="aboveUC" x="422" y="676"/>
	<anchor name="belowLC" x="288" y="-22"/>
</glyph>
<glyph name="aturned" format="2">
	<unicode hex="0250"/>
	<advance width="500"/>
	<outline>
		<contour>
			<point x="220" y="-12" type="curve" smooth="yes"/>
			<point x="286" y="-12"/>
			<point x="353" y="13"/>
			<point x="417" y="49" type="curve"/>
			<point x="385" y="120" type="line"/>
			<point x="332" y="91"/>
			<point x="289" y="75"/>
			<point x="245" y="75" type="curve" smooth="yes"/>
			<point x="191" y="75"/>
			<point x="165" y="99"/>
			<point x="165" y="151" type="curve" smooth="yes"/>
			<point x="165" y="159"/>
			<point x="167" y="168"/>
			<point x="170" y="180" type="curve"/>
			<point x="382" y="200"/>
			<point x="484" y="280"/>
			<point x="484" y="400" type="curve" smooth="yes"/>
			<point x="484" y="463"/>
			<point x="443" y="504"/>
			<point x="376" y="504" type="curve" smooth="yes"/>
			<point x="313" y="504"/>
			<point x="255" y="469"/>
			<point x="210" y="428" type="curve"/>
			<point x="207" y="428" type="line"/>
			<point x="210" y="492" type="line"/>
			<point x="120" y="492" type="line"/>
			<point x="64" y="209" type="line" smooth="yes"/>
			<point x="59" y="185"/>
			<point x="57" y="164"/>
			<point x="57" y="144" type="curve" smooth="yes"/>
			<point x="57" y="37"/>
			<point x="117" y="-12"/>
		</contour>
		<contour>
			<point x="182" y="254" type="curve"/>
			<point x="203" y="358" type="line"/>
			<point x="243" y="395"/>
			<point x="283" y="418"/>
			<point x="322" y="418" type="curve" smooth="yes"/>
			<point x="352" y="418"/>
			<point x="375" y="400"/>
			<point x="375" y="364" type="curve" smooth="yes"/>
			<point x="375" y="298"/>
			<point x="308" y="270"/>
		</contour>
	</outline>
	<anchor name="aboveLC" x="316" y="513"/>
	<anchor name="belowLC" x="226" y="-22"/>
	<anchor name="ogonekLC" x="274" y="0"/>
</glyph>
<glyph name="alphalatin" format="1">
	<unicode hex="0251"/>
	<advance width="549"/>
	<outline>
		<contour>
			<point x="175" y="-12" type="curve" smooth="yes"/>
			<point x="231" y="-12"/>
			<point x="291" y="20"/>
			<point x="337" y="68" type="curve"/>
			<point x="340" y="68" type="line"/>
			<point x="338" y="56"/>
			<point x="337" y="51"/>
			<point x="337" y="47" type="curve" smooth="yes"/>
			<point x="345" y="2"/>
			<point x="374" y="-12"/>
			<point x="410" y="-12" type="curve" smooth="yes"/>
			<point x="433" y="-12"/>
			<point x="452" y="-8"/>
			<point x="471" y="-2" type="curve"/>
			<point x="473" y="78" type="line"/>
			<point x="464" y="75"/>
			<point x="460" y="75"/>
			<point x="457" y="75" type="curve" smooth="yes"/>
			<point x="448" y="75"/>
			<point x="443" y="81"/>
			<point x="443" y="92" type="curve" smooth="yes"/>
			<point x="443" y="96"/>
			<point x="443" y="100"/>
			<point x="445" y="109" type="curve" smooth="yes"/>
			<point x="521" y="491" type="line"/>
			<point x="435" y="491" type="line"/>
			<point x="414" y="434" type="line"/>
			<point x="412" y="434" type="line"/>
			<point x="390" y="476"/>
			<point x="347" y="503"/>
			<point x="299" y="503" type="curve" smooth="yes"/>
			<point x="163" y="503"/>
			<point x="35" y="355"/>
			<point x="35" y="167" type="curve" smooth="yes"/>
			<point x="35" y="52"/>
			<point x="89" y="-12"/>
		</contour>
		<contour>
			<point x="219" y="76" type="curve" smooth="yes"/>
			<point x="174" y="76"/>
			<point x="146" y="110"/>
			<point x="146" y="182" type="curve" smooth="yes"/>
			<point x="146" y="308"/>
			<point x="222" y="415"/>
			<point x="305" y="415" type="curve" smooth="yes"/>
			<point x="335" y="415"/>
			<point x="366" y="397"/>
			<point x="388" y="355" type="curve"/>
			<point x="348" y="159" type="line"/>
			<point x="308" y="100"/>
			<point x="261" y="76"/>
		</contour>
		<contour>
			<point name="aboveLC" x="322" y="514" type="move"/>
		</contour>
		<contour>
			<point name="belowLC" x="238" y="-22" type="move"/>
		</contour>
	</outline>
</glyph>
<glyph name="alphalatinturned" format="1">
	<unicode hex="0252"/>
	<advance width="564"/>
	<outline>
		<contour>
			<point x="248" y="-12" type="curve" smooth="yes"/>
			<point x="384" y="-12"/>
			<point x="512" y="136"/>
			<point x="512" y="324" type="curve" smooth="yes"/>
			<point x="512" y="440"/>
			<point x="458" y="503"/>
			<point x="372" y="503" type="curve" smooth="yes"/>
			<point x="316" y="503"/>
			<point x="257" y="470"/>
			<point x="210" y="426" type="curve"/>
			<point x="207" y="426" type="line"/>
			<point x="210" y="436"/>
			<point x="210" y="441"/>
			<point x="210" y="444" type="curve" smooth="yes"/>
			<point x="202" y="489"/>
			<point x="173" y="503"/>
			<point x="137" y="503" type="curve" smooth="yes"/>
			<point x="114" y="503"/>
			<point x="95" y="499"/>
			<point x="76" y="494" type="curve"/>
			<point x="74" y="413" type="line"/>
			<point x="83" y="416"/>
			<point x="87" y="416"/>
			<point x="90" y="416" type="curve" smooth="yes"/>
			<point x="99" y="416"/>
			<point x="104" y="410"/>
			<point x="104" y="400" type="curve" smooth="yes"/>
			<point x="104" y="396"/>
			<point x="104" y="391"/>
			<point x="102" y="382" type="curve"/>
			<point x="26" y="0" type="line"/>
			<point x="115" y="0" type="line"/>
			<point x="135" y="57" type="line"/>
			<point x="138" y="57" type="line"/>
			<point x="159" y="15"/>
			<point x="200" y="-12"/>
		</contour>
		<contour>
			<point x="242" y="76" type="curve" smooth="yes"/>
			<point x="211" y="76"/>
			<point x="182" y="94"/>
			<point x="160" y="136" type="curve"/>
			<point x="202" y="344" type="line"/>
			<point x="240" y="392"/>
			<point x="290" y="415"/>
			<point x="328" y="415" type="curve" smooth="yes"/>
			<point x="373" y="415"/>
			<point x="401" y="381"/>
			<point x="401" y="310" type="curve" smooth="yes"/>
			<point x="401" y="183"/>
			<point x="325" y="76"/>
		</contour>
		<contour>
			<point name="aboveLC" x="338" y="513" type="move"/>
		</contour>
		<contour>
			<point name="belowLC" x="238" y="-22" type="move"/>
		</contour>
	</outline>
</glyph>
<glyph name="bhook" format="2">
	<unicode hex="0253"/>
	<advance width="546"/>
	<outline>
		<contour>
			<point x="246" y="-12" type="curve" smooth="yes"/>
			<point x="382" y="-12"/>
			<point x="507" y="134"/>
			<point x="507" y="318" type="curve" smooth="yes"/>
			<point x="507" y="430"/>
			<point x="454" y="491"/>
			<point x="367" y="491" type="curve" smooth="yes"/>
			<point x="313" y="491"/>
			<point x="259" y="464"/>
			<point x="214" y="427" type="curve"/>
			<point x="212" y="427" type="line"/>
			<point x="235" y="521" type="line"/>
			<point x="242" y="554" type="line" smooth="yes"/>
			<point x="255" y="605"/>
			<point x="281" y="630"/>
			<point x="326" y="630" type="curve" smooth="yes"/>
			<point x="351" y="630"/>
			<point x="371" y="624"/>
			<point x="389" y="615" type="curve"/>
			<point x="425" y="691" type="line"/>
			<point x="393" y="709"/>
			<point x="359" y="718"/>
			<point x="317" y="718" type="curve" smooth="yes"/>
			<point x="206" y="718"/>
			<point x="152" y="649"/>
			<point x="131" y="544" type="curve" smooth="yes"/>
			<point x="22" y="0" type="line"/>
			<point x="113" y="0" type="line"/>
			<point x="133" y="57" type="line"/>
			<point x="136" y="57" type="line"/>
			<point x="157" y="15"/>
			<point x="198" y="-12"/>
		</contour>
		<contour>
			<point x="239" y="79" type="curve" smooth="yes"/>
			<point x="209" y="79"/>
			<point x="180" y="96"/>
			<point x="159" y="137" type="curve"/>
			<point x="198" y="331" type="line"/>
			<point x="235" y="378"/>
			<point x="284" y="401"/>
			<point x="322" y="401" type="curve" smooth="yes"/>
			<point x="365" y="401"/>
			<point x="393" y="370"/>
			<point x="393" y="303" type="curve" smooth="yes"/>
			<point x="393" y="181"/>
			<point x="321" y="79"/>
		</contour>
	</outline>
	<anchor name="aboveUC" x="392" y="724"/>
	<anchor name="belowLC" x="236" y="-22"/>
</glyph>
<glyph name="oopen" format="2">
	<unicode hex="0254"/>
	<advance width="446"/>
	<outline>
		<contour>
			<point x="130" y="-12" type="curve" smooth="yes"/>
			<point x="277" y="-12"/>
			<point x="414" y="109"/>
			<point x="414" y="302" type="curve" smooth="yes"/>
			<point x="414" y="430"/>
			<point x="339" y="503"/>
			<point x="237" y="503" type="curve" smooth="yes"/>
			<point x="168" y="503"/>
			<point x="112" y="477"/>
			<point x="69" y="442" type="curve"/>
			<point x="113" y="376" type="line"/>
			<point x="147" y="403"/>
			<point x="175" y="416"/>
			<point x="212" y="416" type="curve" smooth="yes"/>
			<point x="267" y="416"/>
			<point x="305" y="370"/>
			<point x="305" y="290" type="curve" smooth="yes"/>
			<point x="305" y="161"/>
			<point x="228" y="75"/>
			<point x="135" y="75" type="curve" smooth="yes"/>
			<point x="97" y="75"/>
			<point x="65" y="94"/>
			<point x="42" y="120" type="curve"/>
			<point x="-15" y="51" type="line"/>
			<point x="15" y="14"/>
			<point x="67" y="-12"/>
		</contour>
	</outline>
	<anchor name="aboveLC" x="260" y="514"/>
	<anchor name="baseLC" x="154" y="0"/>
	<anchor name="belowLC" x="154" y="-22"/>
</glyph>
<glyph name="ccurl" format="1">
	<unicode hex="0255"/>
	<advance width="462"/>
	<outline>
		<contour>
			<point x="58" y="-71" type="line"/>
			<point x="129" y="71"/>
			<point x="232" y="164"/>
			<point x="296" y="164" type="curve" smooth="yes"/>
			<point x="324" y="164"/>
			<point x="335" y="146"/>
			<point x="333" y="128" type="curve" smooth="yes"/>
			<point x="330" y="100"/>
			<point x="296" y="75"/>
			<point x="250" y="75" type="curve" smooth="yes"/>
			<point x="178" y="75"/>
			<point x="143" y="118"/>
			<point x="143" y="192" type="curve" smooth="yes"/>
			<point x="143" y="314"/>
			<point x="220" y="416"/>
			<point x="308" y="416" type="curve" smooth="yes"/>
			<point x="341" y="416"/>
			<point x="362" y="404"/>
			<point x="384" y="379" type="curve"/>
			<point x="444" y="443" type="line"/>
			<point x="419" y="475"/>
			<point x="375" y="503"/>
			<point x="315" y="503" type="curve" smooth="yes"/>
			<point x="162" y="503"/>
			<point x="33" y="364"/>
			<point x="33" y="188" type="curve" smooth="yes"/>
			<point x="33" y="61"/>
			<point x="115" y="-12"/>
			<point x="228" y="-12" type="curve" smooth="yes"/>
			<point x="332" y="-12"/>
			<point x="416" y="58"/>
			<point x="420" y="142" type="curve" smooth="yes"/>
			<point x="423" y="202"/>
			<point x="384" y="242"/>
			<point x="319" y="242" type="curve" smooth="yes"/>
			<point x="216" y="242"/>
			<point x="103" y="140"/>
			<point x="-4" y="-44" type="curve"/>
		</contour>
		<contour>
			<point name="aboveLC" x="296" y="513" type="move"/>
		</contour>
		<contour>
			<point name="belowLC" x="232" y="-22" type="move"/>
		</contour>
	</outline>
</glyph>
<glyph name="dtail" format="2">
	<unicode hex="0256"/>
	<advance width="545"/>
	<outline>
		<contour>
			<point x="403" y="-205" type="curve" smooth="yes"/>
			<point x="436" y="-205"/>
			<point x="471" y="-196"/>
			<point x="490" y="-188" type="curve"/>
			<point x="473" y="-109" type="line"/>
			<point x="463" y="-113"/>
			<point x="453" y="-116"/>
			<point x="441" y="-116" type="curve" smooth="yes"/>
			<point x="421" y="-116"/>
			<point x="412" y="-106"/>
			<point x="412" y="-82" type="curve" smooth="yes"/>
			<point x="412" y="-71"/>
			<point x="413" y="-64"/>
			<point x="415" y="-49" type="curve" smooth="yes"/>
			<point x="567" y="706" type="line"/>
			<point x="457" y="706" type="line"/>
			<point x="422" y="533" type="line"/>
			<point x="409" y="439" type="line"/>
			<point x="406" y="439" type="line"/>
			<point x="385" y="478"/>
			<point x="347" y="504"/>
			<point x="299" y="504" type="curve" smooth="yes"/>
			<point x="163" y="504"/>
			<point x="35" y="355"/>
			<point x="35" y="167" type="curve" smooth="yes"/>
			<point x="35" y="52"/>
			<point x="88" y="-12"/>
			<point x="175" y="-12" type="curve" smooth="yes"/>
			<point x="230" y="-12"/>
			<point x="290" y="20"/>
			<point x="337" y="69" type="curve"/>
			<point x="339" y="69" type="line"/>
			<point x="312" y="-53"/>
			<point x="308" y="-84"/>
			<point x="308" y="-112" type="curve" smooth="yes"/>
			<point x="308" y="-172"/>
			<point x="338" y="-205"/>
		</contour>
		<contour>
			<point x="220" y="79" type="curve" smooth="yes"/>
			<point x="176" y="79"/>
			<point x="149" y="111"/>
			<point x="149" y="182" type="curve" smooth="yes"/>
			<point x="149" y="308"/>
			<point x="224" y="413"/>
			<point x="305" y="413" type="curve" smooth="yes"/>
			<point x="335" y="413"/>
			<point x="365" y="396"/>
			<point x="387" y="355" type="curve"/>
			<point x="347" y="161" type="line"/>
			<point x="307" y="101"/>
			<point x="261" y="79"/>
		</contour>
	</outline>
	<anchor name="aboveUC" x="344" y="724"/>
	<anchor name="belowLC" x="200" y="-131"/>
</glyph>
<glyph name="dhook" format="2">
	<unicode hex="0257"/>
	<advance width="545"/>
	<outline>
		<contour>
			<point x="175" y="-12" type="curve" smooth="yes"/>
			<point x="230" y="-12"/>
			<point x="290" y="20"/>
			<point x="336" y="68" type="curve"/>
			<point x="339" y="68" type="line"/>
			<point x="334" y="0" type="line"/>
			<point x="424" y="0" type="line"/>
			<point x="535" y="551" type="line" smooth="yes"/>
			<point x="547" y="609"/>
			<point x="570" y="630"/>
			<point x="604" y="630" type="curve" smooth="yes"/>
			<point x="614" y="630"/>
			<point x="624" y="627"/>
			<point x="630" y="624" type="curve"/>
			<point x="663" y="706" type="line"/>
			<point x="650" y="712"/>
			<point x="629" y="718"/>
			<point x="607" y="718" type="curve" smooth="yes"/>
			<point x="503" y="718"/>
			<point x="450" y="655"/>
			<point x="431" y="564" type="curve" smooth="yes"/>
			<point x="424" y="527" type="line"/>
			<point x="409" y="439" type="line"/>
			<point x="406" y="439" type="line"/>
			<point x="385" y="478"/>
			<point x="347" y="504"/>
			<point x="299" y="504" type="curve" smooth="yes"/>
			<point x="163" y="504"/>
			<point x="35" y="355"/>
			<point x="35" y="167" type="curve" smooth="yes"/>
			<point x="35" y="52"/>
			<point x="88" y="-12"/>
		</contour>
		<contour>
			<point x="220" y="79" type="curve" smooth="yes"/>
			<point x="176" y="79"/>
			<point x="149" y="111"/>
			<point x="149" y="182" type="curve" smooth="yes"/>
			<point x="149" y="308"/>
			<point x="224" y="413"/>
			<point x="305" y="413" type="curve" smooth="yes"/>
			<point x="335" y="413"/>
			<point x="365" y="396"/>
			<point x="387" y="355" type="curve"/>
			<point x="347" y="161" type="line"/>
			<point x="307" y="101"/>
			<point x="261" y="79"/>
		</contour>
	</outline>
	<anchor name="aboveUC" x="344" y="724"/>
	<anchor name="belowLC" x="219" y="-22"/>
</glyph>
